G04 #@! TF.GenerationSoftware,KiCad,Pcbnew,(5.1.2)-1*
G04 #@! TF.CreationDate,2019-05-23T11:15:45-04:00*
G04 #@! TF.ProjectId,lc_dc1000,6c635f64-6331-4303-9030-2e6b69636164,rev?*
G04 #@! TF.SameCoordinates,Original*
G04 #@! TF.FileFunction,Legend,Bot*
G04 #@! TF.FilePolarity,Positive*
%FSLAX46Y46*%
G04 Gerber Fmt 4.6, Leading zero omitted, Abs format (unit mm)*
G04 Created by KiCad (PCBNEW (5.1.2)-1) date 2019-05-23 11:15:45*
%MOMM*%
%LPD*%
G04 APERTURE LIST*
%ADD10C,0.120000*%
%ADD11C,0.150000*%
G04 APERTURE END LIST*
D10*
X179977522Y-120600400D02*
X180494678Y-120600400D01*
X179977522Y-122020400D02*
X180494678Y-122020400D01*
X204680078Y-127913200D02*
X204162922Y-127913200D01*
X204680078Y-126493200D02*
X204162922Y-126493200D01*
X184122322Y-107290800D02*
X184639478Y-107290800D01*
X184122322Y-108710800D02*
X184639478Y-108710800D01*
X171245600Y-88978478D02*
X171245600Y-88461322D01*
X169825600Y-88978478D02*
X169825600Y-88461322D01*
X171806800Y-93829878D02*
X171806800Y-93312722D01*
X173226800Y-93829878D02*
X173226800Y-93312722D01*
X192177600Y-124390678D02*
X192177600Y-123873522D01*
X193597600Y-124390678D02*
X193597600Y-123873522D01*
X208861922Y-119101800D02*
X209379078Y-119101800D01*
X208861922Y-120521800D02*
X209379078Y-120521800D01*
X202662022Y-95403600D02*
X203179178Y-95403600D01*
X202662022Y-96823600D02*
X203179178Y-96823600D01*
X212241200Y-95176078D02*
X212241200Y-94658922D01*
X210821200Y-95176078D02*
X210821200Y-94658922D01*
X202744000Y-91396078D02*
X202744000Y-90878922D01*
X204164000Y-91396078D02*
X204164000Y-90878922D01*
X203910000Y-75862922D02*
X203910000Y-76380078D01*
X202490000Y-75862922D02*
X202490000Y-76380078D01*
X173916078Y-91134000D02*
X173398922Y-91134000D01*
X173916078Y-89714000D02*
X173398922Y-89714000D01*
X184639478Y-110844400D02*
X184122322Y-110844400D01*
X184639478Y-109424400D02*
X184122322Y-109424400D01*
X173226800Y-97150422D02*
X173226800Y-97667578D01*
X171806800Y-97150422D02*
X171806800Y-97667578D01*
X208786800Y-77971122D02*
X208786800Y-78488278D01*
X207366800Y-77971122D02*
X207366800Y-78488278D01*
X208857322Y-122757000D02*
X209374478Y-122757000D01*
X208857322Y-121337000D02*
X209374478Y-121337000D01*
X214095400Y-83766922D02*
X214095400Y-84284078D01*
X212675400Y-83766922D02*
X212675400Y-84284078D01*
X211176800Y-89075522D02*
X211176800Y-89592678D01*
X212596800Y-89075522D02*
X212596800Y-89592678D01*
X208586000Y-82252078D02*
X208586000Y-81734922D01*
X210006000Y-82252078D02*
X210006000Y-81734922D01*
D11*
X180878957Y-123317542D02*
X180926576Y-123365161D01*
X181069433Y-123412780D01*
X181164671Y-123412780D01*
X181307528Y-123365161D01*
X181402766Y-123269923D01*
X181450385Y-123174685D01*
X181498004Y-122984209D01*
X181498004Y-122841352D01*
X181450385Y-122650876D01*
X181402766Y-122555638D01*
X181307528Y-122460400D01*
X181164671Y-122412780D01*
X181069433Y-122412780D01*
X180926576Y-122460400D01*
X180878957Y-122508019D01*
X179926576Y-123412780D02*
X180498004Y-123412780D01*
X180212290Y-123412780D02*
X180212290Y-122412780D01*
X180307528Y-122555638D01*
X180402766Y-122650876D01*
X180498004Y-122698495D01*
X179450385Y-123412780D02*
X179259909Y-123412780D01*
X179164671Y-123365161D01*
X179117052Y-123317542D01*
X179021814Y-123174685D01*
X178974195Y-122984209D01*
X178974195Y-122603257D01*
X179021814Y-122508019D01*
X179069433Y-122460400D01*
X179164671Y-122412780D01*
X179355147Y-122412780D01*
X179450385Y-122460400D01*
X179498004Y-122508019D01*
X179545623Y-122603257D01*
X179545623Y-122841352D01*
X179498004Y-122936590D01*
X179450385Y-122984209D01*
X179355147Y-123031828D01*
X179164671Y-123031828D01*
X179069433Y-122984209D01*
X179021814Y-122936590D01*
X178974195Y-122841352D01*
X205064357Y-125910342D02*
X205111976Y-125957961D01*
X205254833Y-126005580D01*
X205350071Y-126005580D01*
X205492928Y-125957961D01*
X205588166Y-125862723D01*
X205635785Y-125767485D01*
X205683404Y-125577009D01*
X205683404Y-125434152D01*
X205635785Y-125243676D01*
X205588166Y-125148438D01*
X205492928Y-125053200D01*
X205350071Y-125005580D01*
X205254833Y-125005580D01*
X205111976Y-125053200D01*
X205064357Y-125100819D01*
X204111976Y-126005580D02*
X204683404Y-126005580D01*
X204397690Y-126005580D02*
X204397690Y-125005580D01*
X204492928Y-125148438D01*
X204588166Y-125243676D01*
X204683404Y-125291295D01*
X203778642Y-125005580D02*
X203111976Y-125005580D01*
X203540547Y-126005580D01*
X184970657Y-112517180D02*
X185303990Y-112040990D01*
X185542085Y-112517180D02*
X185542085Y-111517180D01*
X185161133Y-111517180D01*
X185065895Y-111564800D01*
X185018276Y-111612419D01*
X184970657Y-111707657D01*
X184970657Y-111850514D01*
X185018276Y-111945752D01*
X185065895Y-111993371D01*
X185161133Y-112040990D01*
X185542085Y-112040990D01*
X184018276Y-112517180D02*
X184589704Y-112517180D01*
X184303990Y-112517180D02*
X184303990Y-111517180D01*
X184399228Y-111660038D01*
X184494466Y-111755276D01*
X184589704Y-111802895D01*
X183637323Y-111612419D02*
X183589704Y-111564800D01*
X183494466Y-111517180D01*
X183256371Y-111517180D01*
X183161133Y-111564800D01*
X183113514Y-111612419D01*
X183065895Y-111707657D01*
X183065895Y-111802895D01*
X183113514Y-111945752D01*
X183684942Y-112517180D01*
X183065895Y-112517180D01*
X169082980Y-88079342D02*
X168606790Y-87746009D01*
X169082980Y-87507914D02*
X168082980Y-87507914D01*
X168082980Y-87888866D01*
X168130600Y-87984104D01*
X168178219Y-88031723D01*
X168273457Y-88079342D01*
X168416314Y-88079342D01*
X168511552Y-88031723D01*
X168559171Y-87984104D01*
X168606790Y-87888866D01*
X168606790Y-87507914D01*
X169082980Y-89031723D02*
X169082980Y-88460295D01*
X169082980Y-88746009D02*
X168082980Y-88746009D01*
X168225838Y-88650771D01*
X168321076Y-88555533D01*
X168368695Y-88460295D01*
X168082980Y-89888866D02*
X168082980Y-89698390D01*
X168130600Y-89603152D01*
X168178219Y-89555533D01*
X168321076Y-89460295D01*
X168511552Y-89412676D01*
X168892504Y-89412676D01*
X168987742Y-89460295D01*
X169035361Y-89507914D01*
X169082980Y-89603152D01*
X169082980Y-89793628D01*
X169035361Y-89888866D01*
X168987742Y-89936485D01*
X168892504Y-89984104D01*
X168654409Y-89984104D01*
X168559171Y-89936485D01*
X168511552Y-89888866D01*
X168463933Y-89793628D01*
X168463933Y-89603152D01*
X168511552Y-89507914D01*
X168559171Y-89460295D01*
X168654409Y-89412676D01*
X174523942Y-93404633D02*
X174571561Y-93357014D01*
X174619180Y-93214157D01*
X174619180Y-93118919D01*
X174571561Y-92976061D01*
X174476323Y-92880823D01*
X174381085Y-92833204D01*
X174190609Y-92785585D01*
X174047752Y-92785585D01*
X173857276Y-92833204D01*
X173762038Y-92880823D01*
X173666800Y-92976061D01*
X173619180Y-93118919D01*
X173619180Y-93214157D01*
X173666800Y-93357014D01*
X173714419Y-93404633D01*
X174619180Y-94357014D02*
X174619180Y-93785585D01*
X174619180Y-94071300D02*
X173619180Y-94071300D01*
X173762038Y-93976061D01*
X173857276Y-93880823D01*
X173904895Y-93785585D01*
X194997342Y-123937733D02*
X195044961Y-123890114D01*
X195092580Y-123747257D01*
X195092580Y-123652019D01*
X195044961Y-123509161D01*
X194949723Y-123413923D01*
X194854485Y-123366304D01*
X194664009Y-123318685D01*
X194521152Y-123318685D01*
X194330676Y-123366304D01*
X194235438Y-123413923D01*
X194140200Y-123509161D01*
X194092580Y-123652019D01*
X194092580Y-123747257D01*
X194140200Y-123890114D01*
X194187819Y-123937733D01*
X194092580Y-124271066D02*
X194092580Y-124937733D01*
X195092580Y-124509161D01*
X209557857Y-118435380D02*
X209891190Y-117959190D01*
X210129285Y-118435380D02*
X210129285Y-117435380D01*
X209748333Y-117435380D01*
X209653095Y-117483000D01*
X209605476Y-117530619D01*
X209557857Y-117625857D01*
X209557857Y-117768714D01*
X209605476Y-117863952D01*
X209653095Y-117911571D01*
X209748333Y-117959190D01*
X210129285Y-117959190D01*
X209224523Y-117435380D02*
X208605476Y-117435380D01*
X208938809Y-117816333D01*
X208795952Y-117816333D01*
X208700714Y-117863952D01*
X208653095Y-117911571D01*
X208605476Y-118006809D01*
X208605476Y-118244904D01*
X208653095Y-118340142D01*
X208700714Y-118387761D01*
X208795952Y-118435380D01*
X209081666Y-118435380D01*
X209176904Y-118387761D01*
X209224523Y-118340142D01*
X208272142Y-117435380D02*
X207605476Y-117435380D01*
X208034047Y-118435380D01*
X203563457Y-98215980D02*
X203896790Y-97739790D01*
X204134885Y-98215980D02*
X204134885Y-97215980D01*
X203753933Y-97215980D01*
X203658695Y-97263600D01*
X203611076Y-97311219D01*
X203563457Y-97406457D01*
X203563457Y-97549314D01*
X203611076Y-97644552D01*
X203658695Y-97692171D01*
X203753933Y-97739790D01*
X204134885Y-97739790D01*
X203230123Y-97215980D02*
X202611076Y-97215980D01*
X202944409Y-97596933D01*
X202801552Y-97596933D01*
X202706314Y-97644552D01*
X202658695Y-97692171D01*
X202611076Y-97787409D01*
X202611076Y-98025504D01*
X202658695Y-98120742D01*
X202706314Y-98168361D01*
X202801552Y-98215980D01*
X203087266Y-98215980D01*
X203182504Y-98168361D01*
X203230123Y-98120742D01*
X202277742Y-97215980D02*
X201658695Y-97215980D01*
X201992028Y-97596933D01*
X201849171Y-97596933D01*
X201753933Y-97644552D01*
X201706314Y-97692171D01*
X201658695Y-97787409D01*
X201658695Y-98025504D01*
X201706314Y-98120742D01*
X201753933Y-98168361D01*
X201849171Y-98215980D01*
X202134885Y-98215980D01*
X202230123Y-98168361D01*
X202277742Y-98120742D01*
X213633580Y-94274642D02*
X213157390Y-93941309D01*
X213633580Y-93703214D02*
X212633580Y-93703214D01*
X212633580Y-94084166D01*
X212681200Y-94179404D01*
X212728819Y-94227023D01*
X212824057Y-94274642D01*
X212966914Y-94274642D01*
X213062152Y-94227023D01*
X213109771Y-94179404D01*
X213157390Y-94084166D01*
X213157390Y-93703214D01*
X212633580Y-94607976D02*
X212633580Y-95227023D01*
X213014533Y-94893690D01*
X213014533Y-95036547D01*
X213062152Y-95131785D01*
X213109771Y-95179404D01*
X213205009Y-95227023D01*
X213443104Y-95227023D01*
X213538342Y-95179404D01*
X213585961Y-95131785D01*
X213633580Y-95036547D01*
X213633580Y-94750833D01*
X213585961Y-94655595D01*
X213538342Y-94607976D01*
X212633580Y-95846071D02*
X212633580Y-95941309D01*
X212681200Y-96036547D01*
X212728819Y-96084166D01*
X212824057Y-96131785D01*
X213014533Y-96179404D01*
X213252628Y-96179404D01*
X213443104Y-96131785D01*
X213538342Y-96084166D01*
X213585961Y-96036547D01*
X213633580Y-95941309D01*
X213633580Y-95846071D01*
X213585961Y-95750833D01*
X213538342Y-95703214D01*
X213443104Y-95655595D01*
X213252628Y-95607976D01*
X213014533Y-95607976D01*
X212824057Y-95655595D01*
X212728819Y-95703214D01*
X212681200Y-95750833D01*
X212633580Y-95846071D01*
X205556380Y-90494642D02*
X205080190Y-90161309D01*
X205556380Y-89923214D02*
X204556380Y-89923214D01*
X204556380Y-90304166D01*
X204604000Y-90399404D01*
X204651619Y-90447023D01*
X204746857Y-90494642D01*
X204889714Y-90494642D01*
X204984952Y-90447023D01*
X205032571Y-90399404D01*
X205080190Y-90304166D01*
X205080190Y-89923214D01*
X204651619Y-90875595D02*
X204604000Y-90923214D01*
X204556380Y-91018452D01*
X204556380Y-91256547D01*
X204604000Y-91351785D01*
X204651619Y-91399404D01*
X204746857Y-91447023D01*
X204842095Y-91447023D01*
X204984952Y-91399404D01*
X205556380Y-90827976D01*
X205556380Y-91447023D01*
X205556380Y-91923214D02*
X205556380Y-92113690D01*
X205508761Y-92208928D01*
X205461142Y-92256547D01*
X205318285Y-92351785D01*
X205127809Y-92399404D01*
X204746857Y-92399404D01*
X204651619Y-92351785D01*
X204604000Y-92304166D01*
X204556380Y-92208928D01*
X204556380Y-92018452D01*
X204604000Y-91923214D01*
X204651619Y-91875595D01*
X204746857Y-91827976D01*
X204984952Y-91827976D01*
X205080190Y-91875595D01*
X205127809Y-91923214D01*
X205175428Y-92018452D01*
X205175428Y-92208928D01*
X205127809Y-92304166D01*
X205080190Y-92351785D01*
X204984952Y-92399404D01*
X202002380Y-75478642D02*
X201526190Y-75145309D01*
X202002380Y-74907214D02*
X201002380Y-74907214D01*
X201002380Y-75288166D01*
X201050000Y-75383404D01*
X201097619Y-75431023D01*
X201192857Y-75478642D01*
X201335714Y-75478642D01*
X201430952Y-75431023D01*
X201478571Y-75383404D01*
X201526190Y-75288166D01*
X201526190Y-74907214D01*
X201097619Y-75859595D02*
X201050000Y-75907214D01*
X201002380Y-76002452D01*
X201002380Y-76240547D01*
X201050000Y-76335785D01*
X201097619Y-76383404D01*
X201192857Y-76431023D01*
X201288095Y-76431023D01*
X201430952Y-76383404D01*
X202002380Y-75811976D01*
X202002380Y-76431023D01*
X201002380Y-76764357D02*
X201002380Y-77431023D01*
X202002380Y-77002452D01*
X177680857Y-91003380D02*
X178014190Y-90527190D01*
X178252285Y-91003380D02*
X178252285Y-90003380D01*
X177871333Y-90003380D01*
X177776095Y-90051000D01*
X177728476Y-90098619D01*
X177680857Y-90193857D01*
X177680857Y-90336714D01*
X177728476Y-90431952D01*
X177776095Y-90479571D01*
X177871333Y-90527190D01*
X178252285Y-90527190D01*
X176728476Y-91003380D02*
X177299904Y-91003380D01*
X177014190Y-91003380D02*
X177014190Y-90003380D01*
X177109428Y-90146238D01*
X177204666Y-90241476D01*
X177299904Y-90289095D01*
X175823714Y-90003380D02*
X176299904Y-90003380D01*
X176347523Y-90479571D01*
X176299904Y-90431952D01*
X176204666Y-90384333D01*
X175966571Y-90384333D01*
X175871333Y-90431952D01*
X175823714Y-90479571D01*
X175776095Y-90574809D01*
X175776095Y-90812904D01*
X175823714Y-90908142D01*
X175871333Y-90955761D01*
X175966571Y-91003380D01*
X176204666Y-91003380D01*
X176299904Y-90955761D01*
X176347523Y-90908142D01*
X185023757Y-106751380D02*
X185357090Y-106275190D01*
X185595185Y-106751380D02*
X185595185Y-105751380D01*
X185214233Y-105751380D01*
X185118995Y-105799000D01*
X185071376Y-105846619D01*
X185023757Y-105941857D01*
X185023757Y-106084714D01*
X185071376Y-106179952D01*
X185118995Y-106227571D01*
X185214233Y-106275190D01*
X185595185Y-106275190D01*
X184071376Y-106751380D02*
X184642804Y-106751380D01*
X184357090Y-106751380D02*
X184357090Y-105751380D01*
X184452328Y-105894238D01*
X184547566Y-105989476D01*
X184642804Y-106037095D01*
X183738042Y-105751380D02*
X183118995Y-105751380D01*
X183452328Y-106132333D01*
X183309471Y-106132333D01*
X183214233Y-106179952D01*
X183166614Y-106227571D01*
X183118995Y-106322809D01*
X183118995Y-106560904D01*
X183166614Y-106656142D01*
X183214233Y-106703761D01*
X183309471Y-106751380D01*
X183595185Y-106751380D01*
X183690423Y-106703761D01*
X183738042Y-106656142D01*
X174950380Y-97242333D02*
X174474190Y-96909000D01*
X174950380Y-96670904D02*
X173950380Y-96670904D01*
X173950380Y-97051857D01*
X173998000Y-97147095D01*
X174045619Y-97194714D01*
X174140857Y-97242333D01*
X174283714Y-97242333D01*
X174378952Y-97194714D01*
X174426571Y-97147095D01*
X174474190Y-97051857D01*
X174474190Y-96670904D01*
X173950380Y-97575666D02*
X173950380Y-98194714D01*
X174331333Y-97861380D01*
X174331333Y-98004238D01*
X174378952Y-98099476D01*
X174426571Y-98147095D01*
X174521809Y-98194714D01*
X174759904Y-98194714D01*
X174855142Y-98147095D01*
X174902761Y-98099476D01*
X174950380Y-98004238D01*
X174950380Y-97718523D01*
X174902761Y-97623285D01*
X174855142Y-97575666D01*
X206879180Y-77586842D02*
X206402990Y-77253509D01*
X206879180Y-77015414D02*
X205879180Y-77015414D01*
X205879180Y-77396366D01*
X205926800Y-77491604D01*
X205974419Y-77539223D01*
X206069657Y-77586842D01*
X206212514Y-77586842D01*
X206307752Y-77539223D01*
X206355371Y-77491604D01*
X206402990Y-77396366D01*
X206402990Y-77015414D01*
X205879180Y-77920176D02*
X205879180Y-78539223D01*
X206260133Y-78205890D01*
X206260133Y-78348747D01*
X206307752Y-78443985D01*
X206355371Y-78491604D01*
X206450609Y-78539223D01*
X206688704Y-78539223D01*
X206783942Y-78491604D01*
X206831561Y-78443985D01*
X206879180Y-78348747D01*
X206879180Y-78063033D01*
X206831561Y-77967795D01*
X206783942Y-77920176D01*
X206879180Y-79015414D02*
X206879180Y-79205890D01*
X206831561Y-79301128D01*
X206783942Y-79348747D01*
X206641085Y-79443985D01*
X206450609Y-79491604D01*
X206069657Y-79491604D01*
X205974419Y-79443985D01*
X205926800Y-79396366D01*
X205879180Y-79301128D01*
X205879180Y-79110652D01*
X205926800Y-79015414D01*
X205974419Y-78967795D01*
X206069657Y-78920176D01*
X206307752Y-78920176D01*
X206402990Y-78967795D01*
X206450609Y-79015414D01*
X206498228Y-79110652D01*
X206498228Y-79301128D01*
X206450609Y-79396366D01*
X206402990Y-79443985D01*
X206307752Y-79491604D01*
X209758757Y-124149380D02*
X210092090Y-123673190D01*
X210330185Y-124149380D02*
X210330185Y-123149380D01*
X209949233Y-123149380D01*
X209853995Y-123197000D01*
X209806376Y-123244619D01*
X209758757Y-123339857D01*
X209758757Y-123482714D01*
X209806376Y-123577952D01*
X209853995Y-123625571D01*
X209949233Y-123673190D01*
X210330185Y-123673190D01*
X208901614Y-123482714D02*
X208901614Y-124149380D01*
X209139709Y-123101761D02*
X209377804Y-123816047D01*
X208758757Y-123816047D01*
X208187328Y-123149380D02*
X208092090Y-123149380D01*
X207996852Y-123197000D01*
X207949233Y-123244619D01*
X207901614Y-123339857D01*
X207853995Y-123530333D01*
X207853995Y-123768428D01*
X207901614Y-123958904D01*
X207949233Y-124054142D01*
X207996852Y-124101761D01*
X208092090Y-124149380D01*
X208187328Y-124149380D01*
X208282566Y-124101761D01*
X208330185Y-124054142D01*
X208377804Y-123958904D01*
X208425423Y-123768428D01*
X208425423Y-123530333D01*
X208377804Y-123339857D01*
X208330185Y-123244619D01*
X208282566Y-123197000D01*
X208187328Y-123149380D01*
X215717380Y-83431142D02*
X215241190Y-83097809D01*
X215717380Y-82859714D02*
X214717380Y-82859714D01*
X214717380Y-83240666D01*
X214765000Y-83335904D01*
X214812619Y-83383523D01*
X214907857Y-83431142D01*
X215050714Y-83431142D01*
X215145952Y-83383523D01*
X215193571Y-83335904D01*
X215241190Y-83240666D01*
X215241190Y-82859714D01*
X215050714Y-84288285D02*
X215717380Y-84288285D01*
X214669761Y-84050190D02*
X215384047Y-83812095D01*
X215384047Y-84431142D01*
X215717380Y-85335904D02*
X215717380Y-84764476D01*
X215717380Y-85050190D02*
X214717380Y-85050190D01*
X214860238Y-84954952D01*
X214955476Y-84859714D01*
X215003095Y-84764476D01*
X210689180Y-88691242D02*
X210212990Y-88357909D01*
X210689180Y-88119814D02*
X209689180Y-88119814D01*
X209689180Y-88500766D01*
X209736800Y-88596004D01*
X209784419Y-88643623D01*
X209879657Y-88691242D01*
X210022514Y-88691242D01*
X210117752Y-88643623D01*
X210165371Y-88596004D01*
X210212990Y-88500766D01*
X210212990Y-88119814D01*
X210022514Y-89548385D02*
X210689180Y-89548385D01*
X209641561Y-89310290D02*
X210355847Y-89072195D01*
X210355847Y-89691242D01*
X209784419Y-90024576D02*
X209736800Y-90072195D01*
X209689180Y-90167433D01*
X209689180Y-90405528D01*
X209736800Y-90500766D01*
X209784419Y-90548385D01*
X209879657Y-90596004D01*
X209974895Y-90596004D01*
X210117752Y-90548385D01*
X210689180Y-89976957D01*
X210689180Y-90596004D01*
X211398380Y-81350642D02*
X210922190Y-81017309D01*
X211398380Y-80779214D02*
X210398380Y-80779214D01*
X210398380Y-81160166D01*
X210446000Y-81255404D01*
X210493619Y-81303023D01*
X210588857Y-81350642D01*
X210731714Y-81350642D01*
X210826952Y-81303023D01*
X210874571Y-81255404D01*
X210922190Y-81160166D01*
X210922190Y-80779214D01*
X210493619Y-81731595D02*
X210446000Y-81779214D01*
X210398380Y-81874452D01*
X210398380Y-82112547D01*
X210446000Y-82207785D01*
X210493619Y-82255404D01*
X210588857Y-82303023D01*
X210684095Y-82303023D01*
X210826952Y-82255404D01*
X211398380Y-81683976D01*
X211398380Y-82303023D01*
X210826952Y-82874452D02*
X210779333Y-82779214D01*
X210731714Y-82731595D01*
X210636476Y-82683976D01*
X210588857Y-82683976D01*
X210493619Y-82731595D01*
X210446000Y-82779214D01*
X210398380Y-82874452D01*
X210398380Y-83064928D01*
X210446000Y-83160166D01*
X210493619Y-83207785D01*
X210588857Y-83255404D01*
X210636476Y-83255404D01*
X210731714Y-83207785D01*
X210779333Y-83160166D01*
X210826952Y-83064928D01*
X210826952Y-82874452D01*
X210874571Y-82779214D01*
X210922190Y-82731595D01*
X211017428Y-82683976D01*
X211207904Y-82683976D01*
X211303142Y-82731595D01*
X211350761Y-82779214D01*
X211398380Y-82874452D01*
X211398380Y-83064928D01*
X211350761Y-83160166D01*
X211303142Y-83207785D01*
X211207904Y-83255404D01*
X211017428Y-83255404D01*
X210922190Y-83207785D01*
X210874571Y-83160166D01*
X210826952Y-83064928D01*
M02*
