M48
; DRILL file {KiCad (5.1.2)-1} date 5/23/2019 11:52:02 AM
; FORMAT={3:3/ absolute / metric / suppress leading zeros}
; #@! TF.CreationDate,2019-05-23T11:52:02-04:00
; #@! TF.GenerationSoftware,Kicad,Pcbnew,(5.1.2)-1
; #@! TF.FileFunction,Plated,1,2,PTH
FMAT,2
METRIC,TZ
T1C0.400
T2C0.500
T3C1.000
T4C1.100
T5C1.300
T6C3.500
%
G90
G05
T1
X168732Y-102413
X171018Y-92532
X171069Y-94691
X171069Y-96418
X171247Y-104292
X171272Y-114122
X171323Y-91288
X171907Y-126783
X172720Y-88062
X172898Y-110490
X173736Y-119304
X175666Y-114173
X175946Y-87960
X177063Y-104292
X177444Y-136474
X177673Y-121107
X177927Y-114122
X178486Y-123393
X178889Y-98476
X178980Y-133883
X179121Y-126340
X179172Y-121176
X179248Y-111735
X180848Y-113919
X181127Y-105689
X181402Y-98804
X182123Y-110114
X182169Y-114478
X182917Y-100799
X183140Y-99778
X183591Y-97739
X183769Y-132664
X183794Y-123800
X184015Y-99295
X184353Y-128422
X184531Y-103734
X185163Y-102729
X185395Y-128422
X185449Y-104434
X186041Y-100870
X186284Y-123393
X186411Y-128422
X186431Y-114362
X188011Y-104953
X188087Y-110541
X189103Y-104978
X189302Y-98845
X189586Y-55982
X189586Y-130531
X191846Y-101295
X193675Y-106299
X193980Y-86639
X194107Y-74549
X195072Y-83896
X195199Y-106299
X195275Y-77572
X195808Y-101886
X196469Y-54991
X196621Y-67666
X196723Y-106299
X197206Y-101854
X198247Y-106299
X199263Y-54864
X202352Y-109123
X203327Y-64389
X203327Y-106045
X203454Y-88773
X203505Y-94615
X203581Y-86106
X203733Y-83566
X203733Y-84709
X204343Y-106045
X204343Y-107061
X204597Y-77724
X204703Y-98019
X204724Y-86106
X204749Y-83566
X204749Y-84709
X204904Y-97039
X205359Y-106045
X205359Y-107061
X205359Y-108077
X206553Y-56109
X206553Y-60096
X206832Y-127152
X206883Y-128448
X206985Y-122047
X207010Y-99060
X207721Y-74676
X207772Y-81026
X207848Y-127127
X207848Y-128448
X208091Y-92939
X208686Y-86487
X208839Y-128473
X208890Y-127127
X209372Y-98704
X209753Y-77241
X209753Y-93015
X209904Y-86507
X210083Y-67208
X210555Y-98515
X211633Y-84607
X211836Y-108839
X211836Y-110236
X211836Y-111760
X211836Y-113411
X211836Y-115062
X211836Y-116713
X211836Y-118364
X212954Y-103886
X213182Y-74295
X213233Y-116713
X213258Y-78511
X213360Y-80772
X213385Y-90424
X213385Y-100635
X213436Y-89332
X213512Y-112878
X213778Y-108057
X214249Y-121285
X214274Y-129083
X215519Y-95529
X215773Y-119888
X215773Y-121285
X215798Y-63957
X216306Y-129464
X216535Y-95529
X216840Y-63957
X216916Y-137566
X217424Y-110617
X217424Y-112014
X217424Y-113411
X217424Y-115189
X217424Y-116840
X217424Y-118364
X217424Y-119888
X217424Y-121285
X217551Y-95529
X217564Y-97193
X217616Y-101219
X217616Y-106617
X217627Y-125628
X218331Y-95529
T3
X187071Y-96139
X189611Y-93599
X189611Y-91059
X192151Y-96139
X187071Y-91059
X224155Y-124079
X224155Y-129159
X176428Y-107899
X224155Y-118999
X194691Y-96139
X224155Y-121539
X224155Y-126619
X189611Y-96139
X192151Y-93599
X197231Y-96139
X187071Y-93599
X199771Y-96139
X192151Y-91059
T4
X223012Y-103124
X223012Y-105664
X223012Y-89916
X223012Y-92456
X223012Y-108204
X223012Y-110744
X223012Y-79756
X223012Y-82296
X223012Y-84836
X223012Y-87376
T5
X222631Y-57651
X222631Y-62651
X222631Y-67651
X222631Y-72651
X173355Y-69589
X173355Y-74589
X173355Y-79589
X173355Y-84589
T6
X170931Y-135059
X225931Y-135059
X170931Y-50159
X225931Y-50159
T2
G00X168433Y-105901
M15
G01X169133Y-105901
M16
G05
G00X168433Y-112501
M15
G01X169133Y-112501
M16
G05
T3
G00X171042Y-55825
M15
G01X169542Y-55825
M16
G05
G00X171042Y-64825
M15
G01X169542Y-64825
M16
G05
G00X171292Y-60975
M15
G01X171292Y-59675
M16
G05
G00X177292Y-61325
M15
G01X177292Y-59325
M16
G05
T0
M30
