G04 #@! TF.GenerationSoftware,KiCad,Pcbnew,(5.1.2)-1*
G04 #@! TF.CreationDate,2019-05-23T11:15:45-04:00*
G04 #@! TF.ProjectId,lc_dc1000,6c635f64-6331-4303-9030-2e6b69636164,rev?*
G04 #@! TF.SameCoordinates,Original*
G04 #@! TF.FileFunction,Soldermask,Bot*
G04 #@! TF.FilePolarity,Negative*
%FSLAX46Y46*%
G04 Gerber Fmt 4.6, Leading zero omitted, Abs format (unit mm)*
G04 Created by KiCad (PCBNEW (5.1.2)-1) date 2019-05-23 11:15:45*
%MOMM*%
%LPD*%
G04 APERTURE LIST*
%ADD10C,0.100000*%
G04 APERTURE END LIST*
D10*
G36*
X226623766Y-131576231D02*
G01*
X226966791Y-131644463D01*
X227613029Y-131912144D01*
X228194631Y-132300758D01*
X228689242Y-132795369D01*
X229077856Y-133376971D01*
X229345537Y-134023209D01*
X229482000Y-134709259D01*
X229482000Y-135408741D01*
X229345537Y-136094791D01*
X229077856Y-136741029D01*
X228689242Y-137322631D01*
X228194631Y-137817242D01*
X227613029Y-138205856D01*
X226966791Y-138473537D01*
X226623766Y-138541769D01*
X226280743Y-138610000D01*
X225581257Y-138610000D01*
X225238234Y-138541769D01*
X224895209Y-138473537D01*
X224248971Y-138205856D01*
X223667369Y-137817242D01*
X223172758Y-137322631D01*
X222784144Y-136741029D01*
X222516463Y-136094791D01*
X222380000Y-135408741D01*
X222380000Y-134709259D01*
X222516463Y-134023209D01*
X222784144Y-133376971D01*
X223172758Y-132795369D01*
X223667369Y-132300758D01*
X224248971Y-131912144D01*
X224895209Y-131644463D01*
X225238234Y-131576231D01*
X225581257Y-131508000D01*
X226280743Y-131508000D01*
X226623766Y-131576231D01*
X226623766Y-131576231D01*
G37*
G36*
X171623766Y-131576231D02*
G01*
X171966791Y-131644463D01*
X172613029Y-131912144D01*
X173194631Y-132300758D01*
X173689242Y-132795369D01*
X174077856Y-133376971D01*
X174345537Y-134023209D01*
X174482000Y-134709259D01*
X174482000Y-135408741D01*
X174345537Y-136094791D01*
X174077856Y-136741029D01*
X173689242Y-137322631D01*
X173194631Y-137817242D01*
X172613029Y-138205856D01*
X171966791Y-138473537D01*
X171623766Y-138541769D01*
X171280743Y-138610000D01*
X170581257Y-138610000D01*
X170238234Y-138541769D01*
X169895209Y-138473537D01*
X169248971Y-138205856D01*
X168667369Y-137817242D01*
X168172758Y-137322631D01*
X167784144Y-136741029D01*
X167516463Y-136094791D01*
X167380000Y-135408741D01*
X167380000Y-134709259D01*
X167516463Y-134023209D01*
X167784144Y-133376971D01*
X168172758Y-132795369D01*
X168667369Y-132300758D01*
X169248971Y-131912144D01*
X169895209Y-131644463D01*
X170238234Y-131576231D01*
X170581257Y-131508000D01*
X171280743Y-131508000D01*
X171623766Y-131576231D01*
X171623766Y-131576231D01*
G37*
G36*
X224392143Y-128377243D02*
G01*
X224392145Y-128377244D01*
X224392146Y-128377244D01*
X224540099Y-128438528D01*
X224673258Y-128527502D01*
X224786498Y-128640742D01*
X224875472Y-128773901D01*
X224936756Y-128921854D01*
X224968000Y-129078928D01*
X224968000Y-129239072D01*
X224936756Y-129396146D01*
X224875472Y-129544099D01*
X224786498Y-129677258D01*
X224673258Y-129790498D01*
X224540099Y-129879472D01*
X224392146Y-129940756D01*
X224392145Y-129940756D01*
X224392143Y-129940757D01*
X224235074Y-129972000D01*
X224074926Y-129972000D01*
X223917857Y-129940757D01*
X223917855Y-129940756D01*
X223917854Y-129940756D01*
X223769901Y-129879472D01*
X223636742Y-129790498D01*
X223523502Y-129677258D01*
X223434528Y-129544099D01*
X223373244Y-129396146D01*
X223342000Y-129239072D01*
X223342000Y-129078928D01*
X223373244Y-128921854D01*
X223434528Y-128773901D01*
X223523502Y-128640742D01*
X223636742Y-128527502D01*
X223769901Y-128438528D01*
X223917854Y-128377244D01*
X223917855Y-128377244D01*
X223917857Y-128377243D01*
X224074926Y-128346000D01*
X224235074Y-128346000D01*
X224392143Y-128377243D01*
X224392143Y-128377243D01*
G37*
G36*
X205720932Y-126456888D02*
G01*
X205761969Y-126469336D01*
X205799788Y-126489551D01*
X205832941Y-126516759D01*
X205860149Y-126549912D01*
X205880364Y-126587731D01*
X205892812Y-126628768D01*
X205897500Y-126676367D01*
X205897500Y-127730033D01*
X205892812Y-127777632D01*
X205880364Y-127818669D01*
X205860149Y-127856488D01*
X205832941Y-127889641D01*
X205799788Y-127916849D01*
X205761969Y-127937064D01*
X205720932Y-127949512D01*
X205673333Y-127954200D01*
X205044667Y-127954200D01*
X204997068Y-127949512D01*
X204956031Y-127937064D01*
X204918212Y-127916849D01*
X204885059Y-127889641D01*
X204857851Y-127856488D01*
X204837636Y-127818669D01*
X204825188Y-127777632D01*
X204820500Y-127730033D01*
X204820500Y-126676367D01*
X204825188Y-126628768D01*
X204837636Y-126587731D01*
X204857851Y-126549912D01*
X204885059Y-126516759D01*
X204918212Y-126489551D01*
X204956031Y-126469336D01*
X204997068Y-126456888D01*
X205044667Y-126452200D01*
X205673333Y-126452200D01*
X205720932Y-126456888D01*
X205720932Y-126456888D01*
G37*
G36*
X203845932Y-126456888D02*
G01*
X203886969Y-126469336D01*
X203924788Y-126489551D01*
X203957941Y-126516759D01*
X203985149Y-126549912D01*
X204005364Y-126587731D01*
X204017812Y-126628768D01*
X204022500Y-126676367D01*
X204022500Y-127730033D01*
X204017812Y-127777632D01*
X204005364Y-127818669D01*
X203985149Y-127856488D01*
X203957941Y-127889641D01*
X203924788Y-127916849D01*
X203886969Y-127937064D01*
X203845932Y-127949512D01*
X203798333Y-127954200D01*
X203169667Y-127954200D01*
X203122068Y-127949512D01*
X203081031Y-127937064D01*
X203043212Y-127916849D01*
X203010059Y-127889641D01*
X202982851Y-127856488D01*
X202962636Y-127818669D01*
X202950188Y-127777632D01*
X202945500Y-127730033D01*
X202945500Y-126676367D01*
X202950188Y-126628768D01*
X202962636Y-126587731D01*
X202982851Y-126549912D01*
X203010059Y-126516759D01*
X203043212Y-126489551D01*
X203081031Y-126469336D01*
X203122068Y-126456888D01*
X203169667Y-126452200D01*
X203798333Y-126452200D01*
X203845932Y-126456888D01*
X203845932Y-126456888D01*
G37*
G36*
X224392143Y-125837243D02*
G01*
X224392145Y-125837244D01*
X224392146Y-125837244D01*
X224540099Y-125898528D01*
X224673258Y-125987502D01*
X224786498Y-126100742D01*
X224875472Y-126233901D01*
X224936756Y-126381854D01*
X224936757Y-126381857D01*
X224968000Y-126538926D01*
X224968000Y-126699072D01*
X224936756Y-126856146D01*
X224875472Y-127004099D01*
X224786498Y-127137258D01*
X224673258Y-127250498D01*
X224540099Y-127339472D01*
X224392146Y-127400756D01*
X224392145Y-127400756D01*
X224392143Y-127400757D01*
X224235074Y-127432000D01*
X224074926Y-127432000D01*
X223917857Y-127400757D01*
X223917855Y-127400756D01*
X223917854Y-127400756D01*
X223769901Y-127339472D01*
X223636742Y-127250498D01*
X223523502Y-127137258D01*
X223434528Y-127004099D01*
X223373244Y-126856146D01*
X223342000Y-126699072D01*
X223342000Y-126538926D01*
X223373243Y-126381857D01*
X223373244Y-126381854D01*
X223434528Y-126233901D01*
X223523502Y-126100742D01*
X223636742Y-125987502D01*
X223769901Y-125898528D01*
X223917854Y-125837244D01*
X223917855Y-125837244D01*
X223917857Y-125837243D01*
X224074926Y-125806000D01*
X224235074Y-125806000D01*
X224392143Y-125837243D01*
X224392143Y-125837243D01*
G37*
G36*
X193462032Y-124535788D02*
G01*
X193503069Y-124548236D01*
X193540888Y-124568451D01*
X193574041Y-124595659D01*
X193601249Y-124628812D01*
X193621464Y-124666631D01*
X193633912Y-124707668D01*
X193638600Y-124755267D01*
X193638600Y-125383933D01*
X193633912Y-125431532D01*
X193621464Y-125472569D01*
X193601249Y-125510388D01*
X193574041Y-125543541D01*
X193540888Y-125570749D01*
X193503069Y-125590964D01*
X193462032Y-125603412D01*
X193414433Y-125608100D01*
X192360767Y-125608100D01*
X192313168Y-125603412D01*
X192272131Y-125590964D01*
X192234312Y-125570749D01*
X192201159Y-125543541D01*
X192173951Y-125510388D01*
X192153736Y-125472569D01*
X192141288Y-125431532D01*
X192136600Y-125383933D01*
X192136600Y-124755267D01*
X192141288Y-124707668D01*
X192153736Y-124666631D01*
X192173951Y-124628812D01*
X192201159Y-124595659D01*
X192234312Y-124568451D01*
X192272131Y-124548236D01*
X192313168Y-124535788D01*
X192360767Y-124531100D01*
X193414433Y-124531100D01*
X193462032Y-124535788D01*
X193462032Y-124535788D01*
G37*
G36*
X224392143Y-123297243D02*
G01*
X224392145Y-123297244D01*
X224392146Y-123297244D01*
X224540099Y-123358528D01*
X224673258Y-123447502D01*
X224786498Y-123560742D01*
X224875472Y-123693901D01*
X224936756Y-123841854D01*
X224968000Y-123998928D01*
X224968000Y-124159072D01*
X224936756Y-124316146D01*
X224875472Y-124464099D01*
X224875471Y-124464100D01*
X224787567Y-124595659D01*
X224786498Y-124597258D01*
X224673258Y-124710498D01*
X224540099Y-124799472D01*
X224392146Y-124860756D01*
X224392145Y-124860756D01*
X224392143Y-124860757D01*
X224235074Y-124892000D01*
X224074926Y-124892000D01*
X223917857Y-124860757D01*
X223917855Y-124860756D01*
X223917854Y-124860756D01*
X223769901Y-124799472D01*
X223636742Y-124710498D01*
X223523502Y-124597258D01*
X223522434Y-124595659D01*
X223434529Y-124464100D01*
X223434528Y-124464099D01*
X223373244Y-124316146D01*
X223342000Y-124159072D01*
X223342000Y-123998928D01*
X223373244Y-123841854D01*
X223434528Y-123693901D01*
X223523502Y-123560742D01*
X223636742Y-123447502D01*
X223769901Y-123358528D01*
X223917854Y-123297244D01*
X223917855Y-123297244D01*
X223917857Y-123297243D01*
X224074926Y-123266000D01*
X224235074Y-123266000D01*
X224392143Y-123297243D01*
X224392143Y-123297243D01*
G37*
G36*
X193462032Y-122660788D02*
G01*
X193503069Y-122673236D01*
X193540888Y-122693451D01*
X193574041Y-122720659D01*
X193601249Y-122753812D01*
X193621464Y-122791631D01*
X193633912Y-122832668D01*
X193638600Y-122880267D01*
X193638600Y-123508933D01*
X193633912Y-123556532D01*
X193621464Y-123597569D01*
X193601249Y-123635388D01*
X193574041Y-123668541D01*
X193540888Y-123695749D01*
X193503069Y-123715964D01*
X193462032Y-123728412D01*
X193414433Y-123733100D01*
X192360767Y-123733100D01*
X192313168Y-123728412D01*
X192272131Y-123715964D01*
X192234312Y-123695749D01*
X192201159Y-123668541D01*
X192173951Y-123635388D01*
X192153736Y-123597569D01*
X192141288Y-123556532D01*
X192136600Y-123508933D01*
X192136600Y-122880267D01*
X192141288Y-122832668D01*
X192153736Y-122791631D01*
X192173951Y-122753812D01*
X192201159Y-122720659D01*
X192234312Y-122693451D01*
X192272131Y-122673236D01*
X192313168Y-122660788D01*
X192360767Y-122656100D01*
X193414433Y-122656100D01*
X193462032Y-122660788D01*
X193462032Y-122660788D01*
G37*
G36*
X208540332Y-121300688D02*
G01*
X208581369Y-121313136D01*
X208619188Y-121333351D01*
X208652341Y-121360559D01*
X208679549Y-121393712D01*
X208699764Y-121431531D01*
X208712212Y-121472568D01*
X208716900Y-121520167D01*
X208716900Y-122573833D01*
X208712212Y-122621432D01*
X208699764Y-122662469D01*
X208679549Y-122700288D01*
X208652341Y-122733441D01*
X208619188Y-122760649D01*
X208581369Y-122780864D01*
X208540332Y-122793312D01*
X208492733Y-122798000D01*
X207864067Y-122798000D01*
X207816468Y-122793312D01*
X207775431Y-122780864D01*
X207737612Y-122760649D01*
X207704459Y-122733441D01*
X207677251Y-122700288D01*
X207657036Y-122662469D01*
X207644588Y-122621432D01*
X207639900Y-122573833D01*
X207639900Y-121520167D01*
X207644588Y-121472568D01*
X207657036Y-121431531D01*
X207677251Y-121393712D01*
X207704459Y-121360559D01*
X207737612Y-121333351D01*
X207775431Y-121313136D01*
X207816468Y-121300688D01*
X207864067Y-121296000D01*
X208492733Y-121296000D01*
X208540332Y-121300688D01*
X208540332Y-121300688D01*
G37*
G36*
X210415332Y-121300688D02*
G01*
X210456369Y-121313136D01*
X210494188Y-121333351D01*
X210527341Y-121360559D01*
X210554549Y-121393712D01*
X210574764Y-121431531D01*
X210587212Y-121472568D01*
X210591900Y-121520167D01*
X210591900Y-122573833D01*
X210587212Y-122621432D01*
X210574764Y-122662469D01*
X210554549Y-122700288D01*
X210527341Y-122733441D01*
X210494188Y-122760649D01*
X210456369Y-122780864D01*
X210415332Y-122793312D01*
X210367733Y-122798000D01*
X209739067Y-122798000D01*
X209691468Y-122793312D01*
X209650431Y-122780864D01*
X209612612Y-122760649D01*
X209579459Y-122733441D01*
X209552251Y-122700288D01*
X209532036Y-122662469D01*
X209519588Y-122621432D01*
X209514900Y-122573833D01*
X209514900Y-121520167D01*
X209519588Y-121472568D01*
X209532036Y-121431531D01*
X209552251Y-121393712D01*
X209579459Y-121360559D01*
X209612612Y-121333351D01*
X209650431Y-121313136D01*
X209691468Y-121300688D01*
X209739067Y-121296000D01*
X210367733Y-121296000D01*
X210415332Y-121300688D01*
X210415332Y-121300688D01*
G37*
G36*
X224392143Y-120757243D02*
G01*
X224392145Y-120757244D01*
X224392146Y-120757244D01*
X224540099Y-120818528D01*
X224673258Y-120907502D01*
X224786498Y-121020742D01*
X224875472Y-121153901D01*
X224934331Y-121296000D01*
X224936757Y-121301857D01*
X224968000Y-121458926D01*
X224968000Y-121619072D01*
X224936756Y-121776146D01*
X224875472Y-121924099D01*
X224849019Y-121963688D01*
X224795181Y-122044264D01*
X224786498Y-122057258D01*
X224673258Y-122170498D01*
X224540099Y-122259472D01*
X224392146Y-122320756D01*
X224392145Y-122320756D01*
X224392143Y-122320757D01*
X224235074Y-122352000D01*
X224074926Y-122352000D01*
X223917857Y-122320757D01*
X223917855Y-122320756D01*
X223917854Y-122320756D01*
X223769901Y-122259472D01*
X223636742Y-122170498D01*
X223523502Y-122057258D01*
X223514820Y-122044264D01*
X223460981Y-121963688D01*
X223434528Y-121924099D01*
X223373244Y-121776146D01*
X223342000Y-121619072D01*
X223342000Y-121458926D01*
X223373243Y-121301857D01*
X223375669Y-121296000D01*
X223434528Y-121153901D01*
X223523502Y-121020742D01*
X223636742Y-120907502D01*
X223769901Y-120818528D01*
X223917854Y-120757244D01*
X223917855Y-120757244D01*
X223917857Y-120757243D01*
X224074926Y-120726000D01*
X224235074Y-120726000D01*
X224392143Y-120757243D01*
X224392143Y-120757243D01*
G37*
G36*
X181535532Y-120564088D02*
G01*
X181576569Y-120576536D01*
X181614388Y-120596751D01*
X181647541Y-120623959D01*
X181674749Y-120657112D01*
X181694964Y-120694931D01*
X181707412Y-120735968D01*
X181712100Y-120783567D01*
X181712100Y-121837233D01*
X181707412Y-121884832D01*
X181694964Y-121925869D01*
X181674749Y-121963688D01*
X181647541Y-121996841D01*
X181614388Y-122024049D01*
X181576569Y-122044264D01*
X181535532Y-122056712D01*
X181487933Y-122061400D01*
X180859267Y-122061400D01*
X180811668Y-122056712D01*
X180770631Y-122044264D01*
X180732812Y-122024049D01*
X180699659Y-121996841D01*
X180672451Y-121963688D01*
X180652236Y-121925869D01*
X180639788Y-121884832D01*
X180635100Y-121837233D01*
X180635100Y-120783567D01*
X180639788Y-120735968D01*
X180652236Y-120694931D01*
X180672451Y-120657112D01*
X180699659Y-120623959D01*
X180732812Y-120596751D01*
X180770631Y-120576536D01*
X180811668Y-120564088D01*
X180859267Y-120559400D01*
X181487933Y-120559400D01*
X181535532Y-120564088D01*
X181535532Y-120564088D01*
G37*
G36*
X179660532Y-120564088D02*
G01*
X179701569Y-120576536D01*
X179739388Y-120596751D01*
X179772541Y-120623959D01*
X179799749Y-120657112D01*
X179819964Y-120694931D01*
X179832412Y-120735968D01*
X179837100Y-120783567D01*
X179837100Y-121837233D01*
X179832412Y-121884832D01*
X179819964Y-121925869D01*
X179799749Y-121963688D01*
X179772541Y-121996841D01*
X179739388Y-122024049D01*
X179701569Y-122044264D01*
X179660532Y-122056712D01*
X179612933Y-122061400D01*
X178984267Y-122061400D01*
X178936668Y-122056712D01*
X178895631Y-122044264D01*
X178857812Y-122024049D01*
X178824659Y-121996841D01*
X178797451Y-121963688D01*
X178777236Y-121925869D01*
X178764788Y-121884832D01*
X178760100Y-121837233D01*
X178760100Y-120783567D01*
X178764788Y-120735968D01*
X178777236Y-120694931D01*
X178797451Y-120657112D01*
X178824659Y-120623959D01*
X178857812Y-120596751D01*
X178895631Y-120576536D01*
X178936668Y-120564088D01*
X178984267Y-120559400D01*
X179612933Y-120559400D01*
X179660532Y-120564088D01*
X179660532Y-120564088D01*
G37*
G36*
X210419932Y-119065488D02*
G01*
X210460969Y-119077936D01*
X210498788Y-119098151D01*
X210531941Y-119125359D01*
X210559149Y-119158512D01*
X210579364Y-119196331D01*
X210591812Y-119237368D01*
X210596500Y-119284967D01*
X210596500Y-120338633D01*
X210591812Y-120386232D01*
X210579364Y-120427269D01*
X210559149Y-120465088D01*
X210531941Y-120498241D01*
X210498788Y-120525449D01*
X210460969Y-120545664D01*
X210419932Y-120558112D01*
X210372333Y-120562800D01*
X209743667Y-120562800D01*
X209696068Y-120558112D01*
X209655031Y-120545664D01*
X209617212Y-120525449D01*
X209584059Y-120498241D01*
X209556851Y-120465088D01*
X209536636Y-120427269D01*
X209524188Y-120386232D01*
X209519500Y-120338633D01*
X209519500Y-119284967D01*
X209524188Y-119237368D01*
X209536636Y-119196331D01*
X209556851Y-119158512D01*
X209584059Y-119125359D01*
X209617212Y-119098151D01*
X209655031Y-119077936D01*
X209696068Y-119065488D01*
X209743667Y-119060800D01*
X210372333Y-119060800D01*
X210419932Y-119065488D01*
X210419932Y-119065488D01*
G37*
G36*
X208544932Y-119065488D02*
G01*
X208585969Y-119077936D01*
X208623788Y-119098151D01*
X208656941Y-119125359D01*
X208684149Y-119158512D01*
X208704364Y-119196331D01*
X208716812Y-119237368D01*
X208721500Y-119284967D01*
X208721500Y-120338633D01*
X208716812Y-120386232D01*
X208704364Y-120427269D01*
X208684149Y-120465088D01*
X208656941Y-120498241D01*
X208623788Y-120525449D01*
X208585969Y-120545664D01*
X208544932Y-120558112D01*
X208497333Y-120562800D01*
X207868667Y-120562800D01*
X207821068Y-120558112D01*
X207780031Y-120545664D01*
X207742212Y-120525449D01*
X207709059Y-120498241D01*
X207681851Y-120465088D01*
X207661636Y-120427269D01*
X207649188Y-120386232D01*
X207644500Y-120338633D01*
X207644500Y-119284967D01*
X207649188Y-119237368D01*
X207661636Y-119196331D01*
X207681851Y-119158512D01*
X207709059Y-119125359D01*
X207742212Y-119098151D01*
X207780031Y-119077936D01*
X207821068Y-119065488D01*
X207868667Y-119060800D01*
X208497333Y-119060800D01*
X208544932Y-119065488D01*
X208544932Y-119065488D01*
G37*
G36*
X224392143Y-118217243D02*
G01*
X224392145Y-118217244D01*
X224392146Y-118217244D01*
X224540099Y-118278528D01*
X224673258Y-118367502D01*
X224786498Y-118480742D01*
X224875472Y-118613901D01*
X224936756Y-118761854D01*
X224936757Y-118761857D01*
X224968000Y-118918926D01*
X224968000Y-119079074D01*
X224952199Y-119158512D01*
X224936756Y-119236146D01*
X224875472Y-119384099D01*
X224786498Y-119517258D01*
X224673258Y-119630498D01*
X224540099Y-119719472D01*
X224392146Y-119780756D01*
X224392145Y-119780756D01*
X224392143Y-119780757D01*
X224235074Y-119812000D01*
X224074926Y-119812000D01*
X223917857Y-119780757D01*
X223917855Y-119780756D01*
X223917854Y-119780756D01*
X223769901Y-119719472D01*
X223636742Y-119630498D01*
X223523502Y-119517258D01*
X223434528Y-119384099D01*
X223373244Y-119236146D01*
X223357802Y-119158512D01*
X223342000Y-119079074D01*
X223342000Y-118918926D01*
X223373243Y-118761857D01*
X223373244Y-118761854D01*
X223434528Y-118613901D01*
X223523502Y-118480742D01*
X223636742Y-118367502D01*
X223769901Y-118278528D01*
X223917854Y-118217244D01*
X223917855Y-118217244D01*
X223917857Y-118217243D01*
X224074926Y-118186000D01*
X224235074Y-118186000D01*
X224392143Y-118217243D01*
X224392143Y-118217243D01*
G37*
G36*
X169231213Y-112007049D02*
G01*
X169325652Y-112035697D01*
X169412687Y-112082218D01*
X169488975Y-112144825D01*
X169551582Y-112221113D01*
X169598103Y-112308148D01*
X169626751Y-112402587D01*
X169636424Y-112500800D01*
X169626751Y-112599013D01*
X169598103Y-112693452D01*
X169551582Y-112780487D01*
X169488975Y-112856775D01*
X169412687Y-112919382D01*
X169325652Y-112965903D01*
X169231213Y-112994551D01*
X169157612Y-113001800D01*
X168408388Y-113001800D01*
X168334787Y-112994551D01*
X168240348Y-112965903D01*
X168153313Y-112919382D01*
X168077025Y-112856775D01*
X168014418Y-112780487D01*
X167967897Y-112693452D01*
X167939249Y-112599013D01*
X167929576Y-112500800D01*
X167939249Y-112402587D01*
X167967897Y-112308148D01*
X168014418Y-112221113D01*
X168077025Y-112144825D01*
X168153313Y-112082218D01*
X168240348Y-112035697D01*
X168334787Y-112007049D01*
X168408388Y-111999800D01*
X169157612Y-111999800D01*
X169231213Y-112007049D01*
X169231213Y-112007049D01*
G37*
G36*
X223333150Y-109685311D02*
G01*
X223533519Y-109768307D01*
X223533520Y-109768308D01*
X223713845Y-109888796D01*
X223867204Y-110042155D01*
X223963660Y-110186513D01*
X223987693Y-110222481D01*
X224070689Y-110422850D01*
X224113000Y-110635561D01*
X224113000Y-110852439D01*
X224070689Y-111065150D01*
X223987693Y-111265519D01*
X223987692Y-111265520D01*
X223867204Y-111445845D01*
X223713845Y-111599204D01*
X223569487Y-111695660D01*
X223533519Y-111719693D01*
X223333150Y-111802689D01*
X223120439Y-111845000D01*
X222903561Y-111845000D01*
X222690850Y-111802689D01*
X222490481Y-111719693D01*
X222454513Y-111695660D01*
X222310155Y-111599204D01*
X222156796Y-111445845D01*
X222036308Y-111265520D01*
X222036307Y-111265519D01*
X221953311Y-111065150D01*
X221911000Y-110852439D01*
X221911000Y-110635561D01*
X221953311Y-110422850D01*
X222036307Y-110222481D01*
X222060340Y-110186513D01*
X222156796Y-110042155D01*
X222310155Y-109888796D01*
X222490480Y-109768308D01*
X222490481Y-109768307D01*
X222690850Y-109685311D01*
X222903561Y-109643000D01*
X223120439Y-109643000D01*
X223333150Y-109685311D01*
X223333150Y-109685311D01*
G37*
G36*
X185680332Y-109388088D02*
G01*
X185721369Y-109400536D01*
X185759188Y-109420751D01*
X185792341Y-109447959D01*
X185819549Y-109481112D01*
X185839764Y-109518931D01*
X185852212Y-109559968D01*
X185856900Y-109607567D01*
X185856900Y-110661233D01*
X185852212Y-110708832D01*
X185839764Y-110749869D01*
X185819549Y-110787688D01*
X185792341Y-110820841D01*
X185759188Y-110848049D01*
X185721369Y-110868264D01*
X185680332Y-110880712D01*
X185632733Y-110885400D01*
X185004067Y-110885400D01*
X184956468Y-110880712D01*
X184915431Y-110868264D01*
X184877612Y-110848049D01*
X184844459Y-110820841D01*
X184817251Y-110787688D01*
X184797036Y-110749869D01*
X184784588Y-110708832D01*
X184779900Y-110661233D01*
X184779900Y-109607567D01*
X184784588Y-109559968D01*
X184797036Y-109518931D01*
X184817251Y-109481112D01*
X184844459Y-109447959D01*
X184877612Y-109420751D01*
X184915431Y-109400536D01*
X184956468Y-109388088D01*
X185004067Y-109383400D01*
X185632733Y-109383400D01*
X185680332Y-109388088D01*
X185680332Y-109388088D01*
G37*
G36*
X183805332Y-109388088D02*
G01*
X183846369Y-109400536D01*
X183884188Y-109420751D01*
X183917341Y-109447959D01*
X183944549Y-109481112D01*
X183964764Y-109518931D01*
X183977212Y-109559968D01*
X183981900Y-109607567D01*
X183981900Y-110661233D01*
X183977212Y-110708832D01*
X183964764Y-110749869D01*
X183944549Y-110787688D01*
X183917341Y-110820841D01*
X183884188Y-110848049D01*
X183846369Y-110868264D01*
X183805332Y-110880712D01*
X183757733Y-110885400D01*
X183129067Y-110885400D01*
X183081468Y-110880712D01*
X183040431Y-110868264D01*
X183002612Y-110848049D01*
X182969459Y-110820841D01*
X182942251Y-110787688D01*
X182922036Y-110749869D01*
X182909588Y-110708832D01*
X182904900Y-110661233D01*
X182904900Y-109607567D01*
X182909588Y-109559968D01*
X182922036Y-109518931D01*
X182942251Y-109481112D01*
X182969459Y-109447959D01*
X183002612Y-109420751D01*
X183040431Y-109400536D01*
X183081468Y-109388088D01*
X183129067Y-109383400D01*
X183757733Y-109383400D01*
X183805332Y-109388088D01*
X183805332Y-109388088D01*
G37*
G36*
X224113000Y-109305000D02*
G01*
X221911000Y-109305000D01*
X221911000Y-107103000D01*
X224113000Y-107103000D01*
X224113000Y-109305000D01*
X224113000Y-109305000D01*
G37*
G36*
X177479400Y-108950200D02*
G01*
X175377400Y-108950200D01*
X175377400Y-106848200D01*
X177479400Y-106848200D01*
X177479400Y-108950200D01*
X177479400Y-108950200D01*
G37*
G36*
X185680332Y-107254488D02*
G01*
X185721369Y-107266936D01*
X185759188Y-107287151D01*
X185792341Y-107314359D01*
X185819549Y-107347512D01*
X185839764Y-107385331D01*
X185852212Y-107426368D01*
X185856900Y-107473967D01*
X185856900Y-108527633D01*
X185852212Y-108575232D01*
X185839764Y-108616269D01*
X185819549Y-108654088D01*
X185792341Y-108687241D01*
X185759188Y-108714449D01*
X185721369Y-108734664D01*
X185680332Y-108747112D01*
X185632733Y-108751800D01*
X185004067Y-108751800D01*
X184956468Y-108747112D01*
X184915431Y-108734664D01*
X184877612Y-108714449D01*
X184844459Y-108687241D01*
X184817251Y-108654088D01*
X184797036Y-108616269D01*
X184784588Y-108575232D01*
X184779900Y-108527633D01*
X184779900Y-107473967D01*
X184784588Y-107426368D01*
X184797036Y-107385331D01*
X184817251Y-107347512D01*
X184844459Y-107314359D01*
X184877612Y-107287151D01*
X184915431Y-107266936D01*
X184956468Y-107254488D01*
X185004067Y-107249800D01*
X185632733Y-107249800D01*
X185680332Y-107254488D01*
X185680332Y-107254488D01*
G37*
G36*
X183805332Y-107254488D02*
G01*
X183846369Y-107266936D01*
X183884188Y-107287151D01*
X183917341Y-107314359D01*
X183944549Y-107347512D01*
X183964764Y-107385331D01*
X183977212Y-107426368D01*
X183981900Y-107473967D01*
X183981900Y-108527633D01*
X183977212Y-108575232D01*
X183964764Y-108616269D01*
X183944549Y-108654088D01*
X183917341Y-108687241D01*
X183884188Y-108714449D01*
X183846369Y-108734664D01*
X183805332Y-108747112D01*
X183757733Y-108751800D01*
X183129067Y-108751800D01*
X183081468Y-108747112D01*
X183040431Y-108734664D01*
X183002612Y-108714449D01*
X182969459Y-108687241D01*
X182942251Y-108654088D01*
X182922036Y-108616269D01*
X182909588Y-108575232D01*
X182904900Y-108527633D01*
X182904900Y-107473967D01*
X182909588Y-107426368D01*
X182922036Y-107385331D01*
X182942251Y-107347512D01*
X182969459Y-107314359D01*
X183002612Y-107287151D01*
X183040431Y-107266936D01*
X183081468Y-107254488D01*
X183129067Y-107249800D01*
X183757733Y-107249800D01*
X183805332Y-107254488D01*
X183805332Y-107254488D01*
G37*
G36*
X223333150Y-104605311D02*
G01*
X223533519Y-104688307D01*
X223533520Y-104688308D01*
X223713845Y-104808796D01*
X223867204Y-104962155D01*
X223963660Y-105106513D01*
X223987693Y-105142481D01*
X224070689Y-105342850D01*
X224113000Y-105555561D01*
X224113000Y-105772439D01*
X224070689Y-105985150D01*
X223987693Y-106185519D01*
X223987692Y-106185520D01*
X223867204Y-106365845D01*
X223713845Y-106519204D01*
X223569487Y-106615660D01*
X223533519Y-106639693D01*
X223333150Y-106722689D01*
X223120439Y-106765000D01*
X222903561Y-106765000D01*
X222690850Y-106722689D01*
X222490481Y-106639693D01*
X222454513Y-106615660D01*
X222310155Y-106519204D01*
X222156796Y-106365845D01*
X222036308Y-106185520D01*
X222036307Y-106185519D01*
X221953311Y-105985150D01*
X221911000Y-105772439D01*
X221911000Y-105555561D01*
X221953311Y-105342850D01*
X222036307Y-105142481D01*
X222060340Y-105106513D01*
X222156796Y-104962155D01*
X222310155Y-104808796D01*
X222490480Y-104688308D01*
X222490481Y-104688307D01*
X222690850Y-104605311D01*
X222903561Y-104563000D01*
X223120439Y-104563000D01*
X223333150Y-104605311D01*
X223333150Y-104605311D01*
G37*
G36*
X169231213Y-105407049D02*
G01*
X169325652Y-105435697D01*
X169412687Y-105482218D01*
X169488975Y-105544825D01*
X169551582Y-105621113D01*
X169598103Y-105708148D01*
X169626751Y-105802587D01*
X169636424Y-105900800D01*
X169626751Y-105999013D01*
X169598103Y-106093452D01*
X169551582Y-106180487D01*
X169488975Y-106256775D01*
X169412687Y-106319382D01*
X169325652Y-106365903D01*
X169231213Y-106394551D01*
X169157612Y-106401800D01*
X168408388Y-106401800D01*
X168334787Y-106394551D01*
X168240348Y-106365903D01*
X168153313Y-106319382D01*
X168077025Y-106256775D01*
X168014418Y-106180487D01*
X167967897Y-106093452D01*
X167939249Y-105999013D01*
X167929576Y-105900800D01*
X167939249Y-105802587D01*
X167967897Y-105708148D01*
X168014418Y-105621113D01*
X168077025Y-105544825D01*
X168153313Y-105482218D01*
X168240348Y-105435697D01*
X168334787Y-105407049D01*
X168408388Y-105399800D01*
X169157612Y-105399800D01*
X169231213Y-105407049D01*
X169231213Y-105407049D01*
G37*
G36*
X224113000Y-104225000D02*
G01*
X221911000Y-104225000D01*
X221911000Y-102023000D01*
X224113000Y-102023000D01*
X224113000Y-104225000D01*
X224113000Y-104225000D01*
G37*
G36*
X173091232Y-97812688D02*
G01*
X173132269Y-97825136D01*
X173170088Y-97845351D01*
X173203241Y-97872559D01*
X173230449Y-97905712D01*
X173250664Y-97943531D01*
X173263112Y-97984568D01*
X173267800Y-98032167D01*
X173267800Y-98660833D01*
X173263112Y-98708432D01*
X173250664Y-98749469D01*
X173230449Y-98787288D01*
X173203241Y-98820441D01*
X173170088Y-98847649D01*
X173132269Y-98867864D01*
X173091232Y-98880312D01*
X173043633Y-98885000D01*
X171989967Y-98885000D01*
X171942368Y-98880312D01*
X171901331Y-98867864D01*
X171863512Y-98847649D01*
X171830359Y-98820441D01*
X171803151Y-98787288D01*
X171782936Y-98749469D01*
X171770488Y-98708432D01*
X171765800Y-98660833D01*
X171765800Y-98032167D01*
X171770488Y-97984568D01*
X171782936Y-97943531D01*
X171803151Y-97905712D01*
X171830359Y-97872559D01*
X171863512Y-97845351D01*
X171901331Y-97825136D01*
X171942368Y-97812688D01*
X171989967Y-97808000D01*
X173043633Y-97808000D01*
X173091232Y-97812688D01*
X173091232Y-97812688D01*
G37*
G36*
X173091232Y-95937688D02*
G01*
X173132269Y-95950136D01*
X173170088Y-95970351D01*
X173203241Y-95997559D01*
X173230449Y-96030712D01*
X173250664Y-96068531D01*
X173263112Y-96109568D01*
X173267800Y-96157167D01*
X173267800Y-96785833D01*
X173263112Y-96833432D01*
X173250664Y-96874469D01*
X173230449Y-96912288D01*
X173203241Y-96945441D01*
X173170088Y-96972649D01*
X173132269Y-96992864D01*
X173091232Y-97005312D01*
X173043633Y-97010000D01*
X171989967Y-97010000D01*
X171942368Y-97005312D01*
X171901331Y-96992864D01*
X171863512Y-96972649D01*
X171830359Y-96945441D01*
X171803151Y-96912288D01*
X171782936Y-96874469D01*
X171770488Y-96833432D01*
X171765800Y-96785833D01*
X171765800Y-96157167D01*
X171770488Y-96109568D01*
X171782936Y-96068531D01*
X171803151Y-96030712D01*
X171830359Y-95997559D01*
X171863512Y-95970351D01*
X171901331Y-95950136D01*
X171942368Y-95937688D01*
X171989967Y-95933000D01*
X173043633Y-95933000D01*
X173091232Y-95937688D01*
X173091232Y-95937688D01*
G37*
G36*
X189848143Y-95357243D02*
G01*
X189848145Y-95357244D01*
X189848146Y-95357244D01*
X189996099Y-95418528D01*
X190046240Y-95452031D01*
X190115234Y-95498131D01*
X190129258Y-95507502D01*
X190242498Y-95620742D01*
X190331472Y-95753901D01*
X190392756Y-95901854D01*
X190392757Y-95901857D01*
X190424000Y-96058926D01*
X190424000Y-96219074D01*
X190398331Y-96348123D01*
X190392756Y-96376146D01*
X190331472Y-96524099D01*
X190331471Y-96524100D01*
X190242499Y-96657257D01*
X190129257Y-96770499D01*
X190085044Y-96800041D01*
X189996099Y-96859472D01*
X189848146Y-96920756D01*
X189848145Y-96920756D01*
X189848143Y-96920757D01*
X189691074Y-96952000D01*
X189530926Y-96952000D01*
X189373857Y-96920757D01*
X189373855Y-96920756D01*
X189373854Y-96920756D01*
X189225901Y-96859472D01*
X189136956Y-96800041D01*
X189092743Y-96770499D01*
X188979501Y-96657257D01*
X188890529Y-96524100D01*
X188890528Y-96524099D01*
X188829244Y-96376146D01*
X188823670Y-96348123D01*
X188798000Y-96219074D01*
X188798000Y-96058926D01*
X188829243Y-95901857D01*
X188829244Y-95901854D01*
X188890528Y-95753901D01*
X188979502Y-95620742D01*
X189092742Y-95507502D01*
X189106767Y-95498131D01*
X189175760Y-95452031D01*
X189225901Y-95418528D01*
X189373854Y-95357244D01*
X189373855Y-95357244D01*
X189373857Y-95357243D01*
X189530926Y-95326000D01*
X189691074Y-95326000D01*
X189848143Y-95357243D01*
X189848143Y-95357243D01*
G37*
G36*
X194928143Y-95357243D02*
G01*
X194928145Y-95357244D01*
X194928146Y-95357244D01*
X195076099Y-95418528D01*
X195126240Y-95452031D01*
X195195234Y-95498131D01*
X195209258Y-95507502D01*
X195322498Y-95620742D01*
X195411472Y-95753901D01*
X195472756Y-95901854D01*
X195472757Y-95901857D01*
X195504000Y-96058926D01*
X195504000Y-96219074D01*
X195478331Y-96348123D01*
X195472756Y-96376146D01*
X195411472Y-96524099D01*
X195411471Y-96524100D01*
X195322499Y-96657257D01*
X195209257Y-96770499D01*
X195165044Y-96800041D01*
X195076099Y-96859472D01*
X194928146Y-96920756D01*
X194928145Y-96920756D01*
X194928143Y-96920757D01*
X194771074Y-96952000D01*
X194610926Y-96952000D01*
X194453857Y-96920757D01*
X194453855Y-96920756D01*
X194453854Y-96920756D01*
X194305901Y-96859472D01*
X194216956Y-96800041D01*
X194172743Y-96770499D01*
X194059501Y-96657257D01*
X193970529Y-96524100D01*
X193970528Y-96524099D01*
X193909244Y-96376146D01*
X193903670Y-96348123D01*
X193878000Y-96219074D01*
X193878000Y-96058926D01*
X193909243Y-95901857D01*
X193909244Y-95901854D01*
X193970528Y-95753901D01*
X194059502Y-95620742D01*
X194172742Y-95507502D01*
X194186767Y-95498131D01*
X194255760Y-95452031D01*
X194305901Y-95418528D01*
X194453854Y-95357244D01*
X194453855Y-95357244D01*
X194453857Y-95357243D01*
X194610926Y-95326000D01*
X194771074Y-95326000D01*
X194928143Y-95357243D01*
X194928143Y-95357243D01*
G37*
G36*
X200008143Y-95357243D02*
G01*
X200008145Y-95357244D01*
X200008146Y-95357244D01*
X200156099Y-95418528D01*
X200206240Y-95452031D01*
X200275234Y-95498131D01*
X200289258Y-95507502D01*
X200402498Y-95620742D01*
X200491472Y-95753901D01*
X200552756Y-95901854D01*
X200552757Y-95901857D01*
X200584000Y-96058926D01*
X200584000Y-96219074D01*
X200558331Y-96348123D01*
X200552756Y-96376146D01*
X200491472Y-96524099D01*
X200491471Y-96524100D01*
X200402499Y-96657257D01*
X200289257Y-96770499D01*
X200245044Y-96800041D01*
X200156099Y-96859472D01*
X200008146Y-96920756D01*
X200008145Y-96920756D01*
X200008143Y-96920757D01*
X199851074Y-96952000D01*
X199690926Y-96952000D01*
X199533857Y-96920757D01*
X199533855Y-96920756D01*
X199533854Y-96920756D01*
X199385901Y-96859472D01*
X199296956Y-96800041D01*
X199252743Y-96770499D01*
X199139501Y-96657257D01*
X199050529Y-96524100D01*
X199050528Y-96524099D01*
X198989244Y-96376146D01*
X198983670Y-96348123D01*
X198958000Y-96219074D01*
X198958000Y-96058926D01*
X198989243Y-95901857D01*
X198989244Y-95901854D01*
X199050528Y-95753901D01*
X199139502Y-95620742D01*
X199252742Y-95507502D01*
X199266767Y-95498131D01*
X199335760Y-95452031D01*
X199385901Y-95418528D01*
X199533854Y-95357244D01*
X199533855Y-95357244D01*
X199533857Y-95357243D01*
X199690926Y-95326000D01*
X199851074Y-95326000D01*
X200008143Y-95357243D01*
X200008143Y-95357243D01*
G37*
G36*
X192388143Y-95357243D02*
G01*
X192388145Y-95357244D01*
X192388146Y-95357244D01*
X192536099Y-95418528D01*
X192586240Y-95452031D01*
X192655234Y-95498131D01*
X192669258Y-95507502D01*
X192782498Y-95620742D01*
X192871472Y-95753901D01*
X192932756Y-95901854D01*
X192932757Y-95901857D01*
X192964000Y-96058926D01*
X192964000Y-96219074D01*
X192938331Y-96348123D01*
X192932756Y-96376146D01*
X192871472Y-96524099D01*
X192871471Y-96524100D01*
X192782499Y-96657257D01*
X192669257Y-96770499D01*
X192625044Y-96800041D01*
X192536099Y-96859472D01*
X192388146Y-96920756D01*
X192388145Y-96920756D01*
X192388143Y-96920757D01*
X192231074Y-96952000D01*
X192070926Y-96952000D01*
X191913857Y-96920757D01*
X191913855Y-96920756D01*
X191913854Y-96920756D01*
X191765901Y-96859472D01*
X191676956Y-96800041D01*
X191632743Y-96770499D01*
X191519501Y-96657257D01*
X191430529Y-96524100D01*
X191430528Y-96524099D01*
X191369244Y-96376146D01*
X191363670Y-96348123D01*
X191338000Y-96219074D01*
X191338000Y-96058926D01*
X191369243Y-95901857D01*
X191369244Y-95901854D01*
X191430528Y-95753901D01*
X191519502Y-95620742D01*
X191632742Y-95507502D01*
X191646767Y-95498131D01*
X191715760Y-95452031D01*
X191765901Y-95418528D01*
X191913854Y-95357244D01*
X191913855Y-95357244D01*
X191913857Y-95357243D01*
X192070926Y-95326000D01*
X192231074Y-95326000D01*
X192388143Y-95357243D01*
X192388143Y-95357243D01*
G37*
G36*
X197468143Y-95357243D02*
G01*
X197468145Y-95357244D01*
X197468146Y-95357244D01*
X197616099Y-95418528D01*
X197666240Y-95452031D01*
X197735234Y-95498131D01*
X197749258Y-95507502D01*
X197862498Y-95620742D01*
X197951472Y-95753901D01*
X198012756Y-95901854D01*
X198012757Y-95901857D01*
X198044000Y-96058926D01*
X198044000Y-96219074D01*
X198018331Y-96348123D01*
X198012756Y-96376146D01*
X197951472Y-96524099D01*
X197951471Y-96524100D01*
X197862499Y-96657257D01*
X197749257Y-96770499D01*
X197705044Y-96800041D01*
X197616099Y-96859472D01*
X197468146Y-96920756D01*
X197468145Y-96920756D01*
X197468143Y-96920757D01*
X197311074Y-96952000D01*
X197150926Y-96952000D01*
X196993857Y-96920757D01*
X196993855Y-96920756D01*
X196993854Y-96920756D01*
X196845901Y-96859472D01*
X196756956Y-96800041D01*
X196712743Y-96770499D01*
X196599501Y-96657257D01*
X196510529Y-96524100D01*
X196510528Y-96524099D01*
X196449244Y-96376146D01*
X196443670Y-96348123D01*
X196418000Y-96219074D01*
X196418000Y-96058926D01*
X196449243Y-95901857D01*
X196449244Y-95901854D01*
X196510528Y-95753901D01*
X196599502Y-95620742D01*
X196712742Y-95507502D01*
X196726767Y-95498131D01*
X196795760Y-95452031D01*
X196845901Y-95418528D01*
X196993854Y-95357244D01*
X196993855Y-95357244D01*
X196993857Y-95357243D01*
X197150926Y-95326000D01*
X197311074Y-95326000D01*
X197468143Y-95357243D01*
X197468143Y-95357243D01*
G37*
G36*
X187308143Y-95357243D02*
G01*
X187308145Y-95357244D01*
X187308146Y-95357244D01*
X187456099Y-95418528D01*
X187506240Y-95452031D01*
X187575234Y-95498131D01*
X187589258Y-95507502D01*
X187702498Y-95620742D01*
X187791472Y-95753901D01*
X187852756Y-95901854D01*
X187852757Y-95901857D01*
X187884000Y-96058926D01*
X187884000Y-96219074D01*
X187858331Y-96348123D01*
X187852756Y-96376146D01*
X187791472Y-96524099D01*
X187791471Y-96524100D01*
X187702499Y-96657257D01*
X187589257Y-96770499D01*
X187545044Y-96800041D01*
X187456099Y-96859472D01*
X187308146Y-96920756D01*
X187308145Y-96920756D01*
X187308143Y-96920757D01*
X187151074Y-96952000D01*
X186990926Y-96952000D01*
X186833857Y-96920757D01*
X186833855Y-96920756D01*
X186833854Y-96920756D01*
X186685901Y-96859472D01*
X186596956Y-96800041D01*
X186552743Y-96770499D01*
X186439501Y-96657257D01*
X186350529Y-96524100D01*
X186350528Y-96524099D01*
X186289244Y-96376146D01*
X186283670Y-96348123D01*
X186258000Y-96219074D01*
X186258000Y-96058926D01*
X186289243Y-95901857D01*
X186289244Y-95901854D01*
X186350528Y-95753901D01*
X186439502Y-95620742D01*
X186552742Y-95507502D01*
X186566767Y-95498131D01*
X186635760Y-95452031D01*
X186685901Y-95418528D01*
X186833854Y-95357244D01*
X186833855Y-95357244D01*
X186833857Y-95357243D01*
X186990926Y-95326000D01*
X187151074Y-95326000D01*
X187308143Y-95357243D01*
X187308143Y-95357243D01*
G37*
G36*
X204220032Y-95367288D02*
G01*
X204261069Y-95379736D01*
X204298888Y-95399951D01*
X204332041Y-95427159D01*
X204359249Y-95460312D01*
X204379464Y-95498131D01*
X204391912Y-95539168D01*
X204396600Y-95586767D01*
X204396600Y-96640433D01*
X204391912Y-96688032D01*
X204379464Y-96729069D01*
X204359249Y-96766888D01*
X204332041Y-96800041D01*
X204298888Y-96827249D01*
X204261069Y-96847464D01*
X204220032Y-96859912D01*
X204172433Y-96864600D01*
X203543767Y-96864600D01*
X203496168Y-96859912D01*
X203455131Y-96847464D01*
X203417312Y-96827249D01*
X203384159Y-96800041D01*
X203356951Y-96766888D01*
X203336736Y-96729069D01*
X203324288Y-96688032D01*
X203319600Y-96640433D01*
X203319600Y-95586767D01*
X203324288Y-95539168D01*
X203336736Y-95498131D01*
X203356951Y-95460312D01*
X203384159Y-95427159D01*
X203417312Y-95399951D01*
X203455131Y-95379736D01*
X203496168Y-95367288D01*
X203543767Y-95362600D01*
X204172433Y-95362600D01*
X204220032Y-95367288D01*
X204220032Y-95367288D01*
G37*
G36*
X202345032Y-95367288D02*
G01*
X202386069Y-95379736D01*
X202423888Y-95399951D01*
X202457041Y-95427159D01*
X202484249Y-95460312D01*
X202504464Y-95498131D01*
X202516912Y-95539168D01*
X202521600Y-95586767D01*
X202521600Y-96640433D01*
X202516912Y-96688032D01*
X202504464Y-96729069D01*
X202484249Y-96766888D01*
X202457041Y-96800041D01*
X202423888Y-96827249D01*
X202386069Y-96847464D01*
X202345032Y-96859912D01*
X202297433Y-96864600D01*
X201668767Y-96864600D01*
X201621168Y-96859912D01*
X201580131Y-96847464D01*
X201542312Y-96827249D01*
X201509159Y-96800041D01*
X201481951Y-96766888D01*
X201461736Y-96729069D01*
X201449288Y-96688032D01*
X201444600Y-96640433D01*
X201444600Y-95586767D01*
X201449288Y-95539168D01*
X201461736Y-95498131D01*
X201481951Y-95460312D01*
X201509159Y-95427159D01*
X201542312Y-95399951D01*
X201580131Y-95379736D01*
X201621168Y-95367288D01*
X201668767Y-95362600D01*
X202297433Y-95362600D01*
X202345032Y-95367288D01*
X202345032Y-95367288D01*
G37*
G36*
X212105632Y-95321188D02*
G01*
X212146669Y-95333636D01*
X212184488Y-95353851D01*
X212217641Y-95381059D01*
X212244849Y-95414212D01*
X212265064Y-95452031D01*
X212277512Y-95493068D01*
X212282200Y-95540667D01*
X212282200Y-96169333D01*
X212277512Y-96216932D01*
X212265064Y-96257969D01*
X212244849Y-96295788D01*
X212217641Y-96328941D01*
X212184488Y-96356149D01*
X212146669Y-96376364D01*
X212105632Y-96388812D01*
X212058033Y-96393500D01*
X211004367Y-96393500D01*
X210956768Y-96388812D01*
X210915731Y-96376364D01*
X210877912Y-96356149D01*
X210844759Y-96328941D01*
X210817551Y-96295788D01*
X210797336Y-96257969D01*
X210784888Y-96216932D01*
X210780200Y-96169333D01*
X210780200Y-95540667D01*
X210784888Y-95493068D01*
X210797336Y-95452031D01*
X210817551Y-95414212D01*
X210844759Y-95381059D01*
X210877912Y-95353851D01*
X210915731Y-95333636D01*
X210956768Y-95321188D01*
X211004367Y-95316500D01*
X212058033Y-95316500D01*
X212105632Y-95321188D01*
X212105632Y-95321188D01*
G37*
G36*
X173091232Y-93974988D02*
G01*
X173132269Y-93987436D01*
X173170088Y-94007651D01*
X173203241Y-94034859D01*
X173230449Y-94068012D01*
X173250664Y-94105831D01*
X173263112Y-94146868D01*
X173267800Y-94194467D01*
X173267800Y-94823133D01*
X173263112Y-94870732D01*
X173250664Y-94911769D01*
X173230449Y-94949588D01*
X173203241Y-94982741D01*
X173170088Y-95009949D01*
X173132269Y-95030164D01*
X173091232Y-95042612D01*
X173043633Y-95047300D01*
X171989967Y-95047300D01*
X171942368Y-95042612D01*
X171901331Y-95030164D01*
X171863512Y-95009949D01*
X171830359Y-94982741D01*
X171803151Y-94949588D01*
X171782936Y-94911769D01*
X171770488Y-94870732D01*
X171765800Y-94823133D01*
X171765800Y-94194467D01*
X171770488Y-94146868D01*
X171782936Y-94105831D01*
X171803151Y-94068012D01*
X171830359Y-94034859D01*
X171863512Y-94007651D01*
X171901331Y-93987436D01*
X171942368Y-93974988D01*
X171989967Y-93970300D01*
X173043633Y-93970300D01*
X173091232Y-93974988D01*
X173091232Y-93974988D01*
G37*
G36*
X212105632Y-93446188D02*
G01*
X212146669Y-93458636D01*
X212184488Y-93478851D01*
X212217641Y-93506059D01*
X212244849Y-93539212D01*
X212265064Y-93577031D01*
X212277512Y-93618068D01*
X212282200Y-93665667D01*
X212282200Y-94294333D01*
X212277512Y-94341932D01*
X212265064Y-94382969D01*
X212244849Y-94420788D01*
X212217641Y-94453941D01*
X212184488Y-94481149D01*
X212146669Y-94501364D01*
X212105632Y-94513812D01*
X212058033Y-94518500D01*
X211004367Y-94518500D01*
X210956768Y-94513812D01*
X210915731Y-94501364D01*
X210877912Y-94481149D01*
X210844759Y-94453941D01*
X210817551Y-94420788D01*
X210797336Y-94382969D01*
X210784888Y-94341932D01*
X210780200Y-94294333D01*
X210780200Y-93665667D01*
X210784888Y-93618068D01*
X210797336Y-93577031D01*
X210817551Y-93539212D01*
X210844759Y-93506059D01*
X210877912Y-93478851D01*
X210915731Y-93458636D01*
X210956768Y-93446188D01*
X211004367Y-93441500D01*
X212058033Y-93441500D01*
X212105632Y-93446188D01*
X212105632Y-93446188D01*
G37*
G36*
X187308143Y-92817243D02*
G01*
X187308145Y-92817244D01*
X187308146Y-92817244D01*
X187456099Y-92878528D01*
X187456100Y-92878529D01*
X187571413Y-92955578D01*
X187589258Y-92967502D01*
X187702498Y-93080742D01*
X187791472Y-93213901D01*
X187831775Y-93311202D01*
X187852757Y-93361857D01*
X187883157Y-93514688D01*
X187884000Y-93518928D01*
X187884000Y-93679072D01*
X187852756Y-93836146D01*
X187791472Y-93984099D01*
X187791471Y-93984100D01*
X187710134Y-94105831D01*
X187702498Y-94117258D01*
X187589258Y-94230498D01*
X187456099Y-94319472D01*
X187308146Y-94380756D01*
X187308145Y-94380756D01*
X187308143Y-94380757D01*
X187151074Y-94412000D01*
X186990926Y-94412000D01*
X186833857Y-94380757D01*
X186833855Y-94380756D01*
X186833854Y-94380756D01*
X186685901Y-94319472D01*
X186552742Y-94230498D01*
X186439502Y-94117258D01*
X186431867Y-94105831D01*
X186350529Y-93984100D01*
X186350528Y-93984099D01*
X186289244Y-93836146D01*
X186258000Y-93679072D01*
X186258000Y-93518928D01*
X186258843Y-93514688D01*
X186289243Y-93361857D01*
X186310225Y-93311202D01*
X186350528Y-93213901D01*
X186439502Y-93080742D01*
X186552742Y-92967502D01*
X186570588Y-92955578D01*
X186685900Y-92878529D01*
X186685901Y-92878528D01*
X186833854Y-92817244D01*
X186833855Y-92817244D01*
X186833857Y-92817243D01*
X186990926Y-92786000D01*
X187151074Y-92786000D01*
X187308143Y-92817243D01*
X187308143Y-92817243D01*
G37*
G36*
X189848143Y-92817243D02*
G01*
X189848145Y-92817244D01*
X189848146Y-92817244D01*
X189996099Y-92878528D01*
X189996100Y-92878529D01*
X190111413Y-92955578D01*
X190129258Y-92967502D01*
X190242498Y-93080742D01*
X190331472Y-93213901D01*
X190371775Y-93311202D01*
X190392757Y-93361857D01*
X190423157Y-93514688D01*
X190424000Y-93518928D01*
X190424000Y-93679072D01*
X190392756Y-93836146D01*
X190331472Y-93984099D01*
X190331471Y-93984100D01*
X190250134Y-94105831D01*
X190242498Y-94117258D01*
X190129258Y-94230498D01*
X189996099Y-94319472D01*
X189848146Y-94380756D01*
X189848145Y-94380756D01*
X189848143Y-94380757D01*
X189691074Y-94412000D01*
X189530926Y-94412000D01*
X189373857Y-94380757D01*
X189373855Y-94380756D01*
X189373854Y-94380756D01*
X189225901Y-94319472D01*
X189092742Y-94230498D01*
X188979502Y-94117258D01*
X188971867Y-94105831D01*
X188890529Y-93984100D01*
X188890528Y-93984099D01*
X188829244Y-93836146D01*
X188798000Y-93679072D01*
X188798000Y-93518928D01*
X188798843Y-93514688D01*
X188829243Y-93361857D01*
X188850225Y-93311202D01*
X188890528Y-93213901D01*
X188979502Y-93080742D01*
X189092742Y-92967502D01*
X189110588Y-92955578D01*
X189225900Y-92878529D01*
X189225901Y-92878528D01*
X189373854Y-92817244D01*
X189373855Y-92817244D01*
X189373857Y-92817243D01*
X189530926Y-92786000D01*
X189691074Y-92786000D01*
X189848143Y-92817243D01*
X189848143Y-92817243D01*
G37*
G36*
X192388143Y-92817243D02*
G01*
X192388145Y-92817244D01*
X192388146Y-92817244D01*
X192536099Y-92878528D01*
X192536100Y-92878529D01*
X192651413Y-92955578D01*
X192669258Y-92967502D01*
X192782498Y-93080742D01*
X192871472Y-93213901D01*
X192911775Y-93311202D01*
X192932757Y-93361857D01*
X192963157Y-93514688D01*
X192964000Y-93518928D01*
X192964000Y-93679072D01*
X192932756Y-93836146D01*
X192871472Y-93984099D01*
X192871471Y-93984100D01*
X192790134Y-94105831D01*
X192782498Y-94117258D01*
X192669258Y-94230498D01*
X192536099Y-94319472D01*
X192388146Y-94380756D01*
X192388145Y-94380756D01*
X192388143Y-94380757D01*
X192231074Y-94412000D01*
X192070926Y-94412000D01*
X191913857Y-94380757D01*
X191913855Y-94380756D01*
X191913854Y-94380756D01*
X191765901Y-94319472D01*
X191632742Y-94230498D01*
X191519502Y-94117258D01*
X191511867Y-94105831D01*
X191430529Y-93984100D01*
X191430528Y-93984099D01*
X191369244Y-93836146D01*
X191338000Y-93679072D01*
X191338000Y-93518928D01*
X191338843Y-93514688D01*
X191369243Y-93361857D01*
X191390225Y-93311202D01*
X191430528Y-93213901D01*
X191519502Y-93080742D01*
X191632742Y-92967502D01*
X191650588Y-92955578D01*
X191765900Y-92878529D01*
X191765901Y-92878528D01*
X191913854Y-92817244D01*
X191913855Y-92817244D01*
X191913857Y-92817243D01*
X192070926Y-92786000D01*
X192231074Y-92786000D01*
X192388143Y-92817243D01*
X192388143Y-92817243D01*
G37*
G36*
X223333150Y-91397311D02*
G01*
X223533519Y-91480307D01*
X223533520Y-91480308D01*
X223713845Y-91600796D01*
X223867204Y-91754155D01*
X223963660Y-91898513D01*
X223987693Y-91934481D01*
X224070689Y-92134850D01*
X224113000Y-92347561D01*
X224113000Y-92564439D01*
X224070689Y-92777150D01*
X223987693Y-92977519D01*
X223987692Y-92977520D01*
X223867204Y-93157845D01*
X223713845Y-93311204D01*
X223569487Y-93407660D01*
X223533519Y-93431693D01*
X223333150Y-93514689D01*
X223120439Y-93557000D01*
X222903561Y-93557000D01*
X222690850Y-93514689D01*
X222490481Y-93431693D01*
X222454513Y-93407660D01*
X222310155Y-93311204D01*
X222156796Y-93157845D01*
X222036308Y-92977520D01*
X222036307Y-92977519D01*
X221953311Y-92777150D01*
X221911000Y-92564439D01*
X221911000Y-92347561D01*
X221953311Y-92134850D01*
X222036307Y-91934481D01*
X222060340Y-91898513D01*
X222156796Y-91754155D01*
X222310155Y-91600796D01*
X222490480Y-91480308D01*
X222490481Y-91480307D01*
X222690850Y-91397311D01*
X222903561Y-91355000D01*
X223120439Y-91355000D01*
X223333150Y-91397311D01*
X223333150Y-91397311D01*
G37*
G36*
X173091232Y-92099988D02*
G01*
X173132269Y-92112436D01*
X173170088Y-92132651D01*
X173203241Y-92159859D01*
X173230449Y-92193012D01*
X173250664Y-92230831D01*
X173263112Y-92271868D01*
X173267800Y-92319467D01*
X173267800Y-92948133D01*
X173263112Y-92995732D01*
X173250664Y-93036769D01*
X173230449Y-93074588D01*
X173203241Y-93107741D01*
X173170088Y-93134949D01*
X173132269Y-93155164D01*
X173091232Y-93167612D01*
X173043633Y-93172300D01*
X171989967Y-93172300D01*
X171942368Y-93167612D01*
X171901331Y-93155164D01*
X171863512Y-93134949D01*
X171830359Y-93107741D01*
X171803151Y-93074588D01*
X171782936Y-93036769D01*
X171770488Y-92995732D01*
X171765800Y-92948133D01*
X171765800Y-92319467D01*
X171770488Y-92271868D01*
X171782936Y-92230831D01*
X171803151Y-92193012D01*
X171830359Y-92159859D01*
X171863512Y-92132651D01*
X171901331Y-92112436D01*
X171942368Y-92099988D01*
X171989967Y-92095300D01*
X173043633Y-92095300D01*
X173091232Y-92099988D01*
X173091232Y-92099988D01*
G37*
G36*
X204028432Y-91541188D02*
G01*
X204069469Y-91553636D01*
X204107288Y-91573851D01*
X204140441Y-91601059D01*
X204167649Y-91634212D01*
X204187864Y-91672031D01*
X204200312Y-91713068D01*
X204205000Y-91760667D01*
X204205000Y-92389333D01*
X204200312Y-92436932D01*
X204187864Y-92477969D01*
X204167649Y-92515788D01*
X204140441Y-92548941D01*
X204107288Y-92576149D01*
X204069469Y-92596364D01*
X204028432Y-92608812D01*
X203980833Y-92613500D01*
X202927167Y-92613500D01*
X202879568Y-92608812D01*
X202838531Y-92596364D01*
X202800712Y-92576149D01*
X202767559Y-92548941D01*
X202740351Y-92515788D01*
X202720136Y-92477969D01*
X202707688Y-92436932D01*
X202703000Y-92389333D01*
X202703000Y-91760667D01*
X202707688Y-91713068D01*
X202720136Y-91672031D01*
X202740351Y-91634212D01*
X202767559Y-91601059D01*
X202800712Y-91573851D01*
X202838531Y-91553636D01*
X202879568Y-91541188D01*
X202927167Y-91536500D01*
X203980833Y-91536500D01*
X204028432Y-91541188D01*
X204028432Y-91541188D01*
G37*
G36*
X187308143Y-90277243D02*
G01*
X187308145Y-90277244D01*
X187308146Y-90277244D01*
X187456099Y-90338528D01*
X187456100Y-90338529D01*
X187589257Y-90427501D01*
X187702499Y-90540743D01*
X187732694Y-90585933D01*
X187791472Y-90673901D01*
X187847887Y-90810100D01*
X187852757Y-90821857D01*
X187884000Y-90978926D01*
X187884000Y-91139074D01*
X187876854Y-91175000D01*
X187852756Y-91296146D01*
X187791472Y-91444099D01*
X187767278Y-91480308D01*
X187702499Y-91577257D01*
X187589257Y-91690499D01*
X187555480Y-91713068D01*
X187456099Y-91779472D01*
X187308146Y-91840756D01*
X187308145Y-91840756D01*
X187308143Y-91840757D01*
X187151074Y-91872000D01*
X186990926Y-91872000D01*
X186833857Y-91840757D01*
X186833855Y-91840756D01*
X186833854Y-91840756D01*
X186685901Y-91779472D01*
X186586520Y-91713068D01*
X186552743Y-91690499D01*
X186439501Y-91577257D01*
X186374722Y-91480308D01*
X186350528Y-91444099D01*
X186289244Y-91296146D01*
X186265147Y-91175000D01*
X186258000Y-91139074D01*
X186258000Y-90978926D01*
X186289243Y-90821857D01*
X186294113Y-90810100D01*
X186350528Y-90673901D01*
X186409306Y-90585933D01*
X186439501Y-90540743D01*
X186552743Y-90427501D01*
X186685900Y-90338529D01*
X186685901Y-90338528D01*
X186833854Y-90277244D01*
X186833855Y-90277244D01*
X186833857Y-90277243D01*
X186990926Y-90246000D01*
X187151074Y-90246000D01*
X187308143Y-90277243D01*
X187308143Y-90277243D01*
G37*
G36*
X189848143Y-90277243D02*
G01*
X189848145Y-90277244D01*
X189848146Y-90277244D01*
X189996099Y-90338528D01*
X189996100Y-90338529D01*
X190129257Y-90427501D01*
X190242499Y-90540743D01*
X190272694Y-90585933D01*
X190331472Y-90673901D01*
X190387887Y-90810100D01*
X190392757Y-90821857D01*
X190424000Y-90978926D01*
X190424000Y-91139074D01*
X190416854Y-91175000D01*
X190392756Y-91296146D01*
X190331472Y-91444099D01*
X190307278Y-91480308D01*
X190242499Y-91577257D01*
X190129257Y-91690499D01*
X190095480Y-91713068D01*
X189996099Y-91779472D01*
X189848146Y-91840756D01*
X189848145Y-91840756D01*
X189848143Y-91840757D01*
X189691074Y-91872000D01*
X189530926Y-91872000D01*
X189373857Y-91840757D01*
X189373855Y-91840756D01*
X189373854Y-91840756D01*
X189225901Y-91779472D01*
X189126520Y-91713068D01*
X189092743Y-91690499D01*
X188979501Y-91577257D01*
X188914722Y-91480308D01*
X188890528Y-91444099D01*
X188829244Y-91296146D01*
X188805147Y-91175000D01*
X188798000Y-91139074D01*
X188798000Y-90978926D01*
X188829243Y-90821857D01*
X188834113Y-90810100D01*
X188890528Y-90673901D01*
X188949306Y-90585933D01*
X188979501Y-90540743D01*
X189092743Y-90427501D01*
X189225900Y-90338529D01*
X189225901Y-90338528D01*
X189373854Y-90277244D01*
X189373855Y-90277244D01*
X189373857Y-90277243D01*
X189530926Y-90246000D01*
X189691074Y-90246000D01*
X189848143Y-90277243D01*
X189848143Y-90277243D01*
G37*
G36*
X192388143Y-90277243D02*
G01*
X192388145Y-90277244D01*
X192388146Y-90277244D01*
X192536099Y-90338528D01*
X192536100Y-90338529D01*
X192669257Y-90427501D01*
X192782499Y-90540743D01*
X192812694Y-90585933D01*
X192871472Y-90673901D01*
X192927887Y-90810100D01*
X192932757Y-90821857D01*
X192964000Y-90978926D01*
X192964000Y-91139074D01*
X192956854Y-91175000D01*
X192932756Y-91296146D01*
X192871472Y-91444099D01*
X192847278Y-91480308D01*
X192782499Y-91577257D01*
X192669257Y-91690499D01*
X192635480Y-91713068D01*
X192536099Y-91779472D01*
X192388146Y-91840756D01*
X192388145Y-91840756D01*
X192388143Y-91840757D01*
X192231074Y-91872000D01*
X192070926Y-91872000D01*
X191913857Y-91840757D01*
X191913855Y-91840756D01*
X191913854Y-91840756D01*
X191765901Y-91779472D01*
X191666520Y-91713068D01*
X191632743Y-91690499D01*
X191519501Y-91577257D01*
X191454722Y-91480308D01*
X191430528Y-91444099D01*
X191369244Y-91296146D01*
X191345147Y-91175000D01*
X191338000Y-91139074D01*
X191338000Y-90978926D01*
X191369243Y-90821857D01*
X191374113Y-90810100D01*
X191430528Y-90673901D01*
X191489306Y-90585933D01*
X191519501Y-90540743D01*
X191632743Y-90427501D01*
X191765900Y-90338529D01*
X191765901Y-90338528D01*
X191913854Y-90277244D01*
X191913855Y-90277244D01*
X191913857Y-90277243D01*
X192070926Y-90246000D01*
X192231074Y-90246000D01*
X192388143Y-90277243D01*
X192388143Y-90277243D01*
G37*
G36*
X174956932Y-89677688D02*
G01*
X174997969Y-89690136D01*
X175035788Y-89710351D01*
X175068941Y-89737559D01*
X175096149Y-89770712D01*
X175116364Y-89808531D01*
X175128812Y-89849568D01*
X175133500Y-89897167D01*
X175133500Y-90950833D01*
X175128812Y-90998432D01*
X175116364Y-91039469D01*
X175096149Y-91077288D01*
X175068941Y-91110441D01*
X175035788Y-91137649D01*
X174997969Y-91157864D01*
X174956932Y-91170312D01*
X174909333Y-91175000D01*
X174280667Y-91175000D01*
X174233068Y-91170312D01*
X174192031Y-91157864D01*
X174154212Y-91137649D01*
X174121059Y-91110441D01*
X174093851Y-91077288D01*
X174073636Y-91039469D01*
X174061188Y-90998432D01*
X174056500Y-90950833D01*
X174056500Y-89897167D01*
X174061188Y-89849568D01*
X174073636Y-89808531D01*
X174093851Y-89770712D01*
X174121059Y-89737559D01*
X174154212Y-89710351D01*
X174192031Y-89690136D01*
X174233068Y-89677688D01*
X174280667Y-89673000D01*
X174909333Y-89673000D01*
X174956932Y-89677688D01*
X174956932Y-89677688D01*
G37*
G36*
X173081932Y-89677688D02*
G01*
X173122969Y-89690136D01*
X173160788Y-89710351D01*
X173193941Y-89737559D01*
X173221149Y-89770712D01*
X173241364Y-89808531D01*
X173253812Y-89849568D01*
X173258500Y-89897167D01*
X173258500Y-90950833D01*
X173253812Y-90998432D01*
X173241364Y-91039469D01*
X173221149Y-91077288D01*
X173193941Y-91110441D01*
X173160788Y-91137649D01*
X173122969Y-91157864D01*
X173081932Y-91170312D01*
X173034333Y-91175000D01*
X172405667Y-91175000D01*
X172358068Y-91170312D01*
X172317031Y-91157864D01*
X172279212Y-91137649D01*
X172246059Y-91110441D01*
X172218851Y-91077288D01*
X172198636Y-91039469D01*
X172186188Y-90998432D01*
X172181500Y-90950833D01*
X172181500Y-89897167D01*
X172186188Y-89849568D01*
X172198636Y-89808531D01*
X172218851Y-89770712D01*
X172246059Y-89737559D01*
X172279212Y-89710351D01*
X172317031Y-89690136D01*
X172358068Y-89677688D01*
X172405667Y-89673000D01*
X173034333Y-89673000D01*
X173081932Y-89677688D01*
X173081932Y-89677688D01*
G37*
G36*
X224113000Y-91017000D02*
G01*
X221911000Y-91017000D01*
X221911000Y-88815000D01*
X224113000Y-88815000D01*
X224113000Y-91017000D01*
X224113000Y-91017000D01*
G37*
G36*
X212461232Y-89737788D02*
G01*
X212502269Y-89750236D01*
X212540088Y-89770451D01*
X212573241Y-89797659D01*
X212600449Y-89830812D01*
X212620664Y-89868631D01*
X212633112Y-89909668D01*
X212637800Y-89957267D01*
X212637800Y-90585933D01*
X212633112Y-90633532D01*
X212620664Y-90674569D01*
X212600449Y-90712388D01*
X212573241Y-90745541D01*
X212540088Y-90772749D01*
X212502269Y-90792964D01*
X212461232Y-90805412D01*
X212413633Y-90810100D01*
X211359967Y-90810100D01*
X211312368Y-90805412D01*
X211271331Y-90792964D01*
X211233512Y-90772749D01*
X211200359Y-90745541D01*
X211173151Y-90712388D01*
X211152936Y-90674569D01*
X211140488Y-90633532D01*
X211135800Y-90585933D01*
X211135800Y-89957267D01*
X211140488Y-89909668D01*
X211152936Y-89868631D01*
X211173151Y-89830812D01*
X211200359Y-89797659D01*
X211233512Y-89770451D01*
X211271331Y-89750236D01*
X211312368Y-89737788D01*
X211359967Y-89733100D01*
X212413633Y-89733100D01*
X212461232Y-89737788D01*
X212461232Y-89737788D01*
G37*
G36*
X204028432Y-89666188D02*
G01*
X204069469Y-89678636D01*
X204107288Y-89698851D01*
X204140441Y-89726059D01*
X204167649Y-89759212D01*
X204187864Y-89797031D01*
X204200312Y-89838068D01*
X204205000Y-89885667D01*
X204205000Y-90514333D01*
X204200312Y-90561932D01*
X204187864Y-90602969D01*
X204167649Y-90640788D01*
X204140441Y-90673941D01*
X204107288Y-90701149D01*
X204069469Y-90721364D01*
X204028432Y-90733812D01*
X203980833Y-90738500D01*
X202927167Y-90738500D01*
X202879568Y-90733812D01*
X202838531Y-90721364D01*
X202800712Y-90701149D01*
X202767559Y-90673941D01*
X202740351Y-90640788D01*
X202720136Y-90602969D01*
X202707688Y-90561932D01*
X202703000Y-90514333D01*
X202703000Y-89885667D01*
X202707688Y-89838068D01*
X202720136Y-89797031D01*
X202740351Y-89759212D01*
X202767559Y-89726059D01*
X202800712Y-89698851D01*
X202838531Y-89678636D01*
X202879568Y-89666188D01*
X202927167Y-89661500D01*
X203980833Y-89661500D01*
X204028432Y-89666188D01*
X204028432Y-89666188D01*
G37*
G36*
X171110032Y-89123588D02*
G01*
X171151069Y-89136036D01*
X171188888Y-89156251D01*
X171222041Y-89183459D01*
X171249249Y-89216612D01*
X171269464Y-89254431D01*
X171281912Y-89295468D01*
X171286600Y-89343067D01*
X171286600Y-89971733D01*
X171281912Y-90019332D01*
X171269464Y-90060369D01*
X171249249Y-90098188D01*
X171222041Y-90131341D01*
X171188888Y-90158549D01*
X171151069Y-90178764D01*
X171110032Y-90191212D01*
X171062433Y-90195900D01*
X170008767Y-90195900D01*
X169961168Y-90191212D01*
X169920131Y-90178764D01*
X169882312Y-90158549D01*
X169849159Y-90131341D01*
X169821951Y-90098188D01*
X169801736Y-90060369D01*
X169789288Y-90019332D01*
X169784600Y-89971733D01*
X169784600Y-89343067D01*
X169789288Y-89295468D01*
X169801736Y-89254431D01*
X169821951Y-89216612D01*
X169849159Y-89183459D01*
X169882312Y-89156251D01*
X169920131Y-89136036D01*
X169961168Y-89123588D01*
X170008767Y-89118900D01*
X171062433Y-89118900D01*
X171110032Y-89123588D01*
X171110032Y-89123588D01*
G37*
G36*
X212461232Y-87862788D02*
G01*
X212502269Y-87875236D01*
X212540088Y-87895451D01*
X212573241Y-87922659D01*
X212600449Y-87955812D01*
X212620664Y-87993631D01*
X212633112Y-88034668D01*
X212637800Y-88082267D01*
X212637800Y-88710933D01*
X212633112Y-88758532D01*
X212620664Y-88799569D01*
X212600449Y-88837388D01*
X212573241Y-88870541D01*
X212540088Y-88897749D01*
X212502269Y-88917964D01*
X212461232Y-88930412D01*
X212413633Y-88935100D01*
X211359967Y-88935100D01*
X211312368Y-88930412D01*
X211271331Y-88917964D01*
X211233512Y-88897749D01*
X211200359Y-88870541D01*
X211173151Y-88837388D01*
X211152936Y-88799569D01*
X211140488Y-88758532D01*
X211135800Y-88710933D01*
X211135800Y-88082267D01*
X211140488Y-88034668D01*
X211152936Y-87993631D01*
X211173151Y-87955812D01*
X211200359Y-87922659D01*
X211233512Y-87895451D01*
X211271331Y-87875236D01*
X211312368Y-87862788D01*
X211359967Y-87858100D01*
X212413633Y-87858100D01*
X212461232Y-87862788D01*
X212461232Y-87862788D01*
G37*
G36*
X223333150Y-86317311D02*
G01*
X223533519Y-86400307D01*
X223533520Y-86400308D01*
X223713845Y-86520796D01*
X223867204Y-86674155D01*
X223963660Y-86818513D01*
X223987693Y-86854481D01*
X224070689Y-87054850D01*
X224113000Y-87267561D01*
X224113000Y-87484439D01*
X224070689Y-87697150D01*
X223987693Y-87897519D01*
X223987692Y-87897520D01*
X223867204Y-88077845D01*
X223713845Y-88231204D01*
X223586620Y-88316212D01*
X223533519Y-88351693D01*
X223333150Y-88434689D01*
X223120439Y-88477000D01*
X222903561Y-88477000D01*
X222690850Y-88434689D01*
X222490481Y-88351693D01*
X222437380Y-88316212D01*
X222310155Y-88231204D01*
X222156796Y-88077845D01*
X222036308Y-87897520D01*
X222036307Y-87897519D01*
X221953311Y-87697150D01*
X221911000Y-87484439D01*
X221911000Y-87267561D01*
X221953311Y-87054850D01*
X222036307Y-86854481D01*
X222060340Y-86818513D01*
X222156796Y-86674155D01*
X222310155Y-86520796D01*
X222490480Y-86400308D01*
X222490481Y-86400307D01*
X222690850Y-86317311D01*
X222903561Y-86275000D01*
X223120439Y-86275000D01*
X223333150Y-86317311D01*
X223333150Y-86317311D01*
G37*
G36*
X171110032Y-87248588D02*
G01*
X171151069Y-87261036D01*
X171188888Y-87281251D01*
X171222041Y-87308459D01*
X171249249Y-87341612D01*
X171269464Y-87379431D01*
X171281912Y-87420468D01*
X171286600Y-87468067D01*
X171286600Y-88096733D01*
X171281912Y-88144332D01*
X171269464Y-88185369D01*
X171249249Y-88223188D01*
X171222041Y-88256341D01*
X171188888Y-88283549D01*
X171151069Y-88303764D01*
X171110032Y-88316212D01*
X171062433Y-88320900D01*
X170008767Y-88320900D01*
X169961168Y-88316212D01*
X169920131Y-88303764D01*
X169882312Y-88283549D01*
X169849159Y-88256341D01*
X169821951Y-88223188D01*
X169801736Y-88185369D01*
X169789288Y-88144332D01*
X169784600Y-88096733D01*
X169784600Y-87468067D01*
X169789288Y-87420468D01*
X169801736Y-87379431D01*
X169821951Y-87341612D01*
X169849159Y-87308459D01*
X169882312Y-87281251D01*
X169920131Y-87261036D01*
X169961168Y-87248588D01*
X170008767Y-87243900D01*
X171062433Y-87243900D01*
X171110032Y-87248588D01*
X171110032Y-87248588D01*
G37*
G36*
X224113000Y-85937000D02*
G01*
X221911000Y-85937000D01*
X221911000Y-83735000D01*
X224113000Y-83735000D01*
X224113000Y-85937000D01*
X224113000Y-85937000D01*
G37*
G36*
X173654273Y-83602429D02*
G01*
X173654275Y-83602430D01*
X173654276Y-83602430D01*
X173701068Y-83621812D01*
X173840993Y-83679771D01*
X174009037Y-83792054D01*
X174151946Y-83934963D01*
X174264229Y-84103007D01*
X174341571Y-84289727D01*
X174381000Y-84487948D01*
X174381000Y-84690052D01*
X174341571Y-84888273D01*
X174264229Y-85074993D01*
X174151946Y-85243037D01*
X174009037Y-85385946D01*
X173840993Y-85498229D01*
X173723249Y-85547000D01*
X173654276Y-85575570D01*
X173654275Y-85575570D01*
X173654273Y-85575571D01*
X173456052Y-85615000D01*
X173253948Y-85615000D01*
X173055727Y-85575571D01*
X173055725Y-85575570D01*
X173055724Y-85575570D01*
X172986751Y-85547000D01*
X172869007Y-85498229D01*
X172700963Y-85385946D01*
X172558054Y-85243037D01*
X172445771Y-85074993D01*
X172368429Y-84888273D01*
X172329000Y-84690052D01*
X172329000Y-84487948D01*
X172368429Y-84289727D01*
X172445771Y-84103007D01*
X172558054Y-83934963D01*
X172700963Y-83792054D01*
X172869007Y-83679771D01*
X173008932Y-83621812D01*
X173055724Y-83602430D01*
X173055725Y-83602430D01*
X173055727Y-83602429D01*
X173253948Y-83563000D01*
X173456052Y-83563000D01*
X173654273Y-83602429D01*
X173654273Y-83602429D01*
G37*
G36*
X213959832Y-84429188D02*
G01*
X214000869Y-84441636D01*
X214038688Y-84461851D01*
X214071841Y-84489059D01*
X214099049Y-84522212D01*
X214119264Y-84560031D01*
X214131712Y-84601068D01*
X214136400Y-84648667D01*
X214136400Y-85277333D01*
X214131712Y-85324932D01*
X214119264Y-85365969D01*
X214099049Y-85403788D01*
X214071841Y-85436941D01*
X214038688Y-85464149D01*
X214000869Y-85484364D01*
X213959832Y-85496812D01*
X213912233Y-85501500D01*
X212858567Y-85501500D01*
X212810968Y-85496812D01*
X212769931Y-85484364D01*
X212732112Y-85464149D01*
X212698959Y-85436941D01*
X212671751Y-85403788D01*
X212651536Y-85365969D01*
X212639088Y-85324932D01*
X212634400Y-85277333D01*
X212634400Y-84648667D01*
X212639088Y-84601068D01*
X212651536Y-84560031D01*
X212671751Y-84522212D01*
X212698959Y-84489059D01*
X212732112Y-84461851D01*
X212769931Y-84441636D01*
X212810968Y-84429188D01*
X212858567Y-84424500D01*
X213912233Y-84424500D01*
X213959832Y-84429188D01*
X213959832Y-84429188D01*
G37*
G36*
X213959832Y-82554188D02*
G01*
X214000869Y-82566636D01*
X214038688Y-82586851D01*
X214071841Y-82614059D01*
X214099049Y-82647212D01*
X214119264Y-82685031D01*
X214131712Y-82726068D01*
X214136400Y-82773667D01*
X214136400Y-83402333D01*
X214131712Y-83449932D01*
X214119264Y-83490969D01*
X214099049Y-83528788D01*
X214071841Y-83561941D01*
X214038688Y-83589149D01*
X214000869Y-83609364D01*
X213959832Y-83621812D01*
X213912233Y-83626500D01*
X212858567Y-83626500D01*
X212810968Y-83621812D01*
X212769931Y-83609364D01*
X212732112Y-83589149D01*
X212698959Y-83561941D01*
X212671751Y-83528788D01*
X212651536Y-83490969D01*
X212639088Y-83449932D01*
X212634400Y-83402333D01*
X212634400Y-82773667D01*
X212639088Y-82726068D01*
X212651536Y-82685031D01*
X212671751Y-82647212D01*
X212698959Y-82614059D01*
X212732112Y-82586851D01*
X212769931Y-82566636D01*
X212810968Y-82554188D01*
X212858567Y-82549500D01*
X213912233Y-82549500D01*
X213959832Y-82554188D01*
X213959832Y-82554188D01*
G37*
G36*
X209870432Y-82397188D02*
G01*
X209911469Y-82409636D01*
X209949288Y-82429851D01*
X209982441Y-82457059D01*
X210009649Y-82490212D01*
X210029864Y-82528031D01*
X210042312Y-82569068D01*
X210047000Y-82616667D01*
X210047000Y-83245333D01*
X210042312Y-83292932D01*
X210029864Y-83333969D01*
X210009649Y-83371788D01*
X209982441Y-83404941D01*
X209949288Y-83432149D01*
X209911469Y-83452364D01*
X209870432Y-83464812D01*
X209822833Y-83469500D01*
X208769167Y-83469500D01*
X208721568Y-83464812D01*
X208680531Y-83452364D01*
X208642712Y-83432149D01*
X208609559Y-83404941D01*
X208582351Y-83371788D01*
X208562136Y-83333969D01*
X208549688Y-83292932D01*
X208545000Y-83245333D01*
X208545000Y-82616667D01*
X208549688Y-82569068D01*
X208562136Y-82528031D01*
X208582351Y-82490212D01*
X208609559Y-82457059D01*
X208642712Y-82429851D01*
X208680531Y-82409636D01*
X208721568Y-82397188D01*
X208769167Y-82392500D01*
X209822833Y-82392500D01*
X209870432Y-82397188D01*
X209870432Y-82397188D01*
G37*
G36*
X223333150Y-81237311D02*
G01*
X223533519Y-81320307D01*
X223569487Y-81344340D01*
X223713845Y-81440796D01*
X223867204Y-81594155D01*
X223963660Y-81738513D01*
X223987693Y-81774481D01*
X224070689Y-81974850D01*
X224113000Y-82187561D01*
X224113000Y-82404439D01*
X224070689Y-82617150D01*
X223987693Y-82817519D01*
X223987692Y-82817520D01*
X223867204Y-82997845D01*
X223713845Y-83151204D01*
X223572969Y-83245333D01*
X223533519Y-83271693D01*
X223333150Y-83354689D01*
X223120439Y-83397000D01*
X222903561Y-83397000D01*
X222690850Y-83354689D01*
X222490481Y-83271693D01*
X222451031Y-83245333D01*
X222310155Y-83151204D01*
X222156796Y-82997845D01*
X222036308Y-82817520D01*
X222036307Y-82817519D01*
X221953311Y-82617150D01*
X221911000Y-82404439D01*
X221911000Y-82187561D01*
X221953311Y-81974850D01*
X222036307Y-81774481D01*
X222060340Y-81738513D01*
X222156796Y-81594155D01*
X222310155Y-81440796D01*
X222454513Y-81344340D01*
X222490481Y-81320307D01*
X222690850Y-81237311D01*
X222903561Y-81195000D01*
X223120439Y-81195000D01*
X223333150Y-81237311D01*
X223333150Y-81237311D01*
G37*
G36*
X209870432Y-80522188D02*
G01*
X209911469Y-80534636D01*
X209949288Y-80554851D01*
X209982441Y-80582059D01*
X210009649Y-80615212D01*
X210029864Y-80653031D01*
X210042312Y-80694068D01*
X210047000Y-80741667D01*
X210047000Y-81370333D01*
X210042312Y-81417932D01*
X210029864Y-81458969D01*
X210009649Y-81496788D01*
X209982441Y-81529941D01*
X209949288Y-81557149D01*
X209911469Y-81577364D01*
X209870432Y-81589812D01*
X209822833Y-81594500D01*
X208769167Y-81594500D01*
X208721568Y-81589812D01*
X208680531Y-81577364D01*
X208642712Y-81557149D01*
X208609559Y-81529941D01*
X208582351Y-81496788D01*
X208562136Y-81458969D01*
X208549688Y-81417932D01*
X208545000Y-81370333D01*
X208545000Y-80741667D01*
X208549688Y-80694068D01*
X208562136Y-80653031D01*
X208582351Y-80615212D01*
X208609559Y-80582059D01*
X208642712Y-80554851D01*
X208680531Y-80534636D01*
X208721568Y-80522188D01*
X208769167Y-80517500D01*
X209822833Y-80517500D01*
X209870432Y-80522188D01*
X209870432Y-80522188D01*
G37*
G36*
X224113000Y-80857000D02*
G01*
X221911000Y-80857000D01*
X221911000Y-78655000D01*
X224113000Y-78655000D01*
X224113000Y-80857000D01*
X224113000Y-80857000D01*
G37*
G36*
X173654273Y-78602429D02*
G01*
X173654275Y-78602430D01*
X173654276Y-78602430D01*
X173717697Y-78628700D01*
X173840993Y-78679771D01*
X174009037Y-78792054D01*
X174151946Y-78934963D01*
X174264229Y-79103007D01*
X174341571Y-79289727D01*
X174381000Y-79487948D01*
X174381000Y-79690052D01*
X174341571Y-79888273D01*
X174264229Y-80074993D01*
X174151946Y-80243037D01*
X174009037Y-80385946D01*
X173840993Y-80498229D01*
X173753099Y-80534636D01*
X173654276Y-80575570D01*
X173654275Y-80575570D01*
X173654273Y-80575571D01*
X173456052Y-80615000D01*
X173253948Y-80615000D01*
X173055727Y-80575571D01*
X173055725Y-80575570D01*
X173055724Y-80575570D01*
X172956901Y-80534636D01*
X172869007Y-80498229D01*
X172700963Y-80385946D01*
X172558054Y-80243037D01*
X172445771Y-80074993D01*
X172368429Y-79888273D01*
X172329000Y-79690052D01*
X172329000Y-79487948D01*
X172368429Y-79289727D01*
X172445771Y-79103007D01*
X172558054Y-78934963D01*
X172700963Y-78792054D01*
X172869007Y-78679771D01*
X172992303Y-78628700D01*
X173055724Y-78602430D01*
X173055725Y-78602430D01*
X173055727Y-78602429D01*
X173253948Y-78563000D01*
X173456052Y-78563000D01*
X173654273Y-78602429D01*
X173654273Y-78602429D01*
G37*
G36*
X208651232Y-78633388D02*
G01*
X208692269Y-78645836D01*
X208730088Y-78666051D01*
X208763241Y-78693259D01*
X208790449Y-78726412D01*
X208810664Y-78764231D01*
X208823112Y-78805268D01*
X208827800Y-78852867D01*
X208827800Y-79481533D01*
X208823112Y-79529132D01*
X208810664Y-79570169D01*
X208790449Y-79607988D01*
X208763241Y-79641141D01*
X208730088Y-79668349D01*
X208692269Y-79688564D01*
X208651232Y-79701012D01*
X208603633Y-79705700D01*
X207549967Y-79705700D01*
X207502368Y-79701012D01*
X207461331Y-79688564D01*
X207423512Y-79668349D01*
X207390359Y-79641141D01*
X207363151Y-79607988D01*
X207342936Y-79570169D01*
X207330488Y-79529132D01*
X207325800Y-79481533D01*
X207325800Y-78852867D01*
X207330488Y-78805268D01*
X207342936Y-78764231D01*
X207363151Y-78726412D01*
X207390359Y-78693259D01*
X207423512Y-78666051D01*
X207461331Y-78645836D01*
X207502368Y-78633388D01*
X207549967Y-78628700D01*
X208603633Y-78628700D01*
X208651232Y-78633388D01*
X208651232Y-78633388D01*
G37*
G36*
X208651232Y-76758388D02*
G01*
X208692269Y-76770836D01*
X208730088Y-76791051D01*
X208763241Y-76818259D01*
X208790449Y-76851412D01*
X208810664Y-76889231D01*
X208823112Y-76930268D01*
X208827800Y-76977867D01*
X208827800Y-77606533D01*
X208823112Y-77654132D01*
X208810664Y-77695169D01*
X208790449Y-77732988D01*
X208763241Y-77766141D01*
X208730088Y-77793349D01*
X208692269Y-77813564D01*
X208651232Y-77826012D01*
X208603633Y-77830700D01*
X207549967Y-77830700D01*
X207502368Y-77826012D01*
X207461331Y-77813564D01*
X207423512Y-77793349D01*
X207390359Y-77766141D01*
X207363151Y-77732988D01*
X207342936Y-77695169D01*
X207330488Y-77654132D01*
X207325800Y-77606533D01*
X207325800Y-76977867D01*
X207330488Y-76930268D01*
X207342936Y-76889231D01*
X207363151Y-76851412D01*
X207390359Y-76818259D01*
X207423512Y-76791051D01*
X207461331Y-76770836D01*
X207502368Y-76758388D01*
X207549967Y-76753700D01*
X208603633Y-76753700D01*
X208651232Y-76758388D01*
X208651232Y-76758388D01*
G37*
G36*
X203774432Y-76525188D02*
G01*
X203815469Y-76537636D01*
X203853288Y-76557851D01*
X203886441Y-76585059D01*
X203913649Y-76618212D01*
X203933864Y-76656031D01*
X203946312Y-76697068D01*
X203951000Y-76744667D01*
X203951000Y-77373333D01*
X203946312Y-77420932D01*
X203933864Y-77461969D01*
X203913649Y-77499788D01*
X203886441Y-77532941D01*
X203853288Y-77560149D01*
X203815469Y-77580364D01*
X203774432Y-77592812D01*
X203726833Y-77597500D01*
X202673167Y-77597500D01*
X202625568Y-77592812D01*
X202584531Y-77580364D01*
X202546712Y-77560149D01*
X202513559Y-77532941D01*
X202486351Y-77499788D01*
X202466136Y-77461969D01*
X202453688Y-77420932D01*
X202449000Y-77373333D01*
X202449000Y-76744667D01*
X202453688Y-76697068D01*
X202466136Y-76656031D01*
X202486351Y-76618212D01*
X202513559Y-76585059D01*
X202546712Y-76557851D01*
X202584531Y-76537636D01*
X202625568Y-76525188D01*
X202673167Y-76520500D01*
X203726833Y-76520500D01*
X203774432Y-76525188D01*
X203774432Y-76525188D01*
G37*
G36*
X203774432Y-74650188D02*
G01*
X203815469Y-74662636D01*
X203853288Y-74682851D01*
X203886441Y-74710059D01*
X203913649Y-74743212D01*
X203933864Y-74781031D01*
X203946312Y-74822068D01*
X203951000Y-74869667D01*
X203951000Y-75498333D01*
X203946312Y-75545932D01*
X203933864Y-75586969D01*
X203913649Y-75624788D01*
X203886441Y-75657941D01*
X203853288Y-75685149D01*
X203815469Y-75705364D01*
X203774432Y-75717812D01*
X203726833Y-75722500D01*
X202673167Y-75722500D01*
X202625568Y-75717812D01*
X202584531Y-75705364D01*
X202546712Y-75685149D01*
X202513559Y-75657941D01*
X202486351Y-75624788D01*
X202466136Y-75586969D01*
X202453688Y-75545932D01*
X202449000Y-75498333D01*
X202449000Y-74869667D01*
X202453688Y-74822068D01*
X202466136Y-74781031D01*
X202486351Y-74743212D01*
X202513559Y-74710059D01*
X202546712Y-74682851D01*
X202584531Y-74662636D01*
X202625568Y-74650188D01*
X202673167Y-74645500D01*
X203726833Y-74645500D01*
X203774432Y-74650188D01*
X203774432Y-74650188D01*
G37*
G36*
X173654273Y-73602429D02*
G01*
X173654275Y-73602430D01*
X173654276Y-73602430D01*
X173723249Y-73631000D01*
X173840993Y-73679771D01*
X174009037Y-73792054D01*
X174151946Y-73934963D01*
X174264229Y-74103007D01*
X174341571Y-74289727D01*
X174381000Y-74487948D01*
X174381000Y-74690052D01*
X174341571Y-74888273D01*
X174264229Y-75074993D01*
X174151946Y-75243037D01*
X174009037Y-75385946D01*
X173840993Y-75498229D01*
X173725828Y-75545932D01*
X173654276Y-75575570D01*
X173654275Y-75575570D01*
X173654273Y-75575571D01*
X173456052Y-75615000D01*
X173253948Y-75615000D01*
X173055727Y-75575571D01*
X173055725Y-75575570D01*
X173055724Y-75575570D01*
X172984172Y-75545932D01*
X172869007Y-75498229D01*
X172700963Y-75385946D01*
X172558054Y-75243037D01*
X172445771Y-75074993D01*
X172368429Y-74888273D01*
X172329000Y-74690052D01*
X172329000Y-74487948D01*
X172368429Y-74289727D01*
X172445771Y-74103007D01*
X172558054Y-73934963D01*
X172700963Y-73792054D01*
X172869007Y-73679771D01*
X172986751Y-73631000D01*
X173055724Y-73602430D01*
X173055725Y-73602430D01*
X173055727Y-73602429D01*
X173253948Y-73563000D01*
X173456052Y-73563000D01*
X173654273Y-73602429D01*
X173654273Y-73602429D01*
G37*
G36*
X222930273Y-71664429D02*
G01*
X222930275Y-71664430D01*
X222930276Y-71664430D01*
X222999249Y-71693000D01*
X223116993Y-71741771D01*
X223285037Y-71854054D01*
X223427946Y-71996963D01*
X223540229Y-72165007D01*
X223617571Y-72351727D01*
X223657000Y-72549948D01*
X223657000Y-72752052D01*
X223617571Y-72950273D01*
X223540229Y-73136993D01*
X223427946Y-73305037D01*
X223285037Y-73447946D01*
X223116993Y-73560229D01*
X223015113Y-73602429D01*
X222930276Y-73637570D01*
X222930275Y-73637570D01*
X222930273Y-73637571D01*
X222732052Y-73677000D01*
X222529948Y-73677000D01*
X222331727Y-73637571D01*
X222331725Y-73637570D01*
X222331724Y-73637570D01*
X222246887Y-73602429D01*
X222145007Y-73560229D01*
X221976963Y-73447946D01*
X221834054Y-73305037D01*
X221721771Y-73136993D01*
X221644429Y-72950273D01*
X221605000Y-72752052D01*
X221605000Y-72549948D01*
X221644429Y-72351727D01*
X221721771Y-72165007D01*
X221834054Y-71996963D01*
X221976963Y-71854054D01*
X222145007Y-71741771D01*
X222262751Y-71693000D01*
X222331724Y-71664430D01*
X222331725Y-71664430D01*
X222331727Y-71664429D01*
X222529948Y-71625000D01*
X222732052Y-71625000D01*
X222930273Y-71664429D01*
X222930273Y-71664429D01*
G37*
G36*
X173654273Y-68602429D02*
G01*
X173654275Y-68602430D01*
X173654276Y-68602430D01*
X173723249Y-68631000D01*
X173840993Y-68679771D01*
X174009037Y-68792054D01*
X174151946Y-68934963D01*
X174264229Y-69103007D01*
X174341571Y-69289727D01*
X174381000Y-69487948D01*
X174381000Y-69690052D01*
X174341571Y-69888273D01*
X174264229Y-70074993D01*
X174151946Y-70243037D01*
X174009037Y-70385946D01*
X173840993Y-70498229D01*
X173723249Y-70547000D01*
X173654276Y-70575570D01*
X173654275Y-70575570D01*
X173654273Y-70575571D01*
X173456052Y-70615000D01*
X173253948Y-70615000D01*
X173055727Y-70575571D01*
X173055725Y-70575570D01*
X173055724Y-70575570D01*
X172986751Y-70547000D01*
X172869007Y-70498229D01*
X172700963Y-70385946D01*
X172558054Y-70243037D01*
X172445771Y-70074993D01*
X172368429Y-69888273D01*
X172329000Y-69690052D01*
X172329000Y-69487948D01*
X172368429Y-69289727D01*
X172445771Y-69103007D01*
X172558054Y-68934963D01*
X172700963Y-68792054D01*
X172869007Y-68679771D01*
X172986751Y-68631000D01*
X173055724Y-68602430D01*
X173055725Y-68602430D01*
X173055727Y-68602429D01*
X173253948Y-68563000D01*
X173456052Y-68563000D01*
X173654273Y-68602429D01*
X173654273Y-68602429D01*
G37*
G36*
X222930273Y-66664429D02*
G01*
X222930275Y-66664430D01*
X222930276Y-66664430D01*
X222999249Y-66693000D01*
X223116993Y-66741771D01*
X223285037Y-66854054D01*
X223427946Y-66996963D01*
X223540229Y-67165007D01*
X223617571Y-67351727D01*
X223657000Y-67549948D01*
X223657000Y-67752052D01*
X223617571Y-67950273D01*
X223540229Y-68136993D01*
X223427946Y-68305037D01*
X223285037Y-68447946D01*
X223116993Y-68560229D01*
X223015113Y-68602429D01*
X222930276Y-68637570D01*
X222930275Y-68637570D01*
X222930273Y-68637571D01*
X222732052Y-68677000D01*
X222529948Y-68677000D01*
X222331727Y-68637571D01*
X222331725Y-68637570D01*
X222331724Y-68637570D01*
X222246887Y-68602429D01*
X222145007Y-68560229D01*
X221976963Y-68447946D01*
X221834054Y-68305037D01*
X221721771Y-68136993D01*
X221644429Y-67950273D01*
X221605000Y-67752052D01*
X221605000Y-67549948D01*
X221644429Y-67351727D01*
X221721771Y-67165007D01*
X221834054Y-66996963D01*
X221976963Y-66854054D01*
X222145007Y-66741771D01*
X222262751Y-66693000D01*
X222331724Y-66664430D01*
X222331725Y-66664430D01*
X222331727Y-66664429D01*
X222529948Y-66625000D01*
X222732052Y-66625000D01*
X222930273Y-66664429D01*
X222930273Y-66664429D01*
G37*
G36*
X171453917Y-63784862D02*
G01*
X171498032Y-63789207D01*
X171560959Y-63808296D01*
X171696147Y-63849304D01*
X171878728Y-63946896D01*
X172038765Y-64078235D01*
X172170104Y-64238272D01*
X172267696Y-64420853D01*
X172308704Y-64556041D01*
X172327793Y-64618968D01*
X172327793Y-64618970D01*
X172348086Y-64825000D01*
X172331132Y-64997125D01*
X172327793Y-65031032D01*
X172308704Y-65093959D01*
X172267696Y-65229147D01*
X172170104Y-65411728D01*
X172038765Y-65571765D01*
X171878728Y-65703104D01*
X171696147Y-65800696D01*
X171560959Y-65841704D01*
X171498032Y-65860793D01*
X171453917Y-65865138D01*
X171343635Y-65876000D01*
X169240365Y-65876000D01*
X169130083Y-65865138D01*
X169085968Y-65860793D01*
X169023041Y-65841704D01*
X168887853Y-65800696D01*
X168705272Y-65703104D01*
X168545235Y-65571765D01*
X168413896Y-65411728D01*
X168316304Y-65229147D01*
X168275296Y-65093959D01*
X168256207Y-65031032D01*
X168252868Y-64997125D01*
X168235914Y-64825000D01*
X168256207Y-64618970D01*
X168256207Y-64618968D01*
X168275296Y-64556041D01*
X168316304Y-64420853D01*
X168413896Y-64238272D01*
X168545235Y-64078235D01*
X168705272Y-63946896D01*
X168887853Y-63849304D01*
X169023041Y-63808296D01*
X169085968Y-63789207D01*
X169130083Y-63784862D01*
X169240365Y-63774000D01*
X171343635Y-63774000D01*
X171453917Y-63784862D01*
X171453917Y-63784862D01*
G37*
G36*
X222930273Y-61664429D02*
G01*
X222930275Y-61664430D01*
X222930276Y-61664430D01*
X222969159Y-61680536D01*
X223116993Y-61741771D01*
X223285037Y-61854054D01*
X223427946Y-61996963D01*
X223540229Y-62165007D01*
X223617571Y-62351727D01*
X223657000Y-62549948D01*
X223657000Y-62752052D01*
X223617571Y-62950273D01*
X223540229Y-63136993D01*
X223427946Y-63305037D01*
X223285037Y-63447946D01*
X223116993Y-63560229D01*
X222999249Y-63609000D01*
X222930276Y-63637570D01*
X222930275Y-63637570D01*
X222930273Y-63637571D01*
X222732052Y-63677000D01*
X222529948Y-63677000D01*
X222331727Y-63637571D01*
X222331725Y-63637570D01*
X222331724Y-63637570D01*
X222262751Y-63609000D01*
X222145007Y-63560229D01*
X221976963Y-63447946D01*
X221834054Y-63305037D01*
X221721771Y-63136993D01*
X221644429Y-62950273D01*
X221605000Y-62752052D01*
X221605000Y-62549948D01*
X221644429Y-62351727D01*
X221721771Y-62165007D01*
X221834054Y-61996963D01*
X221976963Y-61854054D01*
X222145007Y-61741771D01*
X222292841Y-61680536D01*
X222331724Y-61664430D01*
X222331725Y-61664430D01*
X222331727Y-61664429D01*
X222529948Y-61625000D01*
X222732052Y-61625000D01*
X222930273Y-61664429D01*
X222930273Y-61664429D01*
G37*
G36*
X177522534Y-58041015D02*
G01*
X177744213Y-58108261D01*
X177948510Y-58217460D01*
X178127581Y-58364419D01*
X178274540Y-58543489D01*
X178383739Y-58747786D01*
X178450985Y-58969465D01*
X178468000Y-59142223D01*
X178468000Y-61507777D01*
X178450985Y-61680535D01*
X178383739Y-61902214D01*
X178274540Y-62106511D01*
X178127581Y-62285581D01*
X177948511Y-62432540D01*
X177744214Y-62541739D01*
X177522535Y-62608985D01*
X177292000Y-62631691D01*
X177061466Y-62608985D01*
X176839787Y-62541739D01*
X176635490Y-62432540D01*
X176456420Y-62285581D01*
X176309461Y-62106511D01*
X176200262Y-61902214D01*
X176133016Y-61680535D01*
X176116001Y-61507777D01*
X176116000Y-59142224D01*
X176133015Y-58969466D01*
X176200261Y-58747787D01*
X176309460Y-58543490D01*
X176456419Y-58364419D01*
X176635489Y-58217460D01*
X176839786Y-58108261D01*
X177061465Y-58041015D01*
X177292000Y-58018309D01*
X177522534Y-58041015D01*
X177522534Y-58041015D01*
G37*
G36*
X171960169Y-58283611D02*
G01*
X172049282Y-58310642D01*
X172131403Y-58354537D01*
X172203387Y-58413613D01*
X172262463Y-58485597D01*
X172306358Y-58567718D01*
X172333389Y-58656831D01*
X172343000Y-58754408D01*
X172343000Y-61895592D01*
X172333389Y-61993169D01*
X172306358Y-62082282D01*
X172262463Y-62164403D01*
X172203387Y-62236387D01*
X172131403Y-62295463D01*
X172049282Y-62339358D01*
X171960169Y-62366389D01*
X171862592Y-62376000D01*
X170721408Y-62376000D01*
X170623831Y-62366389D01*
X170534718Y-62339358D01*
X170452597Y-62295463D01*
X170380613Y-62236387D01*
X170321537Y-62164403D01*
X170277642Y-62082282D01*
X170250611Y-61993169D01*
X170241000Y-61895592D01*
X170241000Y-58754408D01*
X170250611Y-58656831D01*
X170277642Y-58567718D01*
X170321537Y-58485597D01*
X170380613Y-58413613D01*
X170452597Y-58354537D01*
X170534718Y-58310642D01*
X170623831Y-58283611D01*
X170721408Y-58274000D01*
X171862592Y-58274000D01*
X171960169Y-58283611D01*
X171960169Y-58283611D01*
G37*
G36*
X168441581Y-59487081D02*
G01*
X168540228Y-59506703D01*
X168695100Y-59570853D01*
X168834481Y-59663985D01*
X168953015Y-59782519D01*
X169046147Y-59921900D01*
X169110297Y-60076772D01*
X169143000Y-60241184D01*
X169143000Y-60408816D01*
X169110297Y-60573228D01*
X169046147Y-60728100D01*
X168953015Y-60867481D01*
X168834481Y-60986015D01*
X168695100Y-61079147D01*
X168540228Y-61143297D01*
X168441581Y-61162919D01*
X168375818Y-61176000D01*
X168208182Y-61176000D01*
X168142419Y-61162919D01*
X168043772Y-61143297D01*
X167888900Y-61079147D01*
X167749519Y-60986015D01*
X167630985Y-60867481D01*
X167537853Y-60728100D01*
X167473703Y-60573228D01*
X167441000Y-60408816D01*
X167441000Y-60241184D01*
X167473703Y-60076772D01*
X167537853Y-59921900D01*
X167630985Y-59782519D01*
X167749519Y-59663985D01*
X167888900Y-59570853D01*
X168043772Y-59506703D01*
X168142419Y-59487081D01*
X168208182Y-59474000D01*
X168375818Y-59474000D01*
X168441581Y-59487081D01*
X168441581Y-59487081D01*
G37*
G36*
X222930273Y-56664429D02*
G01*
X222930275Y-56664430D01*
X222930276Y-56664430D01*
X222999249Y-56693000D01*
X223116993Y-56741771D01*
X223285037Y-56854054D01*
X223427946Y-56996963D01*
X223540229Y-57165007D01*
X223617571Y-57351727D01*
X223657000Y-57549948D01*
X223657000Y-57752052D01*
X223617571Y-57950273D01*
X223540229Y-58136993D01*
X223427946Y-58305037D01*
X223285037Y-58447946D01*
X223116993Y-58560229D01*
X223024840Y-58598400D01*
X222930276Y-58637570D01*
X222930275Y-58637570D01*
X222930273Y-58637571D01*
X222732052Y-58677000D01*
X222529948Y-58677000D01*
X222331727Y-58637571D01*
X222331725Y-58637570D01*
X222331724Y-58637570D01*
X222237160Y-58598400D01*
X222145007Y-58560229D01*
X221976963Y-58447946D01*
X221834054Y-58305037D01*
X221721771Y-58136993D01*
X221644429Y-57950273D01*
X221605000Y-57752052D01*
X221605000Y-57549948D01*
X221644429Y-57351727D01*
X221721771Y-57165007D01*
X221834054Y-56996963D01*
X221976963Y-56854054D01*
X222145007Y-56741771D01*
X222262751Y-56693000D01*
X222331724Y-56664430D01*
X222331725Y-56664430D01*
X222331727Y-56664429D01*
X222529948Y-56625000D01*
X222732052Y-56625000D01*
X222930273Y-56664429D01*
X222930273Y-56664429D01*
G37*
G36*
X171453917Y-54784862D02*
G01*
X171498032Y-54789207D01*
X171560959Y-54808296D01*
X171696147Y-54849304D01*
X171878728Y-54946896D01*
X172038765Y-55078235D01*
X172170104Y-55238272D01*
X172267696Y-55420853D01*
X172308704Y-55556041D01*
X172327793Y-55618968D01*
X172327793Y-55618970D01*
X172348086Y-55825000D01*
X172331132Y-55997125D01*
X172327793Y-56031032D01*
X172308704Y-56093959D01*
X172267696Y-56229147D01*
X172170104Y-56411728D01*
X172038765Y-56571765D01*
X171878728Y-56703104D01*
X171696147Y-56800696D01*
X171560959Y-56841704D01*
X171498032Y-56860793D01*
X171453917Y-56865138D01*
X171343635Y-56876000D01*
X169240365Y-56876000D01*
X169130083Y-56865138D01*
X169085968Y-56860793D01*
X169023041Y-56841704D01*
X168887853Y-56800696D01*
X168705272Y-56703104D01*
X168545235Y-56571765D01*
X168413896Y-56411728D01*
X168316304Y-56229147D01*
X168275296Y-56093959D01*
X168256207Y-56031032D01*
X168252868Y-55997125D01*
X168235914Y-55825000D01*
X168256207Y-55618970D01*
X168256207Y-55618968D01*
X168275296Y-55556041D01*
X168316304Y-55420853D01*
X168413896Y-55238272D01*
X168545235Y-55078235D01*
X168705272Y-54946896D01*
X168887853Y-54849304D01*
X169023041Y-54808296D01*
X169085968Y-54789207D01*
X169130083Y-54784862D01*
X169240365Y-54774000D01*
X171343635Y-54774000D01*
X171453917Y-54784862D01*
X171453917Y-54784862D01*
G37*
G36*
X171623766Y-46676232D02*
G01*
X171966791Y-46744463D01*
X172613029Y-47012144D01*
X173194631Y-47400758D01*
X173689242Y-47895369D01*
X174077856Y-48476971D01*
X174345537Y-49123209D01*
X174482000Y-49809259D01*
X174482000Y-50508741D01*
X174345537Y-51194791D01*
X174077856Y-51841029D01*
X173689242Y-52422631D01*
X173194631Y-52917242D01*
X172613029Y-53305856D01*
X171966791Y-53573537D01*
X171623766Y-53641769D01*
X171280743Y-53710000D01*
X170581257Y-53710000D01*
X170238234Y-53641769D01*
X169895209Y-53573537D01*
X169248971Y-53305856D01*
X168667369Y-52917242D01*
X168172758Y-52422631D01*
X167784144Y-51841029D01*
X167516463Y-51194791D01*
X167380000Y-50508741D01*
X167380000Y-49809259D01*
X167516463Y-49123209D01*
X167784144Y-48476971D01*
X168172758Y-47895369D01*
X168667369Y-47400758D01*
X169248971Y-47012144D01*
X169895209Y-46744463D01*
X170238234Y-46676231D01*
X170581257Y-46608000D01*
X171280743Y-46608000D01*
X171623766Y-46676232D01*
X171623766Y-46676232D01*
G37*
G36*
X226623766Y-46676232D02*
G01*
X226966791Y-46744463D01*
X227613029Y-47012144D01*
X228194631Y-47400758D01*
X228689242Y-47895369D01*
X229077856Y-48476971D01*
X229345537Y-49123209D01*
X229482000Y-49809259D01*
X229482000Y-50508741D01*
X229345537Y-51194791D01*
X229077856Y-51841029D01*
X228689242Y-52422631D01*
X228194631Y-52917242D01*
X227613029Y-53305856D01*
X226966791Y-53573537D01*
X226623766Y-53641769D01*
X226280743Y-53710000D01*
X225581257Y-53710000D01*
X225238234Y-53641769D01*
X224895209Y-53573537D01*
X224248971Y-53305856D01*
X223667369Y-52917242D01*
X223172758Y-52422631D01*
X222784144Y-51841029D01*
X222516463Y-51194791D01*
X222380000Y-50508741D01*
X222380000Y-49809259D01*
X222516463Y-49123209D01*
X222784144Y-48476971D01*
X223172758Y-47895369D01*
X223667369Y-47400758D01*
X224248971Y-47012144D01*
X224895209Y-46744463D01*
X225238234Y-46676231D01*
X225581257Y-46608000D01*
X226280743Y-46608000D01*
X226623766Y-46676232D01*
X226623766Y-46676232D01*
G37*
M02*
