%FSLAX45Y45*%
G04 Gerber Fmt 4.5, Leading zero omitted, Abs format (unit mm)*
G04 Created by KiCad (PCBNEW (5.1.2)-1) date 2019-05-23 11:52:04*
%MOMM*%
%LPD*%
G04 APERTURE LIST*
%ADD10C,0.150000*%
%ADD11C,0.200000*%
%ADD12C,0.300000*%
G04 APERTURE END LIST*
D10*
X22999700Y-13931900D02*
X16675100Y-13931900D01*
X22999700Y-4610100D02*
X22999700Y-13931900D01*
X16675100Y-4610100D02*
X22999700Y-4610100D01*
X16675100Y-13931900D02*
X16675100Y-4610100D01*
D11*
X16853220Y-10221280D02*
X16893220Y-10261280D01*
X16893220Y-10221280D02*
X16853220Y-10261280D01*
X17081820Y-9233220D02*
X17121820Y-9273220D01*
X17121820Y-9233220D02*
X17081820Y-9273220D01*
X17086900Y-9449120D02*
X17126900Y-9489120D01*
X17126900Y-9449120D02*
X17086900Y-9489120D01*
X17086900Y-9621840D02*
X17126900Y-9661840D01*
X17126900Y-9621840D02*
X17086900Y-9661840D01*
X17104680Y-10409240D02*
X17144680Y-10449240D01*
X17144680Y-10409240D02*
X17104680Y-10449240D01*
X17107220Y-11392220D02*
X17147220Y-11432220D01*
X17147220Y-11392220D02*
X17107220Y-11432220D01*
X17112300Y-9108760D02*
X17152300Y-9148760D01*
X17152300Y-9108760D02*
X17112300Y-9148760D01*
X17170720Y-12658260D02*
X17210720Y-12698260D01*
X17210720Y-12658260D02*
X17170720Y-12698260D01*
X17252000Y-8786180D02*
X17292000Y-8826180D01*
X17292000Y-8786180D02*
X17252000Y-8826180D01*
X17269780Y-11029000D02*
X17309780Y-11069000D01*
X17309780Y-11029000D02*
X17269780Y-11069000D01*
X17353600Y-11910380D02*
X17393600Y-11950380D01*
X17393600Y-11910380D02*
X17353600Y-11950380D01*
X17546640Y-11397300D02*
X17586640Y-11437300D01*
X17586640Y-11397300D02*
X17546640Y-11437300D01*
X17574580Y-8776020D02*
X17614580Y-8816020D01*
X17614580Y-8776020D02*
X17574580Y-8816020D01*
X17686340Y-10409240D02*
X17726340Y-10449240D01*
X17726340Y-10409240D02*
X17686340Y-10449240D01*
X17724440Y-13627420D02*
X17764440Y-13667420D01*
X17764440Y-13627420D02*
X17724440Y-13667420D01*
X17747300Y-12090720D02*
X17787300Y-12130720D01*
X17787300Y-12090720D02*
X17747300Y-12130720D01*
X17772700Y-11392220D02*
X17812700Y-11432220D01*
X17812700Y-11392220D02*
X17772700Y-11432220D01*
X17828580Y-12319320D02*
X17868580Y-12359320D01*
X17868580Y-12319320D02*
X17828580Y-12359320D01*
X17868880Y-9827580D02*
X17908880Y-9867580D01*
X17908880Y-9827580D02*
X17868880Y-9867580D01*
X17877959Y-13368340D02*
X17917959Y-13408340D01*
X17917959Y-13368340D02*
X17877959Y-13408340D01*
X17892080Y-12613960D02*
X17932080Y-12653960D01*
X17932080Y-12613960D02*
X17892080Y-12653960D01*
X17897193Y-12097558D02*
X17937193Y-12137558D01*
X17937193Y-12097558D02*
X17897193Y-12137558D01*
X17904780Y-11153460D02*
X17944780Y-11193460D01*
X17944780Y-11153460D02*
X17904780Y-11193460D01*
X18064800Y-11371900D02*
X18104800Y-11411900D01*
X18104800Y-11371900D02*
X18064800Y-11411900D01*
X18092740Y-10548940D02*
X18132740Y-10588940D01*
X18132740Y-10548940D02*
X18092740Y-10588940D01*
X18120200Y-9860376D02*
X18160200Y-9900376D01*
X18160200Y-9860376D02*
X18120200Y-9900376D01*
X18192296Y-10991432D02*
X18232296Y-11031432D01*
X18232296Y-10991432D02*
X18192296Y-11031432D01*
X18196880Y-11427780D02*
X18236880Y-11467780D01*
X18236880Y-11427780D02*
X18196880Y-11467780D01*
X18271743Y-10059879D02*
X18311743Y-10099879D01*
X18311743Y-10059879D02*
X18271743Y-10099879D01*
X18293964Y-9957830D02*
X18333964Y-9997830D01*
X18333964Y-9957830D02*
X18293964Y-9997830D01*
X18339120Y-9753920D02*
X18379120Y-9793920D01*
X18379120Y-9753920D02*
X18339120Y-9793920D01*
X18356900Y-13246420D02*
X18396900Y-13286420D01*
X18396900Y-13246420D02*
X18356900Y-13286420D01*
X18359440Y-12359960D02*
X18399440Y-12399960D01*
X18399440Y-12359960D02*
X18359440Y-12399960D01*
X18381523Y-9909522D02*
X18421523Y-9949522D01*
X18421523Y-9909522D02*
X18381523Y-9949522D01*
X18415320Y-12822240D02*
X18455320Y-12862240D01*
X18455320Y-12822240D02*
X18415320Y-12862240D01*
X18433100Y-10353360D02*
X18473100Y-10393360D01*
X18473100Y-10353360D02*
X18433100Y-10393360D01*
X18496312Y-10252879D02*
X18536312Y-10292879D01*
X18536312Y-10252879D02*
X18496312Y-10292879D01*
X18519460Y-12822240D02*
X18559460Y-12862240D01*
X18559460Y-12822240D02*
X18519460Y-12862240D01*
X18524905Y-10423361D02*
X18564905Y-10463361D01*
X18564905Y-10423361D02*
X18524905Y-10463361D01*
X18584119Y-10067025D02*
X18624119Y-10107025D01*
X18624119Y-10067025D02*
X18584119Y-10107025D01*
X18608360Y-12319320D02*
X18648360Y-12359320D01*
X18648360Y-12319320D02*
X18608360Y-12359320D01*
X18621060Y-12822240D02*
X18661060Y-12862240D01*
X18661060Y-12822240D02*
X18621060Y-12862240D01*
X18623104Y-11416233D02*
X18663104Y-11456233D01*
X18663104Y-11416233D02*
X18623104Y-11456233D01*
X18781080Y-10475280D02*
X18821080Y-10515280D01*
X18821080Y-10475280D02*
X18781080Y-10515280D01*
X18788700Y-11034080D02*
X18828700Y-11074080D01*
X18828700Y-11034080D02*
X18788700Y-11074080D01*
X18890300Y-10477820D02*
X18930300Y-10517820D01*
X18930300Y-10477820D02*
X18890300Y-10517820D01*
X18910170Y-9864521D02*
X18950170Y-9904521D01*
X18950170Y-9864521D02*
X18910170Y-9904521D01*
X18938560Y-5578160D02*
X18978560Y-5618160D01*
X18978560Y-5578160D02*
X18938560Y-5618160D01*
X18938560Y-13033060D02*
X18978560Y-13073060D01*
X18978560Y-13033060D02*
X18938560Y-13073060D01*
X19164620Y-10109520D02*
X19204620Y-10149520D01*
X19204620Y-10109520D02*
X19164620Y-10149520D01*
X19347500Y-10609900D02*
X19387500Y-10649900D01*
X19387500Y-10609900D02*
X19347500Y-10649900D01*
X19377980Y-8643940D02*
X19417980Y-8683940D01*
X19417980Y-8643940D02*
X19377980Y-8683940D01*
X19390680Y-7434900D02*
X19430680Y-7474900D01*
X19430680Y-7434900D02*
X19390680Y-7474900D01*
X19487200Y-8369620D02*
X19527200Y-8409620D01*
X19527200Y-8369620D02*
X19487200Y-8409620D01*
X19499900Y-10609900D02*
X19539900Y-10649900D01*
X19539900Y-10609900D02*
X19499900Y-10649900D01*
X19507520Y-7737160D02*
X19547520Y-7777160D01*
X19547520Y-7737160D02*
X19507520Y-7777160D01*
X19560813Y-10168642D02*
X19600813Y-10208642D01*
X19600813Y-10168642D02*
X19560813Y-10208642D01*
X19626900Y-5479100D02*
X19666900Y-5519100D01*
X19666900Y-5479100D02*
X19626900Y-5519100D01*
X19642140Y-6746560D02*
X19682140Y-6786560D01*
X19682140Y-6746560D02*
X19642140Y-6786560D01*
X19652300Y-10609900D02*
X19692300Y-10649900D01*
X19692300Y-10609900D02*
X19652300Y-10649900D01*
X19700560Y-10165400D02*
X19740560Y-10205400D01*
X19740560Y-10165400D02*
X19700560Y-10205400D01*
X19804700Y-10609900D02*
X19844700Y-10649900D01*
X19844700Y-10609900D02*
X19804700Y-10649900D01*
X19906300Y-5466400D02*
X19946300Y-5506400D01*
X19946300Y-5466400D02*
X19906300Y-5506400D01*
X20215220Y-10892340D02*
X20255220Y-10932340D01*
X20255220Y-10892340D02*
X20215220Y-10932340D01*
X20312700Y-6418900D02*
X20352700Y-6458900D01*
X20352700Y-6418900D02*
X20312700Y-6458900D01*
X20312700Y-10584500D02*
X20352700Y-10624500D01*
X20352700Y-10584500D02*
X20312700Y-10624500D01*
X20325400Y-8857300D02*
X20365400Y-8897300D01*
X20365400Y-8857300D02*
X20325400Y-8897300D01*
X20330480Y-9441500D02*
X20370480Y-9481500D01*
X20370480Y-9441500D02*
X20330480Y-9481500D01*
X20338100Y-8590600D02*
X20378100Y-8630600D01*
X20378100Y-8590600D02*
X20338100Y-8630600D01*
X20353340Y-8336600D02*
X20393340Y-8376600D01*
X20393340Y-8336600D02*
X20353340Y-8376600D01*
X20353340Y-8450900D02*
X20393340Y-8490900D01*
X20393340Y-8450900D02*
X20353340Y-8490900D01*
X20414300Y-10584500D02*
X20454300Y-10624500D01*
X20454300Y-10584500D02*
X20414300Y-10624500D01*
X20414300Y-10686100D02*
X20454300Y-10726100D01*
X20454300Y-10686100D02*
X20414300Y-10726100D01*
X20439700Y-7752400D02*
X20479700Y-7792400D01*
X20479700Y-7752400D02*
X20439700Y-7792400D01*
X20450315Y-9781887D02*
X20490315Y-9821887D01*
X20490315Y-9781887D02*
X20450315Y-9821887D01*
X20452400Y-8590599D02*
X20492400Y-8630599D01*
X20492400Y-8590599D02*
X20452400Y-8630599D01*
X20454940Y-8336600D02*
X20494940Y-8376600D01*
X20494940Y-8336600D02*
X20454940Y-8376600D01*
X20454940Y-8450900D02*
X20494940Y-8490900D01*
X20494940Y-8450900D02*
X20454940Y-8490900D01*
X20470364Y-9683916D02*
X20510364Y-9723916D01*
X20510364Y-9683916D02*
X20470364Y-9723916D01*
X20515900Y-10584500D02*
X20555900Y-10624500D01*
X20555900Y-10584500D02*
X20515900Y-10624500D01*
X20515900Y-10686100D02*
X20555900Y-10726100D01*
X20555900Y-10686100D02*
X20515900Y-10726100D01*
X20515900Y-10787700D02*
X20555900Y-10827700D01*
X20555900Y-10787700D02*
X20515900Y-10827700D01*
X20635280Y-5590860D02*
X20675280Y-5630860D01*
X20675280Y-5590860D02*
X20635280Y-5630860D01*
X20635280Y-5989640D02*
X20675280Y-6029640D01*
X20675280Y-5989640D02*
X20635280Y-6029640D01*
X20663220Y-12695240D02*
X20703220Y-12735240D01*
X20703220Y-12695240D02*
X20663220Y-12735240D01*
X20668300Y-12824780D02*
X20708300Y-12864780D01*
X20708300Y-12824780D02*
X20668300Y-12864780D01*
X20678460Y-12184700D02*
X20718460Y-12224700D01*
X20718460Y-12184700D02*
X20678460Y-12224700D01*
X20681000Y-9886000D02*
X20721000Y-9926000D01*
X20721000Y-9886000D02*
X20681000Y-9926000D01*
X20752120Y-7447600D02*
X20792120Y-7487600D01*
X20792120Y-7447600D02*
X20752120Y-7487600D01*
X20757200Y-8082600D02*
X20797200Y-8122600D01*
X20797200Y-8082600D02*
X20757200Y-8122600D01*
X20764820Y-12692700D02*
X20804820Y-12732700D01*
X20804820Y-12692700D02*
X20764820Y-12732700D01*
X20764820Y-12824780D02*
X20804820Y-12864780D01*
X20804820Y-12824780D02*
X20764820Y-12864780D01*
X20789061Y-9273860D02*
X20829061Y-9313860D01*
X20829061Y-9273860D02*
X20789061Y-9313860D01*
X20848640Y-8628700D02*
X20888640Y-8668700D01*
X20888640Y-8628700D02*
X20848640Y-8668700D01*
X20863880Y-12827320D02*
X20903880Y-12867320D01*
X20903880Y-12827320D02*
X20863880Y-12867320D01*
X20868960Y-12692700D02*
X20908960Y-12732700D01*
X20908960Y-12692700D02*
X20868960Y-12732700D01*
X20917220Y-9850440D02*
X20957220Y-9890440D01*
X20957220Y-9850440D02*
X20917220Y-9890440D01*
X20955320Y-7704140D02*
X20995320Y-7744140D01*
X20995320Y-7704140D02*
X20955320Y-7744140D01*
X20955320Y-9281480D02*
X20995320Y-9321480D01*
X20995320Y-9281480D02*
X20955320Y-9321480D01*
X20970372Y-8630697D02*
X21010372Y-8670697D01*
X21010372Y-8630697D02*
X20970372Y-8670697D01*
X20988340Y-6700840D02*
X21028340Y-6740840D01*
X21028340Y-6700840D02*
X20988340Y-6740840D01*
X21035530Y-9831501D02*
X21075530Y-9871501D01*
X21075530Y-9831501D02*
X21035530Y-9871501D01*
X21143280Y-8440740D02*
X21183280Y-8480740D01*
X21183280Y-8440740D02*
X21143280Y-8480740D01*
X21163600Y-10863900D02*
X21203600Y-10903900D01*
X21203600Y-10863900D02*
X21163600Y-10903900D01*
X21163600Y-11003600D02*
X21203600Y-11043600D01*
X21203600Y-11003600D02*
X21163600Y-11043600D01*
X21163600Y-11156000D02*
X21203600Y-11196000D01*
X21203600Y-11156000D02*
X21163600Y-11196000D01*
X21163600Y-11321100D02*
X21203600Y-11361100D01*
X21203600Y-11321100D02*
X21163600Y-11361100D01*
X21163600Y-11486200D02*
X21203600Y-11526200D01*
X21203600Y-11486200D02*
X21163600Y-11526200D01*
X21163600Y-11651300D02*
X21203600Y-11691300D01*
X21203600Y-11651300D02*
X21163600Y-11691300D01*
X21163600Y-11816400D02*
X21203600Y-11856400D01*
X21203600Y-11816400D02*
X21163600Y-11856400D01*
X21275360Y-10368600D02*
X21315360Y-10408600D01*
X21315360Y-10368600D02*
X21275360Y-10408600D01*
X21298220Y-7409500D02*
X21338220Y-7449500D01*
X21338220Y-7409500D02*
X21298220Y-7449500D01*
X21303300Y-11651300D02*
X21343300Y-11691300D01*
X21343300Y-11651300D02*
X21303300Y-11691300D01*
X21305840Y-7831140D02*
X21345840Y-7871140D01*
X21345840Y-7831140D02*
X21305840Y-7871140D01*
X21316002Y-8057200D02*
X21356002Y-8097200D01*
X21356002Y-8057200D02*
X21316002Y-8097200D01*
X21318540Y-9022400D02*
X21358540Y-9062400D01*
X21358540Y-9022400D02*
X21318540Y-9062400D01*
X21318540Y-10043480D02*
X21358540Y-10083480D01*
X21358540Y-10043480D02*
X21318540Y-10083480D01*
X21323620Y-8913180D02*
X21363620Y-8953180D01*
X21363620Y-8913180D02*
X21323620Y-8953180D01*
X21331240Y-11267760D02*
X21371240Y-11307760D01*
X21371240Y-11267760D02*
X21331240Y-11307760D01*
X21357759Y-10785654D02*
X21397759Y-10825654D01*
X21397759Y-10785654D02*
X21357759Y-10825654D01*
X21404900Y-12108500D02*
X21444900Y-12148500D01*
X21444900Y-12108500D02*
X21404900Y-12148500D01*
X21407440Y-12888280D02*
X21447440Y-12928280D01*
X21447440Y-12888280D02*
X21407440Y-12928280D01*
X21531900Y-9532940D02*
X21571900Y-9572940D01*
X21571900Y-9532940D02*
X21531900Y-9572940D01*
X21557300Y-11968800D02*
X21597300Y-12008800D01*
X21597300Y-11968800D02*
X21557300Y-12008800D01*
X21557300Y-12108500D02*
X21597300Y-12148500D01*
X21597300Y-12108500D02*
X21557300Y-12148500D01*
X21559840Y-6375720D02*
X21599840Y-6415720D01*
X21599840Y-6375720D02*
X21559840Y-6415720D01*
X21610640Y-12926380D02*
X21650640Y-12966380D01*
X21650640Y-12926380D02*
X21610640Y-12966380D01*
X21633500Y-9532940D02*
X21673500Y-9572940D01*
X21673500Y-9532940D02*
X21633500Y-9572940D01*
X21663980Y-6375720D02*
X21703980Y-6415720D01*
X21703980Y-6375720D02*
X21663980Y-6415720D01*
X21671600Y-13736640D02*
X21711600Y-13776640D01*
X21711600Y-13736640D02*
X21671600Y-13776640D01*
X21722400Y-11041700D02*
X21762400Y-11081700D01*
X21762400Y-11041700D02*
X21722400Y-11081700D01*
X21722400Y-11181400D02*
X21762400Y-11221400D01*
X21762400Y-11181400D02*
X21722400Y-11221400D01*
X21722400Y-11321100D02*
X21762400Y-11361100D01*
X21762400Y-11321100D02*
X21722400Y-11361100D01*
X21722400Y-11498900D02*
X21762400Y-11538900D01*
X21762400Y-11498900D02*
X21722400Y-11538900D01*
X21722400Y-11664000D02*
X21762400Y-11704000D01*
X21762400Y-11664000D02*
X21722400Y-11704000D01*
X21722400Y-11816400D02*
X21762400Y-11856400D01*
X21762400Y-11816400D02*
X21722400Y-11856400D01*
X21722400Y-11968800D02*
X21762400Y-12008800D01*
X21762400Y-11968800D02*
X21722400Y-12008800D01*
X21722400Y-12108500D02*
X21762400Y-12148500D01*
X21762400Y-12108500D02*
X21722400Y-12148500D01*
X21735100Y-9532940D02*
X21775100Y-9572940D01*
X21775100Y-9532940D02*
X21735100Y-9572940D01*
X21736370Y-9699310D02*
X21776370Y-9739310D01*
X21776370Y-9699310D02*
X21736370Y-9739310D01*
X21741561Y-10101900D02*
X21781561Y-10141900D01*
X21781561Y-10101900D02*
X21741561Y-10141900D01*
X21741561Y-10641650D02*
X21781561Y-10681650D01*
X21781561Y-10641650D02*
X21741561Y-10681650D01*
X21742720Y-12542840D02*
X21782720Y-12582840D01*
X21782720Y-12542840D02*
X21742720Y-12582840D01*
X21813059Y-9532940D02*
X21853059Y-9572940D01*
X21853059Y-9532940D02*
X21813059Y-9572940D01*
X16903300Y-10590080D02*
G75*
G03X16903300Y-10590080I-25000J0D01*
G01*
X16843300Y-10605080D02*
X16913300Y-10605080D01*
X16843300Y-10575080D02*
X16913300Y-10575080D01*
X16913300Y-10605080D02*
G75*
G03X16913300Y-10575080I0J15000D01*
G01*
X16843300Y-10575080D02*
G75*
G03X16843300Y-10605080I0J-15000D01*
G01*
X16903300Y-11250080D02*
G75*
G03X16903300Y-11250080I-25000J0D01*
G01*
X16843300Y-11265080D02*
X16913300Y-11265080D01*
X16843300Y-11235080D02*
X16913300Y-11235080D01*
X16913300Y-11265080D02*
G75*
G03X16913300Y-11235080I0J15000D01*
G01*
X16843300Y-11235080D02*
G75*
G03X16843300Y-11265080I0J-15000D01*
G01*
X18707100Y-9563900D02*
X18707100Y-9663900D01*
X18657100Y-9613900D02*
X18757100Y-9613900D01*
X18961100Y-9309900D02*
X18961100Y-9409900D01*
X18911100Y-9359900D02*
X19011100Y-9359900D01*
X18961100Y-9055900D02*
X18961100Y-9155900D01*
X18911100Y-9105900D02*
X19011100Y-9105900D01*
X19215100Y-9563900D02*
X19215100Y-9663900D01*
X19165100Y-9613900D02*
X19265100Y-9613900D01*
X18707100Y-9055900D02*
X18707100Y-9155900D01*
X18657100Y-9105900D02*
X18757100Y-9105900D01*
X22415500Y-12357900D02*
X22415500Y-12457900D01*
X22365500Y-12407900D02*
X22465500Y-12407900D01*
X22415500Y-12865900D02*
X22415500Y-12965900D01*
X22365500Y-12915900D02*
X22465500Y-12915900D01*
X17642840Y-10739920D02*
X17642840Y-10839920D01*
X17592840Y-10789920D02*
X17692840Y-10789920D01*
X22415500Y-11849900D02*
X22415500Y-11949900D01*
X22365500Y-11899900D02*
X22465500Y-11899900D01*
X19469100Y-9563900D02*
X19469100Y-9663900D01*
X19419100Y-9613900D02*
X19519100Y-9613900D01*
X17029200Y-5532500D02*
X17029200Y-5632500D01*
X16979200Y-5582500D02*
X17079200Y-5582500D01*
X17104200Y-5542500D02*
X16954200Y-5542500D01*
X17104200Y-5622500D02*
X16954200Y-5622500D01*
X16954200Y-5542500D02*
G75*
G03X16954200Y-5622500I0J-40000D01*
G01*
X17104200Y-5622500D02*
G75*
G03X17104200Y-5542500I0J40000D01*
G01*
X17029200Y-6432500D02*
X17029200Y-6532500D01*
X16979200Y-6482500D02*
X17079200Y-6482500D01*
X17104200Y-6442500D02*
X16954200Y-6442500D01*
X17104200Y-6522500D02*
X16954200Y-6522500D01*
X16954200Y-6442500D02*
G75*
G03X16954200Y-6522500I0J-40000D01*
G01*
X17104200Y-6522500D02*
G75*
G03X17104200Y-6442500I0J40000D01*
G01*
X17129200Y-5982500D02*
X17129200Y-6082500D01*
X17079200Y-6032500D02*
X17179200Y-6032500D01*
X17169200Y-6097500D02*
X17169200Y-5967500D01*
X17089200Y-6097500D02*
X17089200Y-5967500D01*
X17169200Y-5967500D02*
G75*
G03X17089200Y-5967500I-40000J0D01*
G01*
X17089200Y-6097500D02*
G75*
G03X17169200Y-6097500I40000J0D01*
G01*
X17729200Y-5982500D02*
X17729200Y-6082500D01*
X17679200Y-6032500D02*
X17779200Y-6032500D01*
X17769200Y-6132500D02*
X17769200Y-5932500D01*
X17689200Y-6132500D02*
X17689200Y-5932500D01*
X17769200Y-5932500D02*
G75*
G03X17689200Y-5932500I-40000J0D01*
G01*
X17689200Y-6132500D02*
G75*
G03X17769200Y-6132500I40000J0D01*
G01*
X22415500Y-12103900D02*
X22415500Y-12203900D01*
X22365500Y-12153900D02*
X22465500Y-12153900D01*
X22415500Y-12611900D02*
X22415500Y-12711900D01*
X22365500Y-12661900D02*
X22465500Y-12661900D01*
X18961100Y-9563900D02*
X18961100Y-9663900D01*
X18911100Y-9613900D02*
X19011100Y-9613900D01*
X19215100Y-9309900D02*
X19215100Y-9409900D01*
X19165100Y-9359900D02*
X19265100Y-9359900D01*
X19723100Y-9563900D02*
X19723100Y-9663900D01*
X19673100Y-9613900D02*
X19773100Y-9613900D01*
X18707100Y-9309900D02*
X18707100Y-9409900D01*
X18657100Y-9359900D02*
X18757100Y-9359900D01*
X19977100Y-9563900D02*
X19977100Y-9663900D01*
X19927100Y-9613900D02*
X20027100Y-9613900D01*
X19215100Y-9055900D02*
X19215100Y-9155900D01*
X19165100Y-9105900D02*
X19265100Y-9105900D01*
X22340091Y-10351291D02*
X22340091Y-10273509D01*
X22262309Y-10273509D01*
X22262309Y-10351291D01*
X22340091Y-10351291D01*
X22340091Y-10605291D02*
X22340091Y-10527509D01*
X22262309Y-10527509D01*
X22262309Y-10605291D01*
X22340091Y-10605291D01*
X22340091Y-9030491D02*
X22340091Y-8952709D01*
X22262309Y-8952709D01*
X22262309Y-9030491D01*
X22340091Y-9030491D01*
X22340091Y-9284491D02*
X22340091Y-9206709D01*
X22262309Y-9206709D01*
X22262309Y-9284491D01*
X22340091Y-9284491D01*
X22340091Y-10859291D02*
X22340091Y-10781509D01*
X22262309Y-10781509D01*
X22262309Y-10859291D01*
X22340091Y-10859291D01*
X22340091Y-11113291D02*
X22340091Y-11035509D01*
X22262309Y-11035509D01*
X22262309Y-11113291D01*
X22340091Y-11113291D01*
X22340091Y-8014491D02*
X22340091Y-7936709D01*
X22262309Y-7936709D01*
X22262309Y-8014491D01*
X22340091Y-8014491D01*
X22340091Y-8268491D02*
X22340091Y-8190709D01*
X22262309Y-8190709D01*
X22262309Y-8268491D01*
X22340091Y-8268491D01*
X22340091Y-8522491D02*
X22340091Y-8444709D01*
X22262309Y-8444709D01*
X22262309Y-8522491D01*
X22340091Y-8522491D01*
X22340091Y-8776491D02*
X22340091Y-8698709D01*
X22262309Y-8698709D01*
X22262309Y-8776491D01*
X22340091Y-8776491D01*
X22263100Y-5830100D02*
X22328100Y-5765100D01*
X22263100Y-5700100D01*
X22198100Y-5765100D01*
X22263100Y-5830100D01*
X22263100Y-6330100D02*
X22328100Y-6265100D01*
X22263100Y-6200100D01*
X22198100Y-6265100D01*
X22263100Y-6330100D01*
X22263100Y-6830100D02*
X22328100Y-6765100D01*
X22263100Y-6700100D01*
X22198100Y-6765100D01*
X22263100Y-6830100D01*
X22263100Y-7330100D02*
X22328100Y-7265100D01*
X22263100Y-7200100D01*
X22198100Y-7265100D01*
X22263100Y-7330100D01*
X17335500Y-7023900D02*
X17400500Y-6958900D01*
X17335500Y-6893900D01*
X17270500Y-6958900D01*
X17335500Y-7023900D01*
X17335500Y-7523900D02*
X17400500Y-7458900D01*
X17335500Y-7393900D01*
X17270500Y-7458900D01*
X17335500Y-7523900D01*
X17335500Y-8023900D02*
X17400500Y-7958900D01*
X17335500Y-7893900D01*
X17270500Y-7958900D01*
X17335500Y-8023900D01*
X17335500Y-8523900D02*
X17400500Y-8458900D01*
X17335500Y-8393900D01*
X17270500Y-8458900D01*
X17335500Y-8523900D01*
X16918100Y-13330900D02*
X17268100Y-13680900D01*
X17268100Y-13330900D02*
X16918100Y-13680900D01*
X17268100Y-13505900D02*
G75*
G03X17268100Y-13505900I-175000J0D01*
G01*
X22418100Y-13330900D02*
X22768100Y-13680900D01*
X22768100Y-13330900D02*
X22418100Y-13680900D01*
X22768100Y-13505900D02*
G75*
G03X22768100Y-13505900I-175000J0D01*
G01*
X16918100Y-4840900D02*
X17268100Y-5190900D01*
X17268100Y-4840900D02*
X16918100Y-5190900D01*
X17268100Y-5015900D02*
G75*
G03X17268100Y-5015900I-175000J0D01*
G01*
X22418100Y-4840900D02*
X22768100Y-5190900D01*
X22768100Y-4840900D02*
X22418100Y-5190900D01*
X22768100Y-5015900D02*
G75*
G03X22768100Y-5015900I-175000J0D01*
G01*
D12*
X16954028Y-14405114D02*
X16954028Y-14105114D01*
X17025457Y-14105114D01*
X17068314Y-14119400D01*
X17096886Y-14147971D01*
X17111171Y-14176543D01*
X17125457Y-14233686D01*
X17125457Y-14276543D01*
X17111171Y-14333686D01*
X17096886Y-14362257D01*
X17068314Y-14390829D01*
X17025457Y-14405114D01*
X16954028Y-14405114D01*
X17254028Y-14405114D02*
X17254028Y-14205114D01*
X17254028Y-14262257D02*
X17268314Y-14233686D01*
X17282600Y-14219400D01*
X17311171Y-14205114D01*
X17339743Y-14205114D01*
X17439743Y-14405114D02*
X17439743Y-14205114D01*
X17439743Y-14105114D02*
X17425457Y-14119400D01*
X17439743Y-14133686D01*
X17454028Y-14119400D01*
X17439743Y-14105114D01*
X17439743Y-14133686D01*
X17625457Y-14405114D02*
X17596886Y-14390829D01*
X17582600Y-14362257D01*
X17582600Y-14105114D01*
X17782600Y-14405114D02*
X17754028Y-14390829D01*
X17739743Y-14362257D01*
X17739743Y-14105114D01*
X18125457Y-14405114D02*
X18125457Y-14105114D01*
X18225457Y-14319400D01*
X18325457Y-14105114D01*
X18325457Y-14405114D01*
X18596886Y-14405114D02*
X18596886Y-14247971D01*
X18582600Y-14219400D01*
X18554028Y-14205114D01*
X18496886Y-14205114D01*
X18468314Y-14219400D01*
X18596886Y-14390829D02*
X18568314Y-14405114D01*
X18496886Y-14405114D01*
X18468314Y-14390829D01*
X18454028Y-14362257D01*
X18454028Y-14333686D01*
X18468314Y-14305114D01*
X18496886Y-14290829D01*
X18568314Y-14290829D01*
X18596886Y-14276543D01*
X18739743Y-14205114D02*
X18739743Y-14505114D01*
X18739743Y-14219400D02*
X18768314Y-14205114D01*
X18825457Y-14205114D01*
X18854028Y-14219400D01*
X18868314Y-14233686D01*
X18882600Y-14262257D01*
X18882600Y-14347971D01*
X18868314Y-14376543D01*
X18854028Y-14390829D01*
X18825457Y-14405114D01*
X18768314Y-14405114D01*
X18739743Y-14390829D01*
X19011171Y-14376543D02*
X19025457Y-14390829D01*
X19011171Y-14405114D01*
X18996886Y-14390829D01*
X19011171Y-14376543D01*
X19011171Y-14405114D01*
X19011171Y-14219400D02*
X19025457Y-14233686D01*
X19011171Y-14247971D01*
X18996886Y-14233686D01*
X19011171Y-14219400D01*
X19011171Y-14247971D01*
X16627600Y-14879400D02*
X16667600Y-14919400D01*
X16667600Y-14879400D02*
X16627600Y-14919400D01*
X17011171Y-14735114D02*
X17039743Y-14735114D01*
X17068314Y-14749400D01*
X17082600Y-14763686D01*
X17096886Y-14792257D01*
X17111171Y-14849400D01*
X17111171Y-14920829D01*
X17096886Y-14977971D01*
X17082600Y-15006543D01*
X17068314Y-15020829D01*
X17039743Y-15035114D01*
X17011171Y-15035114D01*
X16982600Y-15020829D01*
X16968314Y-15006543D01*
X16954028Y-14977971D01*
X16939743Y-14920829D01*
X16939743Y-14849400D01*
X16954028Y-14792257D01*
X16968314Y-14763686D01*
X16982600Y-14749400D01*
X17011171Y-14735114D01*
X17239743Y-15006543D02*
X17254028Y-15020829D01*
X17239743Y-15035114D01*
X17225457Y-15020829D01*
X17239743Y-15006543D01*
X17239743Y-15035114D01*
X17511171Y-14835114D02*
X17511171Y-15035114D01*
X17439743Y-14720829D02*
X17368314Y-14935114D01*
X17554028Y-14935114D01*
X17725457Y-14735114D02*
X17754028Y-14735114D01*
X17782600Y-14749400D01*
X17796886Y-14763686D01*
X17811171Y-14792257D01*
X17825457Y-14849400D01*
X17825457Y-14920829D01*
X17811171Y-14977971D01*
X17796886Y-15006543D01*
X17782600Y-15020829D01*
X17754028Y-15035114D01*
X17725457Y-15035114D01*
X17696886Y-15020829D01*
X17682600Y-15006543D01*
X17668314Y-14977971D01*
X17654028Y-14920829D01*
X17654028Y-14849400D01*
X17668314Y-14792257D01*
X17682600Y-14763686D01*
X17696886Y-14749400D01*
X17725457Y-14735114D01*
X17954028Y-15035114D02*
X17954028Y-14835114D01*
X17954028Y-14863686D02*
X17968314Y-14849400D01*
X17996886Y-14835114D01*
X18039743Y-14835114D01*
X18068314Y-14849400D01*
X18082600Y-14877971D01*
X18082600Y-15035114D01*
X18082600Y-14877971D02*
X18096886Y-14849400D01*
X18125457Y-14835114D01*
X18168314Y-14835114D01*
X18196886Y-14849400D01*
X18211171Y-14877971D01*
X18211171Y-15035114D01*
X18354028Y-15035114D02*
X18354028Y-14835114D01*
X18354028Y-14863686D02*
X18368314Y-14849400D01*
X18396886Y-14835114D01*
X18439743Y-14835114D01*
X18468314Y-14849400D01*
X18482600Y-14877971D01*
X18482600Y-15035114D01*
X18482600Y-14877971D02*
X18496886Y-14849400D01*
X18525457Y-14835114D01*
X18568314Y-14835114D01*
X18596886Y-14849400D01*
X18611171Y-14877971D01*
X18611171Y-15035114D01*
X19196886Y-14720829D02*
X18939743Y-15106543D01*
X19582600Y-14735114D02*
X19611171Y-14735114D01*
X19639743Y-14749400D01*
X19654028Y-14763686D01*
X19668314Y-14792257D01*
X19682600Y-14849400D01*
X19682600Y-14920829D01*
X19668314Y-14977971D01*
X19654028Y-15006543D01*
X19639743Y-15020829D01*
X19611171Y-15035114D01*
X19582600Y-15035114D01*
X19554028Y-15020829D01*
X19539743Y-15006543D01*
X19525457Y-14977971D01*
X19511171Y-14920829D01*
X19511171Y-14849400D01*
X19525457Y-14792257D01*
X19539743Y-14763686D01*
X19554028Y-14749400D01*
X19582600Y-14735114D01*
X19811171Y-15006543D02*
X19825457Y-15020829D01*
X19811171Y-15035114D01*
X19796886Y-15020829D01*
X19811171Y-15006543D01*
X19811171Y-15035114D01*
X20011171Y-14735114D02*
X20039743Y-14735114D01*
X20068314Y-14749400D01*
X20082600Y-14763686D01*
X20096886Y-14792257D01*
X20111171Y-14849400D01*
X20111171Y-14920829D01*
X20096886Y-14977971D01*
X20082600Y-15006543D01*
X20068314Y-15020829D01*
X20039743Y-15035114D01*
X20011171Y-15035114D01*
X19982600Y-15020829D01*
X19968314Y-15006543D01*
X19954028Y-14977971D01*
X19939743Y-14920829D01*
X19939743Y-14849400D01*
X19954028Y-14792257D01*
X19968314Y-14763686D01*
X19982600Y-14749400D01*
X20011171Y-14735114D01*
X20396886Y-15035114D02*
X20225457Y-15035114D01*
X20311171Y-15035114D02*
X20311171Y-14735114D01*
X20282600Y-14777971D01*
X20254028Y-14806543D01*
X20225457Y-14820829D01*
X20654028Y-14735114D02*
X20596886Y-14735114D01*
X20568314Y-14749400D01*
X20554028Y-14763686D01*
X20525457Y-14806543D01*
X20511171Y-14863686D01*
X20511171Y-14977971D01*
X20525457Y-15006543D01*
X20539743Y-15020829D01*
X20568314Y-15035114D01*
X20625457Y-15035114D01*
X20654028Y-15020829D01*
X20668314Y-15006543D01*
X20682600Y-14977971D01*
X20682600Y-14906543D01*
X20668314Y-14877971D01*
X20654028Y-14863686D01*
X20625457Y-14849400D01*
X20568314Y-14849400D01*
X20539743Y-14863686D01*
X20525457Y-14877971D01*
X20511171Y-14906543D01*
X20796886Y-14735114D02*
X20796886Y-14792257D01*
X20911171Y-14735114D02*
X20911171Y-14792257D01*
X21354028Y-15149400D02*
X21339743Y-15135114D01*
X21311171Y-15092257D01*
X21296886Y-15063686D01*
X21282600Y-15020829D01*
X21268314Y-14949400D01*
X21268314Y-14892257D01*
X21282600Y-14820829D01*
X21296886Y-14777971D01*
X21311171Y-14749400D01*
X21339743Y-14706543D01*
X21354028Y-14692257D01*
X21625457Y-15035114D02*
X21454028Y-15035114D01*
X21539743Y-15035114D02*
X21539743Y-14735114D01*
X21511171Y-14777971D01*
X21482600Y-14806543D01*
X21454028Y-14820829D01*
X21882600Y-14835114D02*
X21882600Y-15035114D01*
X21811171Y-14720829D02*
X21739743Y-14935114D01*
X21925457Y-14935114D01*
X22168314Y-14835114D02*
X22168314Y-15035114D01*
X22096886Y-14720829D02*
X22025457Y-14935114D01*
X22211171Y-14935114D01*
X22554028Y-15035114D02*
X22554028Y-14735114D01*
X22682600Y-15035114D02*
X22682600Y-14877971D01*
X22668314Y-14849400D01*
X22639743Y-14835114D01*
X22596886Y-14835114D01*
X22568314Y-14849400D01*
X22554028Y-14863686D01*
X22868314Y-15035114D02*
X22839743Y-15020829D01*
X22825457Y-15006543D01*
X22811171Y-14977971D01*
X22811171Y-14892257D01*
X22825457Y-14863686D01*
X22839743Y-14849400D01*
X22868314Y-14835114D01*
X22911171Y-14835114D01*
X22939743Y-14849400D01*
X22954028Y-14863686D01*
X22968314Y-14892257D01*
X22968314Y-14977971D01*
X22954028Y-15006543D01*
X22939743Y-15020829D01*
X22911171Y-15035114D01*
X22868314Y-15035114D01*
X23139743Y-15035114D02*
X23111171Y-15020829D01*
X23096886Y-14992257D01*
X23096886Y-14735114D01*
X23368314Y-15020829D02*
X23339743Y-15035114D01*
X23282600Y-15035114D01*
X23254028Y-15020829D01*
X23239743Y-14992257D01*
X23239743Y-14877971D01*
X23254028Y-14849400D01*
X23282600Y-14835114D01*
X23339743Y-14835114D01*
X23368314Y-14849400D01*
X23382600Y-14877971D01*
X23382600Y-14906543D01*
X23239743Y-14935114D01*
X23496886Y-15020829D02*
X23525457Y-15035114D01*
X23582600Y-15035114D01*
X23611171Y-15020829D01*
X23625457Y-14992257D01*
X23625457Y-14977971D01*
X23611171Y-14949400D01*
X23582600Y-14935114D01*
X23539743Y-14935114D01*
X23511171Y-14920829D01*
X23496886Y-14892257D01*
X23496886Y-14877971D01*
X23511171Y-14849400D01*
X23539743Y-14835114D01*
X23582600Y-14835114D01*
X23611171Y-14849400D01*
X23725457Y-15149400D02*
X23739743Y-15135114D01*
X23768314Y-15092257D01*
X23782600Y-15063686D01*
X23796886Y-15020829D01*
X23811171Y-14949400D01*
X23811171Y-14892257D01*
X23796886Y-14820829D01*
X23782600Y-14777971D01*
X23768314Y-14749400D01*
X23739743Y-14706543D01*
X23725457Y-14692257D01*
X16667600Y-15295400D02*
G75*
G03X16667600Y-15295400I-25000J0D01*
G01*
X17011171Y-15131114D02*
X17039743Y-15131114D01*
X17068314Y-15145400D01*
X17082600Y-15159686D01*
X17096886Y-15188257D01*
X17111171Y-15245400D01*
X17111171Y-15316829D01*
X17096886Y-15373971D01*
X17082600Y-15402543D01*
X17068314Y-15416829D01*
X17039743Y-15431114D01*
X17011171Y-15431114D01*
X16982600Y-15416829D01*
X16968314Y-15402543D01*
X16954028Y-15373971D01*
X16939743Y-15316829D01*
X16939743Y-15245400D01*
X16954028Y-15188257D01*
X16968314Y-15159686D01*
X16982600Y-15145400D01*
X17011171Y-15131114D01*
X17239743Y-15402543D02*
X17254028Y-15416829D01*
X17239743Y-15431114D01*
X17225457Y-15416829D01*
X17239743Y-15402543D01*
X17239743Y-15431114D01*
X17525457Y-15131114D02*
X17382600Y-15131114D01*
X17368314Y-15273971D01*
X17382600Y-15259686D01*
X17411171Y-15245400D01*
X17482600Y-15245400D01*
X17511171Y-15259686D01*
X17525457Y-15273971D01*
X17539743Y-15302543D01*
X17539743Y-15373971D01*
X17525457Y-15402543D01*
X17511171Y-15416829D01*
X17482600Y-15431114D01*
X17411171Y-15431114D01*
X17382600Y-15416829D01*
X17368314Y-15402543D01*
X17725457Y-15131114D02*
X17754028Y-15131114D01*
X17782600Y-15145400D01*
X17796886Y-15159686D01*
X17811171Y-15188257D01*
X17825457Y-15245400D01*
X17825457Y-15316829D01*
X17811171Y-15373971D01*
X17796886Y-15402543D01*
X17782600Y-15416829D01*
X17754028Y-15431114D01*
X17725457Y-15431114D01*
X17696886Y-15416829D01*
X17682600Y-15402543D01*
X17668314Y-15373971D01*
X17654028Y-15316829D01*
X17654028Y-15245400D01*
X17668314Y-15188257D01*
X17682600Y-15159686D01*
X17696886Y-15145400D01*
X17725457Y-15131114D01*
X17954028Y-15431114D02*
X17954028Y-15231114D01*
X17954028Y-15259686D02*
X17968314Y-15245400D01*
X17996886Y-15231114D01*
X18039743Y-15231114D01*
X18068314Y-15245400D01*
X18082600Y-15273971D01*
X18082600Y-15431114D01*
X18082600Y-15273971D02*
X18096886Y-15245400D01*
X18125457Y-15231114D01*
X18168314Y-15231114D01*
X18196886Y-15245400D01*
X18211171Y-15273971D01*
X18211171Y-15431114D01*
X18354028Y-15431114D02*
X18354028Y-15231114D01*
X18354028Y-15259686D02*
X18368314Y-15245400D01*
X18396886Y-15231114D01*
X18439743Y-15231114D01*
X18468314Y-15245400D01*
X18482600Y-15273971D01*
X18482600Y-15431114D01*
X18482600Y-15273971D02*
X18496886Y-15245400D01*
X18525457Y-15231114D01*
X18568314Y-15231114D01*
X18596886Y-15245400D01*
X18611171Y-15273971D01*
X18611171Y-15431114D01*
X19196886Y-15116829D02*
X18939743Y-15502543D01*
X19582600Y-15131114D02*
X19611171Y-15131114D01*
X19639743Y-15145400D01*
X19654028Y-15159686D01*
X19668314Y-15188257D01*
X19682600Y-15245400D01*
X19682600Y-15316829D01*
X19668314Y-15373971D01*
X19654028Y-15402543D01*
X19639743Y-15416829D01*
X19611171Y-15431114D01*
X19582600Y-15431114D01*
X19554028Y-15416829D01*
X19539743Y-15402543D01*
X19525457Y-15373971D01*
X19511171Y-15316829D01*
X19511171Y-15245400D01*
X19525457Y-15188257D01*
X19539743Y-15159686D01*
X19554028Y-15145400D01*
X19582600Y-15131114D01*
X19811171Y-15402543D02*
X19825457Y-15416829D01*
X19811171Y-15431114D01*
X19796886Y-15416829D01*
X19811171Y-15402543D01*
X19811171Y-15431114D01*
X20011171Y-15131114D02*
X20039743Y-15131114D01*
X20068314Y-15145400D01*
X20082600Y-15159686D01*
X20096886Y-15188257D01*
X20111171Y-15245400D01*
X20111171Y-15316829D01*
X20096886Y-15373971D01*
X20082600Y-15402543D01*
X20068314Y-15416829D01*
X20039743Y-15431114D01*
X20011171Y-15431114D01*
X19982600Y-15416829D01*
X19968314Y-15402543D01*
X19954028Y-15373971D01*
X19939743Y-15316829D01*
X19939743Y-15245400D01*
X19954028Y-15188257D01*
X19968314Y-15159686D01*
X19982600Y-15145400D01*
X20011171Y-15131114D01*
X20225457Y-15159686D02*
X20239743Y-15145400D01*
X20268314Y-15131114D01*
X20339743Y-15131114D01*
X20368314Y-15145400D01*
X20382600Y-15159686D01*
X20396886Y-15188257D01*
X20396886Y-15216829D01*
X20382600Y-15259686D01*
X20211171Y-15431114D01*
X20396886Y-15431114D01*
X20582600Y-15131114D02*
X20611171Y-15131114D01*
X20639743Y-15145400D01*
X20654028Y-15159686D01*
X20668314Y-15188257D01*
X20682600Y-15245400D01*
X20682600Y-15316829D01*
X20668314Y-15373971D01*
X20654028Y-15402543D01*
X20639743Y-15416829D01*
X20611171Y-15431114D01*
X20582600Y-15431114D01*
X20554028Y-15416829D01*
X20539743Y-15402543D01*
X20525457Y-15373971D01*
X20511171Y-15316829D01*
X20511171Y-15245400D01*
X20525457Y-15188257D01*
X20539743Y-15159686D01*
X20554028Y-15145400D01*
X20582600Y-15131114D01*
X20796886Y-15131114D02*
X20796886Y-15188257D01*
X20911171Y-15131114D02*
X20911171Y-15188257D01*
X21354028Y-15545400D02*
X21339743Y-15531114D01*
X21311171Y-15488257D01*
X21296886Y-15459686D01*
X21282600Y-15416829D01*
X21268314Y-15345400D01*
X21268314Y-15288257D01*
X21282600Y-15216829D01*
X21296886Y-15173971D01*
X21311171Y-15145400D01*
X21339743Y-15102543D01*
X21354028Y-15088257D01*
X21525457Y-15131114D02*
X21554028Y-15131114D01*
X21582600Y-15145400D01*
X21596886Y-15159686D01*
X21611171Y-15188257D01*
X21625457Y-15245400D01*
X21625457Y-15316829D01*
X21611171Y-15373971D01*
X21596886Y-15402543D01*
X21582600Y-15416829D01*
X21554028Y-15431114D01*
X21525457Y-15431114D01*
X21496886Y-15416829D01*
X21482600Y-15402543D01*
X21468314Y-15373971D01*
X21454028Y-15316829D01*
X21454028Y-15245400D01*
X21468314Y-15188257D01*
X21482600Y-15159686D01*
X21496886Y-15145400D01*
X21525457Y-15131114D01*
X21982600Y-15431114D02*
X21982600Y-15131114D01*
X22111171Y-15431114D02*
X22111171Y-15273971D01*
X22096886Y-15245400D01*
X22068314Y-15231114D01*
X22025457Y-15231114D01*
X21996886Y-15245400D01*
X21982600Y-15259686D01*
X22296886Y-15431114D02*
X22268314Y-15416829D01*
X22254028Y-15402543D01*
X22239743Y-15373971D01*
X22239743Y-15288257D01*
X22254028Y-15259686D01*
X22268314Y-15245400D01*
X22296886Y-15231114D01*
X22339743Y-15231114D01*
X22368314Y-15245400D01*
X22382600Y-15259686D01*
X22396886Y-15288257D01*
X22396886Y-15373971D01*
X22382600Y-15402543D01*
X22368314Y-15416829D01*
X22339743Y-15431114D01*
X22296886Y-15431114D01*
X22568314Y-15431114D02*
X22539743Y-15416829D01*
X22525457Y-15388257D01*
X22525457Y-15131114D01*
X22796886Y-15416829D02*
X22768314Y-15431114D01*
X22711171Y-15431114D01*
X22682600Y-15416829D01*
X22668314Y-15388257D01*
X22668314Y-15273971D01*
X22682600Y-15245400D01*
X22711171Y-15231114D01*
X22768314Y-15231114D01*
X22796886Y-15245400D01*
X22811171Y-15273971D01*
X22811171Y-15302543D01*
X22668314Y-15331114D01*
X22925457Y-15416829D02*
X22954028Y-15431114D01*
X23011171Y-15431114D01*
X23039743Y-15416829D01*
X23054028Y-15388257D01*
X23054028Y-15373971D01*
X23039743Y-15345400D01*
X23011171Y-15331114D01*
X22968314Y-15331114D01*
X22939743Y-15316829D01*
X22925457Y-15288257D01*
X22925457Y-15273971D01*
X22939743Y-15245400D01*
X22968314Y-15231114D01*
X23011171Y-15231114D01*
X23039743Y-15245400D01*
X23411171Y-15316829D02*
X23639743Y-15316829D01*
X23525457Y-15431114D02*
X23525457Y-15202543D01*
X23996886Y-15159686D02*
X24011171Y-15145400D01*
X24039743Y-15131114D01*
X24111171Y-15131114D01*
X24139743Y-15145400D01*
X24154028Y-15159686D01*
X24168314Y-15188257D01*
X24168314Y-15216829D01*
X24154028Y-15259686D01*
X23982600Y-15431114D01*
X24168314Y-15431114D01*
X24511171Y-15416829D02*
X24539743Y-15431114D01*
X24596886Y-15431114D01*
X24625457Y-15416829D01*
X24639743Y-15388257D01*
X24639743Y-15373971D01*
X24625457Y-15345400D01*
X24596886Y-15331114D01*
X24554028Y-15331114D01*
X24525457Y-15316829D01*
X24511171Y-15288257D01*
X24511171Y-15273971D01*
X24525457Y-15245400D01*
X24554028Y-15231114D01*
X24596886Y-15231114D01*
X24625457Y-15245400D01*
X24811171Y-15431114D02*
X24782600Y-15416829D01*
X24768314Y-15388257D01*
X24768314Y-15131114D01*
X24968314Y-15431114D02*
X24939743Y-15416829D01*
X24925457Y-15402543D01*
X24911171Y-15373971D01*
X24911171Y-15288257D01*
X24925457Y-15259686D01*
X24939743Y-15245400D01*
X24968314Y-15231114D01*
X25011171Y-15231114D01*
X25039743Y-15245400D01*
X25054028Y-15259686D01*
X25068314Y-15288257D01*
X25068314Y-15373971D01*
X25054028Y-15402543D01*
X25039743Y-15416829D01*
X25011171Y-15431114D01*
X24968314Y-15431114D01*
X25154028Y-15231114D02*
X25268314Y-15231114D01*
X25196886Y-15131114D02*
X25196886Y-15388257D01*
X25211171Y-15416829D01*
X25239743Y-15431114D01*
X25268314Y-15431114D01*
X25354028Y-15416829D02*
X25382600Y-15431114D01*
X25439743Y-15431114D01*
X25468314Y-15416829D01*
X25482600Y-15388257D01*
X25482600Y-15373971D01*
X25468314Y-15345400D01*
X25439743Y-15331114D01*
X25396886Y-15331114D01*
X25368314Y-15316829D01*
X25354028Y-15288257D01*
X25354028Y-15273971D01*
X25368314Y-15245400D01*
X25396886Y-15231114D01*
X25439743Y-15231114D01*
X25468314Y-15245400D01*
X25582600Y-15545400D02*
X25596886Y-15531114D01*
X25625457Y-15488257D01*
X25639743Y-15459686D01*
X25654028Y-15416829D01*
X25668314Y-15345400D01*
X25668314Y-15288257D01*
X25654028Y-15216829D01*
X25639743Y-15173971D01*
X25625457Y-15145400D01*
X25596886Y-15102543D01*
X25582600Y-15088257D01*
X16617600Y-15641400D02*
X16617600Y-15741400D01*
X16567600Y-15691400D02*
X16667600Y-15691400D01*
X17111171Y-15827114D02*
X16939743Y-15827114D01*
X17025457Y-15827114D02*
X17025457Y-15527114D01*
X16996886Y-15569971D01*
X16968314Y-15598543D01*
X16939743Y-15612829D01*
X17239743Y-15798543D02*
X17254028Y-15812829D01*
X17239743Y-15827114D01*
X17225457Y-15812829D01*
X17239743Y-15798543D01*
X17239743Y-15827114D01*
X17439743Y-15527114D02*
X17468314Y-15527114D01*
X17496886Y-15541400D01*
X17511171Y-15555686D01*
X17525457Y-15584257D01*
X17539743Y-15641400D01*
X17539743Y-15712829D01*
X17525457Y-15769971D01*
X17511171Y-15798543D01*
X17496886Y-15812829D01*
X17468314Y-15827114D01*
X17439743Y-15827114D01*
X17411171Y-15812829D01*
X17396886Y-15798543D01*
X17382600Y-15769971D01*
X17368314Y-15712829D01*
X17368314Y-15641400D01*
X17382600Y-15584257D01*
X17396886Y-15555686D01*
X17411171Y-15541400D01*
X17439743Y-15527114D01*
X17725457Y-15527114D02*
X17754028Y-15527114D01*
X17782600Y-15541400D01*
X17796886Y-15555686D01*
X17811171Y-15584257D01*
X17825457Y-15641400D01*
X17825457Y-15712829D01*
X17811171Y-15769971D01*
X17796886Y-15798543D01*
X17782600Y-15812829D01*
X17754028Y-15827114D01*
X17725457Y-15827114D01*
X17696886Y-15812829D01*
X17682600Y-15798543D01*
X17668314Y-15769971D01*
X17654028Y-15712829D01*
X17654028Y-15641400D01*
X17668314Y-15584257D01*
X17682600Y-15555686D01*
X17696886Y-15541400D01*
X17725457Y-15527114D01*
X17954028Y-15827114D02*
X17954028Y-15627114D01*
X17954028Y-15655686D02*
X17968314Y-15641400D01*
X17996886Y-15627114D01*
X18039743Y-15627114D01*
X18068314Y-15641400D01*
X18082600Y-15669971D01*
X18082600Y-15827114D01*
X18082600Y-15669971D02*
X18096886Y-15641400D01*
X18125457Y-15627114D01*
X18168314Y-15627114D01*
X18196886Y-15641400D01*
X18211171Y-15669971D01*
X18211171Y-15827114D01*
X18354028Y-15827114D02*
X18354028Y-15627114D01*
X18354028Y-15655686D02*
X18368314Y-15641400D01*
X18396886Y-15627114D01*
X18439743Y-15627114D01*
X18468314Y-15641400D01*
X18482600Y-15669971D01*
X18482600Y-15827114D01*
X18482600Y-15669971D02*
X18496886Y-15641400D01*
X18525457Y-15627114D01*
X18568314Y-15627114D01*
X18596886Y-15641400D01*
X18611171Y-15669971D01*
X18611171Y-15827114D01*
X19196886Y-15512829D02*
X18939743Y-15898543D01*
X19582600Y-15527114D02*
X19611171Y-15527114D01*
X19639743Y-15541400D01*
X19654028Y-15555686D01*
X19668314Y-15584257D01*
X19682600Y-15641400D01*
X19682600Y-15712829D01*
X19668314Y-15769971D01*
X19654028Y-15798543D01*
X19639743Y-15812829D01*
X19611171Y-15827114D01*
X19582600Y-15827114D01*
X19554028Y-15812829D01*
X19539743Y-15798543D01*
X19525457Y-15769971D01*
X19511171Y-15712829D01*
X19511171Y-15641400D01*
X19525457Y-15584257D01*
X19539743Y-15555686D01*
X19554028Y-15541400D01*
X19582600Y-15527114D01*
X19811171Y-15798543D02*
X19825457Y-15812829D01*
X19811171Y-15827114D01*
X19796886Y-15812829D01*
X19811171Y-15798543D01*
X19811171Y-15827114D01*
X20011171Y-15527114D02*
X20039743Y-15527114D01*
X20068314Y-15541400D01*
X20082600Y-15555686D01*
X20096886Y-15584257D01*
X20111171Y-15641400D01*
X20111171Y-15712829D01*
X20096886Y-15769971D01*
X20082600Y-15798543D01*
X20068314Y-15812829D01*
X20039743Y-15827114D01*
X20011171Y-15827114D01*
X19982600Y-15812829D01*
X19968314Y-15798543D01*
X19954028Y-15769971D01*
X19939743Y-15712829D01*
X19939743Y-15641400D01*
X19954028Y-15584257D01*
X19968314Y-15555686D01*
X19982600Y-15541400D01*
X20011171Y-15527114D01*
X20211171Y-15527114D02*
X20396886Y-15527114D01*
X20296886Y-15641400D01*
X20339743Y-15641400D01*
X20368314Y-15655686D01*
X20382600Y-15669971D01*
X20396886Y-15698543D01*
X20396886Y-15769971D01*
X20382600Y-15798543D01*
X20368314Y-15812829D01*
X20339743Y-15827114D01*
X20254028Y-15827114D01*
X20225457Y-15812829D01*
X20211171Y-15798543D01*
X20539743Y-15827114D02*
X20596886Y-15827114D01*
X20625457Y-15812829D01*
X20639743Y-15798543D01*
X20668314Y-15755686D01*
X20682600Y-15698543D01*
X20682600Y-15584257D01*
X20668314Y-15555686D01*
X20654028Y-15541400D01*
X20625457Y-15527114D01*
X20568314Y-15527114D01*
X20539743Y-15541400D01*
X20525457Y-15555686D01*
X20511171Y-15584257D01*
X20511171Y-15655686D01*
X20525457Y-15684257D01*
X20539743Y-15698543D01*
X20568314Y-15712829D01*
X20625457Y-15712829D01*
X20654028Y-15698543D01*
X20668314Y-15684257D01*
X20682600Y-15655686D01*
X20796886Y-15527114D02*
X20796886Y-15584257D01*
X20911171Y-15527114D02*
X20911171Y-15584257D01*
X21354028Y-15941400D02*
X21339743Y-15927114D01*
X21311171Y-15884257D01*
X21296886Y-15855686D01*
X21282600Y-15812829D01*
X21268314Y-15741400D01*
X21268314Y-15684257D01*
X21282600Y-15612829D01*
X21296886Y-15569971D01*
X21311171Y-15541400D01*
X21339743Y-15498543D01*
X21354028Y-15484257D01*
X21625457Y-15827114D02*
X21454028Y-15827114D01*
X21539743Y-15827114D02*
X21539743Y-15527114D01*
X21511171Y-15569971D01*
X21482600Y-15598543D01*
X21454028Y-15612829D01*
X21796886Y-15655686D02*
X21768314Y-15641400D01*
X21754028Y-15627114D01*
X21739743Y-15598543D01*
X21739743Y-15584257D01*
X21754028Y-15555686D01*
X21768314Y-15541400D01*
X21796886Y-15527114D01*
X21854028Y-15527114D01*
X21882600Y-15541400D01*
X21896886Y-15555686D01*
X21911171Y-15584257D01*
X21911171Y-15598543D01*
X21896886Y-15627114D01*
X21882600Y-15641400D01*
X21854028Y-15655686D01*
X21796886Y-15655686D01*
X21768314Y-15669971D01*
X21754028Y-15684257D01*
X21739743Y-15712829D01*
X21739743Y-15769971D01*
X21754028Y-15798543D01*
X21768314Y-15812829D01*
X21796886Y-15827114D01*
X21854028Y-15827114D01*
X21882600Y-15812829D01*
X21896886Y-15798543D01*
X21911171Y-15769971D01*
X21911171Y-15712829D01*
X21896886Y-15684257D01*
X21882600Y-15669971D01*
X21854028Y-15655686D01*
X22268314Y-15827114D02*
X22268314Y-15527114D01*
X22396886Y-15827114D02*
X22396886Y-15669971D01*
X22382600Y-15641400D01*
X22354028Y-15627114D01*
X22311171Y-15627114D01*
X22282600Y-15641400D01*
X22268314Y-15655686D01*
X22582600Y-15827114D02*
X22554028Y-15812829D01*
X22539743Y-15798543D01*
X22525457Y-15769971D01*
X22525457Y-15684257D01*
X22539743Y-15655686D01*
X22554028Y-15641400D01*
X22582600Y-15627114D01*
X22625457Y-15627114D01*
X22654028Y-15641400D01*
X22668314Y-15655686D01*
X22682600Y-15684257D01*
X22682600Y-15769971D01*
X22668314Y-15798543D01*
X22654028Y-15812829D01*
X22625457Y-15827114D01*
X22582600Y-15827114D01*
X22854028Y-15827114D02*
X22825457Y-15812829D01*
X22811171Y-15784257D01*
X22811171Y-15527114D01*
X23082600Y-15812829D02*
X23054028Y-15827114D01*
X22996886Y-15827114D01*
X22968314Y-15812829D01*
X22954028Y-15784257D01*
X22954028Y-15669971D01*
X22968314Y-15641400D01*
X22996886Y-15627114D01*
X23054028Y-15627114D01*
X23082600Y-15641400D01*
X23096886Y-15669971D01*
X23096886Y-15698543D01*
X22954028Y-15727114D01*
X23211171Y-15812829D02*
X23239743Y-15827114D01*
X23296886Y-15827114D01*
X23325457Y-15812829D01*
X23339743Y-15784257D01*
X23339743Y-15769971D01*
X23325457Y-15741400D01*
X23296886Y-15727114D01*
X23254028Y-15727114D01*
X23225457Y-15712829D01*
X23211171Y-15684257D01*
X23211171Y-15669971D01*
X23225457Y-15641400D01*
X23254028Y-15627114D01*
X23296886Y-15627114D01*
X23325457Y-15641400D01*
X23696886Y-15712829D02*
X23925457Y-15712829D01*
X23811171Y-15827114D02*
X23811171Y-15598543D01*
X24425457Y-15627114D02*
X24425457Y-15827114D01*
X24354028Y-15512829D02*
X24282600Y-15727114D01*
X24468314Y-15727114D01*
X24796886Y-15812829D02*
X24825457Y-15827114D01*
X24882600Y-15827114D01*
X24911171Y-15812829D01*
X24925457Y-15784257D01*
X24925457Y-15769971D01*
X24911171Y-15741400D01*
X24882600Y-15727114D01*
X24839743Y-15727114D01*
X24811171Y-15712829D01*
X24796886Y-15684257D01*
X24796886Y-15669971D01*
X24811171Y-15641400D01*
X24839743Y-15627114D01*
X24882600Y-15627114D01*
X24911171Y-15641400D01*
X25096886Y-15827114D02*
X25068314Y-15812829D01*
X25054028Y-15784257D01*
X25054028Y-15527114D01*
X25254028Y-15827114D02*
X25225457Y-15812829D01*
X25211171Y-15798543D01*
X25196886Y-15769971D01*
X25196886Y-15684257D01*
X25211171Y-15655686D01*
X25225457Y-15641400D01*
X25254028Y-15627114D01*
X25296886Y-15627114D01*
X25325457Y-15641400D01*
X25339743Y-15655686D01*
X25354028Y-15684257D01*
X25354028Y-15769971D01*
X25339743Y-15798543D01*
X25325457Y-15812829D01*
X25296886Y-15827114D01*
X25254028Y-15827114D01*
X25439743Y-15627114D02*
X25554028Y-15627114D01*
X25482600Y-15527114D02*
X25482600Y-15784257D01*
X25496886Y-15812829D01*
X25525457Y-15827114D01*
X25554028Y-15827114D01*
X25639743Y-15812829D02*
X25668314Y-15827114D01*
X25725457Y-15827114D01*
X25754028Y-15812829D01*
X25768314Y-15784257D01*
X25768314Y-15769971D01*
X25754028Y-15741400D01*
X25725457Y-15727114D01*
X25682600Y-15727114D01*
X25654028Y-15712829D01*
X25639743Y-15684257D01*
X25639743Y-15669971D01*
X25654028Y-15641400D01*
X25682600Y-15627114D01*
X25725457Y-15627114D01*
X25754028Y-15641400D01*
X25868314Y-15941400D02*
X25882600Y-15927114D01*
X25911171Y-15884257D01*
X25925457Y-15855686D01*
X25939743Y-15812829D01*
X25954028Y-15741400D01*
X25954028Y-15684257D01*
X25939743Y-15612829D01*
X25925457Y-15569971D01*
X25911171Y-15541400D01*
X25882600Y-15498543D01*
X25868314Y-15484257D01*
X16651491Y-16126291D02*
X16651491Y-16048509D01*
X16573709Y-16048509D01*
X16573709Y-16126291D01*
X16651491Y-16126291D01*
X17111171Y-16223114D02*
X16939743Y-16223114D01*
X17025457Y-16223114D02*
X17025457Y-15923114D01*
X16996886Y-15965971D01*
X16968314Y-15994543D01*
X16939743Y-16008829D01*
X17239743Y-16194543D02*
X17254028Y-16208829D01*
X17239743Y-16223114D01*
X17225457Y-16208829D01*
X17239743Y-16194543D01*
X17239743Y-16223114D01*
X17539743Y-16223114D02*
X17368314Y-16223114D01*
X17454028Y-16223114D02*
X17454028Y-15923114D01*
X17425457Y-15965971D01*
X17396886Y-15994543D01*
X17368314Y-16008829D01*
X17725457Y-15923114D02*
X17754028Y-15923114D01*
X17782600Y-15937400D01*
X17796886Y-15951686D01*
X17811171Y-15980257D01*
X17825457Y-16037400D01*
X17825457Y-16108829D01*
X17811171Y-16165971D01*
X17796886Y-16194543D01*
X17782600Y-16208829D01*
X17754028Y-16223114D01*
X17725457Y-16223114D01*
X17696886Y-16208829D01*
X17682600Y-16194543D01*
X17668314Y-16165971D01*
X17654028Y-16108829D01*
X17654028Y-16037400D01*
X17668314Y-15980257D01*
X17682600Y-15951686D01*
X17696886Y-15937400D01*
X17725457Y-15923114D01*
X17954028Y-16223114D02*
X17954028Y-16023114D01*
X17954028Y-16051686D02*
X17968314Y-16037400D01*
X17996886Y-16023114D01*
X18039743Y-16023114D01*
X18068314Y-16037400D01*
X18082600Y-16065971D01*
X18082600Y-16223114D01*
X18082600Y-16065971D02*
X18096886Y-16037400D01*
X18125457Y-16023114D01*
X18168314Y-16023114D01*
X18196886Y-16037400D01*
X18211171Y-16065971D01*
X18211171Y-16223114D01*
X18354028Y-16223114D02*
X18354028Y-16023114D01*
X18354028Y-16051686D02*
X18368314Y-16037400D01*
X18396886Y-16023114D01*
X18439743Y-16023114D01*
X18468314Y-16037400D01*
X18482600Y-16065971D01*
X18482600Y-16223114D01*
X18482600Y-16065971D02*
X18496886Y-16037400D01*
X18525457Y-16023114D01*
X18568314Y-16023114D01*
X18596886Y-16037400D01*
X18611171Y-16065971D01*
X18611171Y-16223114D01*
X19196886Y-15908829D02*
X18939743Y-16294543D01*
X19582600Y-15923114D02*
X19611171Y-15923114D01*
X19639743Y-15937400D01*
X19654028Y-15951686D01*
X19668314Y-15980257D01*
X19682600Y-16037400D01*
X19682600Y-16108829D01*
X19668314Y-16165971D01*
X19654028Y-16194543D01*
X19639743Y-16208829D01*
X19611171Y-16223114D01*
X19582600Y-16223114D01*
X19554028Y-16208829D01*
X19539743Y-16194543D01*
X19525457Y-16165971D01*
X19511171Y-16108829D01*
X19511171Y-16037400D01*
X19525457Y-15980257D01*
X19539743Y-15951686D01*
X19554028Y-15937400D01*
X19582600Y-15923114D01*
X19811171Y-16194543D02*
X19825457Y-16208829D01*
X19811171Y-16223114D01*
X19796886Y-16208829D01*
X19811171Y-16194543D01*
X19811171Y-16223114D01*
X20011171Y-15923114D02*
X20039743Y-15923114D01*
X20068314Y-15937400D01*
X20082600Y-15951686D01*
X20096886Y-15980257D01*
X20111171Y-16037400D01*
X20111171Y-16108829D01*
X20096886Y-16165971D01*
X20082600Y-16194543D01*
X20068314Y-16208829D01*
X20039743Y-16223114D01*
X20011171Y-16223114D01*
X19982600Y-16208829D01*
X19968314Y-16194543D01*
X19954028Y-16165971D01*
X19939743Y-16108829D01*
X19939743Y-16037400D01*
X19954028Y-15980257D01*
X19968314Y-15951686D01*
X19982600Y-15937400D01*
X20011171Y-15923114D01*
X20368314Y-16023114D02*
X20368314Y-16223114D01*
X20296886Y-15908829D02*
X20225457Y-16123114D01*
X20411171Y-16123114D01*
X20496886Y-15923114D02*
X20682600Y-15923114D01*
X20582600Y-16037400D01*
X20625457Y-16037400D01*
X20654028Y-16051686D01*
X20668314Y-16065971D01*
X20682600Y-16094543D01*
X20682600Y-16165971D01*
X20668314Y-16194543D01*
X20654028Y-16208829D01*
X20625457Y-16223114D01*
X20539743Y-16223114D01*
X20511171Y-16208829D01*
X20496886Y-16194543D01*
X20796886Y-15923114D02*
X20796886Y-15980257D01*
X20911171Y-15923114D02*
X20911171Y-15980257D01*
X21354028Y-16337400D02*
X21339743Y-16323114D01*
X21311171Y-16280257D01*
X21296886Y-16251686D01*
X21282600Y-16208829D01*
X21268314Y-16137400D01*
X21268314Y-16080257D01*
X21282600Y-16008829D01*
X21296886Y-15965971D01*
X21311171Y-15937400D01*
X21339743Y-15894543D01*
X21354028Y-15880257D01*
X21625457Y-16223114D02*
X21454028Y-16223114D01*
X21539743Y-16223114D02*
X21539743Y-15923114D01*
X21511171Y-15965971D01*
X21482600Y-15994543D01*
X21454028Y-16008829D01*
X21811171Y-15923114D02*
X21839743Y-15923114D01*
X21868314Y-15937400D01*
X21882600Y-15951686D01*
X21896886Y-15980257D01*
X21911171Y-16037400D01*
X21911171Y-16108829D01*
X21896886Y-16165971D01*
X21882600Y-16194543D01*
X21868314Y-16208829D01*
X21839743Y-16223114D01*
X21811171Y-16223114D01*
X21782600Y-16208829D01*
X21768314Y-16194543D01*
X21754028Y-16165971D01*
X21739743Y-16108829D01*
X21739743Y-16037400D01*
X21754028Y-15980257D01*
X21768314Y-15951686D01*
X21782600Y-15937400D01*
X21811171Y-15923114D01*
X22268314Y-16223114D02*
X22268314Y-15923114D01*
X22396886Y-16223114D02*
X22396886Y-16065971D01*
X22382600Y-16037400D01*
X22354028Y-16023114D01*
X22311171Y-16023114D01*
X22282600Y-16037400D01*
X22268314Y-16051686D01*
X22582600Y-16223114D02*
X22554028Y-16208829D01*
X22539743Y-16194543D01*
X22525457Y-16165971D01*
X22525457Y-16080257D01*
X22539743Y-16051686D01*
X22554028Y-16037400D01*
X22582600Y-16023114D01*
X22625457Y-16023114D01*
X22654028Y-16037400D01*
X22668314Y-16051686D01*
X22682600Y-16080257D01*
X22682600Y-16165971D01*
X22668314Y-16194543D01*
X22654028Y-16208829D01*
X22625457Y-16223114D01*
X22582600Y-16223114D01*
X22854028Y-16223114D02*
X22825457Y-16208829D01*
X22811171Y-16180257D01*
X22811171Y-15923114D01*
X23082600Y-16208829D02*
X23054028Y-16223114D01*
X22996886Y-16223114D01*
X22968314Y-16208829D01*
X22954028Y-16180257D01*
X22954028Y-16065971D01*
X22968314Y-16037400D01*
X22996886Y-16023114D01*
X23054028Y-16023114D01*
X23082600Y-16037400D01*
X23096886Y-16065971D01*
X23096886Y-16094543D01*
X22954028Y-16123114D01*
X23211171Y-16208829D02*
X23239743Y-16223114D01*
X23296886Y-16223114D01*
X23325457Y-16208829D01*
X23339743Y-16180257D01*
X23339743Y-16165971D01*
X23325457Y-16137400D01*
X23296886Y-16123114D01*
X23254028Y-16123114D01*
X23225457Y-16108829D01*
X23211171Y-16080257D01*
X23211171Y-16065971D01*
X23225457Y-16037400D01*
X23254028Y-16023114D01*
X23296886Y-16023114D01*
X23325457Y-16037400D01*
X23439743Y-16337400D02*
X23454028Y-16323114D01*
X23482600Y-16280257D01*
X23496886Y-16251686D01*
X23511171Y-16208829D01*
X23525457Y-16137400D01*
X23525457Y-16080257D01*
X23511171Y-16008829D01*
X23496886Y-15965971D01*
X23482600Y-15937400D01*
X23454028Y-15894543D01*
X23439743Y-15880257D01*
X16602600Y-16548400D02*
X16667600Y-16483400D01*
X16602600Y-16418400D01*
X16537600Y-16483400D01*
X16602600Y-16548400D01*
X17111171Y-16619114D02*
X16939743Y-16619114D01*
X17025457Y-16619114D02*
X17025457Y-16319114D01*
X16996886Y-16361971D01*
X16968314Y-16390543D01*
X16939743Y-16404829D01*
X17239743Y-16590543D02*
X17254028Y-16604829D01*
X17239743Y-16619114D01*
X17225457Y-16604829D01*
X17239743Y-16590543D01*
X17239743Y-16619114D01*
X17354028Y-16319114D02*
X17539743Y-16319114D01*
X17439743Y-16433400D01*
X17482600Y-16433400D01*
X17511171Y-16447686D01*
X17525457Y-16461971D01*
X17539743Y-16490543D01*
X17539743Y-16561971D01*
X17525457Y-16590543D01*
X17511171Y-16604829D01*
X17482600Y-16619114D01*
X17396886Y-16619114D01*
X17368314Y-16604829D01*
X17354028Y-16590543D01*
X17725457Y-16319114D02*
X17754028Y-16319114D01*
X17782600Y-16333400D01*
X17796886Y-16347686D01*
X17811171Y-16376257D01*
X17825457Y-16433400D01*
X17825457Y-16504829D01*
X17811171Y-16561971D01*
X17796886Y-16590543D01*
X17782600Y-16604829D01*
X17754028Y-16619114D01*
X17725457Y-16619114D01*
X17696886Y-16604829D01*
X17682600Y-16590543D01*
X17668314Y-16561971D01*
X17654028Y-16504829D01*
X17654028Y-16433400D01*
X17668314Y-16376257D01*
X17682600Y-16347686D01*
X17696886Y-16333400D01*
X17725457Y-16319114D01*
X17954028Y-16619114D02*
X17954028Y-16419114D01*
X17954028Y-16447686D02*
X17968314Y-16433400D01*
X17996886Y-16419114D01*
X18039743Y-16419114D01*
X18068314Y-16433400D01*
X18082600Y-16461971D01*
X18082600Y-16619114D01*
X18082600Y-16461971D02*
X18096886Y-16433400D01*
X18125457Y-16419114D01*
X18168314Y-16419114D01*
X18196886Y-16433400D01*
X18211171Y-16461971D01*
X18211171Y-16619114D01*
X18354028Y-16619114D02*
X18354028Y-16419114D01*
X18354028Y-16447686D02*
X18368314Y-16433400D01*
X18396886Y-16419114D01*
X18439743Y-16419114D01*
X18468314Y-16433400D01*
X18482600Y-16461971D01*
X18482600Y-16619114D01*
X18482600Y-16461971D02*
X18496886Y-16433400D01*
X18525457Y-16419114D01*
X18568314Y-16419114D01*
X18596886Y-16433400D01*
X18611171Y-16461971D01*
X18611171Y-16619114D01*
X19196886Y-16304829D02*
X18939743Y-16690543D01*
X19582600Y-16319114D02*
X19611171Y-16319114D01*
X19639743Y-16333400D01*
X19654028Y-16347686D01*
X19668314Y-16376257D01*
X19682600Y-16433400D01*
X19682600Y-16504829D01*
X19668314Y-16561971D01*
X19654028Y-16590543D01*
X19639743Y-16604829D01*
X19611171Y-16619114D01*
X19582600Y-16619114D01*
X19554028Y-16604829D01*
X19539743Y-16590543D01*
X19525457Y-16561971D01*
X19511171Y-16504829D01*
X19511171Y-16433400D01*
X19525457Y-16376257D01*
X19539743Y-16347686D01*
X19554028Y-16333400D01*
X19582600Y-16319114D01*
X19811171Y-16590543D02*
X19825457Y-16604829D01*
X19811171Y-16619114D01*
X19796886Y-16604829D01*
X19811171Y-16590543D01*
X19811171Y-16619114D01*
X20011171Y-16319114D02*
X20039743Y-16319114D01*
X20068314Y-16333400D01*
X20082600Y-16347686D01*
X20096886Y-16376257D01*
X20111171Y-16433400D01*
X20111171Y-16504829D01*
X20096886Y-16561971D01*
X20082600Y-16590543D01*
X20068314Y-16604829D01*
X20039743Y-16619114D01*
X20011171Y-16619114D01*
X19982600Y-16604829D01*
X19968314Y-16590543D01*
X19954028Y-16561971D01*
X19939743Y-16504829D01*
X19939743Y-16433400D01*
X19954028Y-16376257D01*
X19968314Y-16347686D01*
X19982600Y-16333400D01*
X20011171Y-16319114D01*
X20382600Y-16319114D02*
X20239743Y-16319114D01*
X20225457Y-16461971D01*
X20239743Y-16447686D01*
X20268314Y-16433400D01*
X20339743Y-16433400D01*
X20368314Y-16447686D01*
X20382600Y-16461971D01*
X20396886Y-16490543D01*
X20396886Y-16561971D01*
X20382600Y-16590543D01*
X20368314Y-16604829D01*
X20339743Y-16619114D01*
X20268314Y-16619114D01*
X20239743Y-16604829D01*
X20225457Y-16590543D01*
X20682600Y-16619114D02*
X20511171Y-16619114D01*
X20596886Y-16619114D02*
X20596886Y-16319114D01*
X20568314Y-16361971D01*
X20539743Y-16390543D01*
X20511171Y-16404829D01*
X20796886Y-16319114D02*
X20796886Y-16376257D01*
X20911171Y-16319114D02*
X20911171Y-16376257D01*
X21354028Y-16733400D02*
X21339743Y-16719114D01*
X21311171Y-16676257D01*
X21296886Y-16647686D01*
X21282600Y-16604829D01*
X21268314Y-16533400D01*
X21268314Y-16476257D01*
X21282600Y-16404829D01*
X21296886Y-16361971D01*
X21311171Y-16333400D01*
X21339743Y-16290543D01*
X21354028Y-16276257D01*
X21511171Y-16447686D02*
X21482600Y-16433400D01*
X21468314Y-16419114D01*
X21454028Y-16390543D01*
X21454028Y-16376257D01*
X21468314Y-16347686D01*
X21482600Y-16333400D01*
X21511171Y-16319114D01*
X21568314Y-16319114D01*
X21596886Y-16333400D01*
X21611171Y-16347686D01*
X21625457Y-16376257D01*
X21625457Y-16390543D01*
X21611171Y-16419114D01*
X21596886Y-16433400D01*
X21568314Y-16447686D01*
X21511171Y-16447686D01*
X21482600Y-16461971D01*
X21468314Y-16476257D01*
X21454028Y-16504829D01*
X21454028Y-16561971D01*
X21468314Y-16590543D01*
X21482600Y-16604829D01*
X21511171Y-16619114D01*
X21568314Y-16619114D01*
X21596886Y-16604829D01*
X21611171Y-16590543D01*
X21625457Y-16561971D01*
X21625457Y-16504829D01*
X21611171Y-16476257D01*
X21596886Y-16461971D01*
X21568314Y-16447686D01*
X21982600Y-16619114D02*
X21982600Y-16319114D01*
X22111171Y-16619114D02*
X22111171Y-16461971D01*
X22096886Y-16433400D01*
X22068314Y-16419114D01*
X22025457Y-16419114D01*
X21996886Y-16433400D01*
X21982600Y-16447686D01*
X22296886Y-16619114D02*
X22268314Y-16604829D01*
X22254028Y-16590543D01*
X22239743Y-16561971D01*
X22239743Y-16476257D01*
X22254028Y-16447686D01*
X22268314Y-16433400D01*
X22296886Y-16419114D01*
X22339743Y-16419114D01*
X22368314Y-16433400D01*
X22382600Y-16447686D01*
X22396886Y-16476257D01*
X22396886Y-16561971D01*
X22382600Y-16590543D01*
X22368314Y-16604829D01*
X22339743Y-16619114D01*
X22296886Y-16619114D01*
X22568314Y-16619114D02*
X22539743Y-16604829D01*
X22525457Y-16576257D01*
X22525457Y-16319114D01*
X22796886Y-16604829D02*
X22768314Y-16619114D01*
X22711171Y-16619114D01*
X22682600Y-16604829D01*
X22668314Y-16576257D01*
X22668314Y-16461971D01*
X22682600Y-16433400D01*
X22711171Y-16419114D01*
X22768314Y-16419114D01*
X22796886Y-16433400D01*
X22811171Y-16461971D01*
X22811171Y-16490543D01*
X22668314Y-16519114D01*
X22925457Y-16604829D02*
X22954028Y-16619114D01*
X23011171Y-16619114D01*
X23039743Y-16604829D01*
X23054028Y-16576257D01*
X23054028Y-16561971D01*
X23039743Y-16533400D01*
X23011171Y-16519114D01*
X22968314Y-16519114D01*
X22939743Y-16504829D01*
X22925457Y-16476257D01*
X22925457Y-16461971D01*
X22939743Y-16433400D01*
X22968314Y-16419114D01*
X23011171Y-16419114D01*
X23039743Y-16433400D01*
X23154028Y-16733400D02*
X23168314Y-16719114D01*
X23196886Y-16676257D01*
X23211171Y-16647686D01*
X23225457Y-16604829D01*
X23239743Y-16533400D01*
X23239743Y-16476257D01*
X23225457Y-16404829D01*
X23211171Y-16361971D01*
X23196886Y-16333400D01*
X23168314Y-16290543D01*
X23154028Y-16276257D01*
X16317600Y-16704400D02*
X16667600Y-17054400D01*
X16667600Y-16704400D02*
X16317600Y-17054400D01*
X16667600Y-16879400D02*
G75*
G03X16667600Y-16879400I-175000J0D01*
G01*
X16925457Y-16715114D02*
X17111171Y-16715114D01*
X17011171Y-16829400D01*
X17054028Y-16829400D01*
X17082600Y-16843686D01*
X17096886Y-16857972D01*
X17111171Y-16886543D01*
X17111171Y-16957972D01*
X17096886Y-16986543D01*
X17082600Y-17000829D01*
X17054028Y-17015114D01*
X16968314Y-17015114D01*
X16939743Y-17000829D01*
X16925457Y-16986543D01*
X17239743Y-16986543D02*
X17254028Y-17000829D01*
X17239743Y-17015114D01*
X17225457Y-17000829D01*
X17239743Y-16986543D01*
X17239743Y-17015114D01*
X17525457Y-16715114D02*
X17382600Y-16715114D01*
X17368314Y-16857972D01*
X17382600Y-16843686D01*
X17411171Y-16829400D01*
X17482600Y-16829400D01*
X17511171Y-16843686D01*
X17525457Y-16857972D01*
X17539743Y-16886543D01*
X17539743Y-16957972D01*
X17525457Y-16986543D01*
X17511171Y-17000829D01*
X17482600Y-17015114D01*
X17411171Y-17015114D01*
X17382600Y-17000829D01*
X17368314Y-16986543D01*
X17725457Y-16715114D02*
X17754028Y-16715114D01*
X17782600Y-16729400D01*
X17796886Y-16743686D01*
X17811171Y-16772257D01*
X17825457Y-16829400D01*
X17825457Y-16900829D01*
X17811171Y-16957972D01*
X17796886Y-16986543D01*
X17782600Y-17000829D01*
X17754028Y-17015114D01*
X17725457Y-17015114D01*
X17696886Y-17000829D01*
X17682600Y-16986543D01*
X17668314Y-16957972D01*
X17654028Y-16900829D01*
X17654028Y-16829400D01*
X17668314Y-16772257D01*
X17682600Y-16743686D01*
X17696886Y-16729400D01*
X17725457Y-16715114D01*
X17954028Y-17015114D02*
X17954028Y-16815114D01*
X17954028Y-16843686D02*
X17968314Y-16829400D01*
X17996886Y-16815114D01*
X18039743Y-16815114D01*
X18068314Y-16829400D01*
X18082600Y-16857972D01*
X18082600Y-17015114D01*
X18082600Y-16857972D02*
X18096886Y-16829400D01*
X18125457Y-16815114D01*
X18168314Y-16815114D01*
X18196886Y-16829400D01*
X18211171Y-16857972D01*
X18211171Y-17015114D01*
X18354028Y-17015114D02*
X18354028Y-16815114D01*
X18354028Y-16843686D02*
X18368314Y-16829400D01*
X18396886Y-16815114D01*
X18439743Y-16815114D01*
X18468314Y-16829400D01*
X18482600Y-16857972D01*
X18482600Y-17015114D01*
X18482600Y-16857972D02*
X18496886Y-16829400D01*
X18525457Y-16815114D01*
X18568314Y-16815114D01*
X18596886Y-16829400D01*
X18611171Y-16857972D01*
X18611171Y-17015114D01*
X19196886Y-16700829D02*
X18939743Y-17086543D01*
X19582600Y-16715114D02*
X19611171Y-16715114D01*
X19639743Y-16729400D01*
X19654028Y-16743686D01*
X19668314Y-16772257D01*
X19682600Y-16829400D01*
X19682600Y-16900829D01*
X19668314Y-16957972D01*
X19654028Y-16986543D01*
X19639743Y-17000829D01*
X19611171Y-17015114D01*
X19582600Y-17015114D01*
X19554028Y-17000829D01*
X19539743Y-16986543D01*
X19525457Y-16957972D01*
X19511171Y-16900829D01*
X19511171Y-16829400D01*
X19525457Y-16772257D01*
X19539743Y-16743686D01*
X19554028Y-16729400D01*
X19582600Y-16715114D01*
X19811171Y-16986543D02*
X19825457Y-17000829D01*
X19811171Y-17015114D01*
X19796886Y-17000829D01*
X19811171Y-16986543D01*
X19811171Y-17015114D01*
X20111171Y-17015114D02*
X19939743Y-17015114D01*
X20025457Y-17015114D02*
X20025457Y-16715114D01*
X19996886Y-16757971D01*
X19968314Y-16786543D01*
X19939743Y-16800829D01*
X20211171Y-16715114D02*
X20396886Y-16715114D01*
X20296886Y-16829400D01*
X20339743Y-16829400D01*
X20368314Y-16843686D01*
X20382600Y-16857972D01*
X20396886Y-16886543D01*
X20396886Y-16957972D01*
X20382600Y-16986543D01*
X20368314Y-17000829D01*
X20339743Y-17015114D01*
X20254028Y-17015114D01*
X20225457Y-17000829D01*
X20211171Y-16986543D01*
X20568314Y-16843686D02*
X20539743Y-16829400D01*
X20525457Y-16815114D01*
X20511171Y-16786543D01*
X20511171Y-16772257D01*
X20525457Y-16743686D01*
X20539743Y-16729400D01*
X20568314Y-16715114D01*
X20625457Y-16715114D01*
X20654028Y-16729400D01*
X20668314Y-16743686D01*
X20682600Y-16772257D01*
X20682600Y-16786543D01*
X20668314Y-16815114D01*
X20654028Y-16829400D01*
X20625457Y-16843686D01*
X20568314Y-16843686D01*
X20539743Y-16857972D01*
X20525457Y-16872257D01*
X20511171Y-16900829D01*
X20511171Y-16957972D01*
X20525457Y-16986543D01*
X20539743Y-17000829D01*
X20568314Y-17015114D01*
X20625457Y-17015114D01*
X20654028Y-17000829D01*
X20668314Y-16986543D01*
X20682600Y-16957972D01*
X20682600Y-16900829D01*
X20668314Y-16872257D01*
X20654028Y-16857972D01*
X20625457Y-16843686D01*
X20796886Y-16715114D02*
X20796886Y-16772257D01*
X20911171Y-16715114D02*
X20911171Y-16772257D01*
X21354028Y-17129400D02*
X21339743Y-17115114D01*
X21311171Y-17072257D01*
X21296886Y-17043686D01*
X21282600Y-17000829D01*
X21268314Y-16929400D01*
X21268314Y-16872257D01*
X21282600Y-16800829D01*
X21296886Y-16757971D01*
X21311171Y-16729400D01*
X21339743Y-16686543D01*
X21354028Y-16672257D01*
X21596886Y-16815114D02*
X21596886Y-17015114D01*
X21525457Y-16700829D02*
X21454028Y-16915114D01*
X21639743Y-16915114D01*
X21982600Y-17015114D02*
X21982600Y-16715114D01*
X22111171Y-17015114D02*
X22111171Y-16857972D01*
X22096886Y-16829400D01*
X22068314Y-16815114D01*
X22025457Y-16815114D01*
X21996886Y-16829400D01*
X21982600Y-16843686D01*
X22296886Y-17015114D02*
X22268314Y-17000829D01*
X22254028Y-16986543D01*
X22239743Y-16957972D01*
X22239743Y-16872257D01*
X22254028Y-16843686D01*
X22268314Y-16829400D01*
X22296886Y-16815114D01*
X22339743Y-16815114D01*
X22368314Y-16829400D01*
X22382600Y-16843686D01*
X22396886Y-16872257D01*
X22396886Y-16957972D01*
X22382600Y-16986543D01*
X22368314Y-17000829D01*
X22339743Y-17015114D01*
X22296886Y-17015114D01*
X22568314Y-17015114D02*
X22539743Y-17000829D01*
X22525457Y-16972257D01*
X22525457Y-16715114D01*
X22796886Y-17000829D02*
X22768314Y-17015114D01*
X22711171Y-17015114D01*
X22682600Y-17000829D01*
X22668314Y-16972257D01*
X22668314Y-16857972D01*
X22682600Y-16829400D01*
X22711171Y-16815114D01*
X22768314Y-16815114D01*
X22796886Y-16829400D01*
X22811171Y-16857972D01*
X22811171Y-16886543D01*
X22668314Y-16915114D01*
X22925457Y-17000829D02*
X22954028Y-17015114D01*
X23011171Y-17015114D01*
X23039743Y-17000829D01*
X23054028Y-16972257D01*
X23054028Y-16957972D01*
X23039743Y-16929400D01*
X23011171Y-16915114D01*
X22968314Y-16915114D01*
X22939743Y-16900829D01*
X22925457Y-16872257D01*
X22925457Y-16857972D01*
X22939743Y-16829400D01*
X22968314Y-16815114D01*
X23011171Y-16815114D01*
X23039743Y-16829400D01*
X23154028Y-17129400D02*
X23168314Y-17115114D01*
X23196886Y-17072257D01*
X23211171Y-17043686D01*
X23225457Y-17000829D01*
X23239743Y-16929400D01*
X23239743Y-16872257D01*
X23225457Y-16800829D01*
X23211171Y-16757971D01*
X23196886Y-16729400D01*
X23168314Y-16686543D01*
X23154028Y-16672257D01*
M02*
